<svg xmlns="http://www.w3.org/2000/svg" xmlns:xlink="http://www.w3.org/1999/xlink" width="95.087" height="105.443" viewBox="0 0 95.087 105.443"><defs><style>.a{fill:#fff;}.b{fill:url(#c);}.c{fill:#55bfca;stroke:#55bfca;stroke-miterlimit:10;stroke-width:1.701px;}.d{filter:url(#a);}</style><filter id="a" x="0" y="0" width="95.087" height="105.443" filterUnits="userSpaceOnUse"><feOffset dy="3" input="SourceAlpha"/><feGaussianBlur stdDeviation="3" result="b"/><feFlood flood-opacity="0.161"/><feComposite operator="in" in2="b"/><feComposite in="SourceGraphic"/></filter><linearGradient id="c" x1="-0.693" y1="0.506" x2="2.265" y2="0.49" gradientUnits="objectBoundingBox"><stop offset="0" stop-color="#55bfca"/><stop offset="1" stop-color="#55bfca"/></linearGradient></defs><g transform="translate(9 6)"><g class="d" transform="matrix(1, 0, 0, 1, -9, -6)"><path class="a" d="M944.35,511.215a5.08,5.08,0,0,1,2.538-4.4L980.354,487.5a5.081,5.081,0,0,1,5.078,0l33.466,19.322a5.08,5.08,0,0,1,2.539,4.4v38.644a5.076,5.076,0,0,1-2.539,4.4l-33.466,19.322a5.077,5.077,0,0,1-5.078,0l-33.466-19.322a5.077,5.077,0,0,1-2.538-4.4Z" transform="translate(-935.35 -480.82)"/></g><path class="b" d="M956.98,519.712l.666-1.152,31.439-18.152h1.329l31.442,18.154.662,1.148v36.3l-.663,1.149-31.442,18.154h-1.328l-31.441-18.153-.664-1.15Z" transform="translate(-951.205 -494.194)"/><path class="a" d="M965.553,558.862V527.357a1.628,1.628,0,0,1,.812-1.409l27.225-15.753a1.621,1.621,0,0,1,1.624,0l27.225,15.753a1.628,1.628,0,0,1,.812,1.409v31.5a1.628,1.628,0,0,1-.812,1.41l-27.225,15.753a1.623,1.623,0,0,1-1.624,0l-27.225-15.752A1.628,1.628,0,0,1,965.553,558.862Z" transform="translate(-955.859 -499.388)"/><g transform="translate(16.958 22.309)"><path class="c" d="M745.072,509.511a21.746,21.746,0,1,1,15.375-6.369A21.6,21.6,0,0,1,745.072,509.511Zm0-42.342a20.6,20.6,0,1,0,20.6,20.6A20.621,20.621,0,0,0,745.072,467.169Z" transform="translate(-723.329 -466.023)"/><g transform="translate(27.468 18.416)"><path class="c" d="M752.407,508.921a.574.574,0,0,1-.473-.9,24.63,24.63,0,0,0,2.81-22.123.573.573,0,1,1,1.079-.386,25.782,25.782,0,0,1-2.943,23.155A.571.571,0,0,1,752.407,508.921Z" transform="translate(-751.835 -485.135)"/></g><g transform="translate(11.968 2.334)"><path class="c" d="M751.747,479.92a.574.574,0,0,1-.472-.248A24.644,24.644,0,0,0,736.2,469.578a.573.573,0,1,1,.24-1.12,25.618,25.618,0,0,1,12.77,6.958,25.939,25.939,0,0,1,3.005,3.606.572.572,0,0,1-.146.8A.565.565,0,0,1,751.747,479.92Z" transform="translate(-735.75 -468.446)"/></g><g transform="translate(3.127 10.229)"><path class="c" d="M729.291,484.194a.573.573,0,0,1-.515-.319,25.582,25.582,0,0,1-2.192-6.556.573.573,0,1,1,1.125-.213,24.426,24.426,0,0,0,2.095,6.262.572.572,0,0,1-.514.826Z" transform="translate(-726.575 -476.639)"/></g><g transform="translate(8.864 22.032)"><path class="c" d="M752.066,498.669a25.717,25.717,0,0,1-19.4-8.833.573.573,0,1,1,.864-.753,24.574,24.574,0,0,0,31.86,4.514.573.573,0,1,1,.622.962A25.619,25.619,0,0,1,752.066,498.669Z" transform="translate(-732.528 -488.887)"/></g><g transform="translate(0.878 26.778)"><path class="c" d="M729.692,497.546a.552.552,0,0,1-.21-.041,25.576,25.576,0,0,1-4.991-2.647.573.573,0,0,1,.646-.946,24.412,24.412,0,0,0,4.767,2.528.573.573,0,0,1-.211,1.106Z" transform="translate(-724.241 -493.813)"/></g><g transform="translate(12.079 11.278)"><path class="c" d="M739.355,498.72a25.511,25.511,0,0,1-2.984-.173.573.573,0,0,1,.133-1.138A24.575,24.575,0,0,0,763.4,478.181a.573.573,0,1,1,1.121.24,25.746,25.746,0,0,1-16.9,18.95A25.952,25.952,0,0,1,739.355,498.72Z" transform="translate(-735.865 -477.728)"/></g><g transform="translate(26.1 12.664)"><path class="c" d="M753.894,486.122a3.479,3.479,0,1,1,3.479-3.479A3.482,3.482,0,0,1,753.894,486.122Zm0-5.811a2.333,2.333,0,1,0,2.333,2.333A2.335,2.335,0,0,0,753.894,480.311Z" transform="translate(-750.415 -479.165)"/></g><g transform="translate(3.987 16.501)"><path class="c" d="M730.946,490.105a3.479,3.479,0,1,1,3.48-3.479A3.483,3.483,0,0,1,730.946,490.105Zm0-5.812a2.333,2.333,0,1,0,2.334,2.334A2.336,2.336,0,0,0,730.946,484.293Z" transform="translate(-727.467 -483.147)"/></g><g transform="translate(5.958 27.356)"><path class="c" d="M732.991,501.371a3.479,3.479,0,1,1,3.479-3.479A3.483,3.483,0,0,1,732.991,501.371Zm0-5.812a2.333,2.333,0,1,0,2.334,2.333A2.335,2.335,0,0,0,732.991,495.559Z" transform="translate(-729.512 -494.413)"/></g></g></g></svg>