<svg xmlns="http://www.w3.org/2000/svg" xmlns:xlink="http://www.w3.org/1999/xlink" width="95.087" height="105.442" viewBox="0 0 95.087 105.442"><defs><style>.a{fill:#fff;}.b,.c{fill:#55bfca;}.c{stroke:#55bfca;stroke-miterlimit:10;stroke-width:1.465px;}.d{filter:url(#a);}</style><filter id="a" x="0" y="0" width="95.087" height="105.442" filterUnits="userSpaceOnUse"><feOffset dy="3" input="SourceAlpha"/><feGaussianBlur stdDeviation="3" result="b"/><feFlood flood-opacity="0.161"/><feComposite operator="in" in2="b"/><feComposite in="SourceGraphic"/></filter></defs><g transform="translate(9 6)"><g class="d" transform="matrix(1, 0, 0, 1, -9, -6)"><path class="a" d="M944.35,511.215a5.08,5.08,0,0,1,2.538-4.4L980.354,487.5a5.081,5.081,0,0,1,5.078,0l33.466,19.322a5.08,5.08,0,0,1,2.539,4.4v38.644a5.076,5.076,0,0,1-2.539,4.4l-33.466,19.322a5.077,5.077,0,0,1-5.078,0l-33.466-19.322a5.077,5.077,0,0,1-2.538-4.4Z" transform="translate(-935.35 -480.82)"/></g><path class="a" d="M965.553,558.862V527.357a1.628,1.628,0,0,1,.812-1.409l27.225-15.753a1.621,1.621,0,0,1,1.624,0l27.225,15.753a1.628,1.628,0,0,1,.812,1.409v31.5a1.628,1.628,0,0,1-.812,1.41l-27.225,15.753a1.623,1.623,0,0,1-1.624,0l-27.225-15.752A1.628,1.628,0,0,1,965.553,558.862Z" transform="translate(-955.859 -499.387)"/><g transform="translate(6.264 7.206)"><g transform="translate(0)"><path class="b" d="M131.7,449.26l-30.931-17.919H99.46L68.491,449.187l-.656,1.135-.04,35.761.652,1.134,30.93,17.917h1.307l30.972-17.849.654-1.131.04-35.764Zm-2.639,34.825a1.634,1.634,0,0,1-.818,1.414l-27.39,15.785a1.633,1.633,0,0,1-1.633,0L71.864,485.437a1.635,1.635,0,0,1-.815-1.416l.035-31.631a1.635,1.635,0,0,1,.818-1.414l27.391-15.785a1.63,1.63,0,0,1,1.633,0l27.355,15.846a1.633,1.633,0,0,1,.815,1.416Z" transform="translate(-67.795 -431.34)"/></g><g transform="translate(8.605 10.748)"><g transform="translate(0)"><g transform="translate(9.127 11.556)"><path class="c" d="M111.253,495.566a14.563,14.563,0,0,1-10.3-24.862h0a14.563,14.563,0,1,1,10.3,24.862Zm0-27.6a12.955,12.955,0,0,0-9.22,3.819h0a13.039,13.039,0,1,0,9.22-3.819Zm-9.759,3.28h0Z" transform="translate(-96.689 -466.439)"/></g><path class="c" d="M111.1,506.745h-5.422a2.127,2.127,0,0,1-2.015-2.219v-3.313a1.063,1.063,0,0,0-.736-1.033,17.714,17.714,0,0,1-3.391-1.391.929.929,0,0,0-1.145.2l-1.954,2.16a1.911,1.911,0,0,1-1.425.652h0a1.913,1.913,0,0,1-1.423-.648l-3.845-4.229a2.382,2.382,0,0,1,0-3.144l1.719-1.883a1.168,1.168,0,0,0,.17-1.292,22.777,22.777,0,0,1-1.568-3.992.988.988,0,0,0-.936-.744h-2.4a2.127,2.127,0,0,1-2.014-2.22v-6.108a2.127,2.127,0,0,1,2.014-2.22h2.382a1,1,0,0,0,.945-.777,21.515,21.515,0,0,1,1.552-3.971,1.188,1.188,0,0,0-.154-1.32l-1.716-1.886a2.382,2.382,0,0,1,0-3.14l3.847-4.241a1.916,1.916,0,0,1,1.426-.65h0a1.915,1.915,0,0,1,1.425.651l1.957,2.158a.929.929,0,0,0,1.142.2,17.721,17.721,0,0,1,3.394-1.386,1.06,1.06,0,0,0,.736-1.03v-3.268a2.127,2.127,0,0,1,2.015-2.219H111.1a2.127,2.127,0,0,1,2.015,2.219v3.777a1.1,1.1,0,0,0,.673,1.031,17.2,17.2,0,0,1,2.881,1.462.929.929,0,0,0,1.2-.167l2.524-2.784a1.914,1.914,0,0,1,1.425-.65h0a1.911,1.911,0,0,1,1.424.649l3.85,4.24a2.381,2.381,0,0,1,0,3.139l-2.756,3.034a1.18,1.18,0,0,0-.18,1.265,21.075,21.075,0,0,1,1.05,2.879,1.01,1.01,0,0,0,.946.78h3.9a2.127,2.127,0,0,1,2.014,2.22v6.108a2.127,2.127,0,0,1-2.014,2.22h-3.9a1.011,1.011,0,0,0-.946.78,20.815,20.815,0,0,1-1.036,2.845,1.183,1.183,0,0,0,.181,1.266l2.733,3a2.383,2.383,0,0,1,0,3.142l-3.853,4.243a1.889,1.889,0,0,1-2.848,0l-2.51-2.761a.931.931,0,0,0-1.2-.167,17.1,17.1,0,0,1-2.886,1.457,1.1,1.1,0,0,0-.675,1.032v3.818A2.127,2.127,0,0,1,111.1,506.745Zm-12.01-9.6a2.212,2.212,0,0,1,1.053.269,16.373,16.373,0,0,0,3.14,1.288,2.573,2.573,0,0,1,1.764,2.506v3.313a.666.666,0,0,0,.631.695H111.1a.666.666,0,0,0,.631-.695v-3.818a2.627,2.627,0,0,1,1.6-2.469,15.849,15.849,0,0,0,2.663-1.344,2.222,2.222,0,0,1,2.86.412l2.511,2.76a.591.591,0,0,0,.892,0l3.853-4.243a.745.745,0,0,0,0-.985l-2.732-3a2.822,2.822,0,0,1-.445-3.022,19.085,19.085,0,0,0,.956-2.623,2.411,2.411,0,0,1,2.267-1.85h3.9a.666.666,0,0,0,.631-.7v-6.108a.666.666,0,0,0-.631-.7h-3.9A2.409,2.409,0,0,1,123.881,475a19.4,19.4,0,0,0-.969-2.657,2.822,2.822,0,0,1,.442-3.022l2.756-3.033a.745.745,0,0,0,0-.984l-3.849-4.239a.6.6,0,0,0-.446-.2h0a.6.6,0,0,0-.447.2l-2.524,2.784a2.221,2.221,0,0,1-2.865.413,15.831,15.831,0,0,0-2.658-1.35,2.626,2.626,0,0,1-1.593-2.467v-3.777a.666.666,0,0,0-.631-.695h-5.422a.666.666,0,0,0-.631.695v3.268a2.569,2.569,0,0,1-1.766,2.5,16.371,16.371,0,0,0-3.142,1.283,2.221,2.221,0,0,1-2.726-.5l-1.957-2.158a.6.6,0,0,0-.446-.2h0a.6.6,0,0,0-.447.2l-3.847,4.24a.732.732,0,0,0-.185.492.724.724,0,0,0,.185.491l1.716,1.886a2.835,2.835,0,0,1,.382,3.148,19.848,19.848,0,0,0-1.434,3.672,2.4,2.4,0,0,1-2.267,1.851H86.726a.666.666,0,0,0-.631.7v6.108a.666.666,0,0,0,.631.7h2.4a2.39,2.39,0,0,1,2.255,1.806,21.117,21.117,0,0,0,1.456,3.709,2.814,2.814,0,0,1-.4,3.118l-1.719,1.883a.749.749,0,0,0,0,.986l3.845,4.229a.6.6,0,0,0,.446.2h0a.6.6,0,0,0,.447-.205l1.954-2.159A2.259,2.259,0,0,1,99.086,497.149Z" transform="translate(-84.712 -454.446)"/></g><g transform="translate(18.806 22.531)"><path class="c" d="M110.886,485.065a.761.761,0,0,1-.539-.223L107.01,481.5a.762.762,0,1,1,1.077-1.078l2.8,2.8,5.174-5.173a.762.762,0,1,1,1.077,1.078l-5.711,5.712A.765.765,0,0,1,110.886,485.065Z" transform="translate(-106.786 -477.828)"/></g></g></g></g></svg>