<svg xmlns="http://www.w3.org/2000/svg" xmlns:xlink="http://www.w3.org/1999/xlink" width="95.087" height="105.443" viewBox="0 0 95.087 105.443"><defs><style>.a{fill:#fff;}.b{fill:url(#c);}.c,.d{fill:#55bfca;stroke:#55bfca;stroke-miterlimit:10;}.c{stroke-width:2.237px;}.d{stroke-width:2.623px;}.e{filter:url(#a);}</style><filter id="a" x="0" y="0" width="95.087" height="105.443" filterUnits="userSpaceOnUse"><feOffset dy="3" input="SourceAlpha"/><feGaussianBlur stdDeviation="3" result="b"/><feFlood flood-opacity="0.161"/><feComposite operator="in" in2="b"/><feComposite in="SourceGraphic"/></filter><linearGradient id="c" x1="-0.693" y1="0.506" x2="2.265" y2="0.49" gradientUnits="objectBoundingBox"><stop offset="0" stop-color="#55bfca"/><stop offset="1" stop-color="#55bfca"/></linearGradient></defs><g transform="translate(9 6)"><g transform="translate(0 -143.138)"><g class="e" transform="matrix(1, 0, 0, 1, -9, 137.14)"><path class="a" d="M944.35,511.215a5.08,5.08,0,0,1,2.538-4.4L980.354,487.5a5.081,5.081,0,0,1,5.078,0l33.466,19.322a5.08,5.08,0,0,1,2.539,4.4v38.644a5.076,5.076,0,0,1-2.539,4.4l-33.466,19.322a5.077,5.077,0,0,1-5.078,0l-33.466-19.322a5.077,5.077,0,0,1-2.538-4.4Z" transform="translate(-935.35 -480.82)"/></g><path class="b" d="M956.98,519.739l.666-1.154,31.439-18.178h1.329l31.442,18.18.662,1.149v36.356l-.663,1.15-31.442,18.18h-1.328l-31.441-18.178-.664-1.152Z" transform="translate(-951.205 -351.056)"/></g><path class="a" d="M965.553,558.862V527.357a1.628,1.628,0,0,1,.812-1.409l27.225-15.753a1.621,1.621,0,0,1,1.624,0l27.225,15.753a1.628,1.628,0,0,1,.812,1.409v31.5a1.628,1.628,0,0,1-.812,1.41l-27.225,15.753a1.623,1.623,0,0,1-1.624,0l-27.225-15.752A1.628,1.628,0,0,1,965.553,558.862Z" transform="translate(-955.859 -499.388)"/><g transform="translate(18.974 14.573)"><g transform="translate(19.166)"><path class="c" d="M621.666,515.54c-.168,0-.3-.3-.3-.66V457.365c0-.364.136-.66.3-.66s.3.3.3.66V514.88C621.969,515.244,621.833,515.54,621.666,515.54Z" transform="translate(-621.362 -456.705)"/></g><g transform="translate(0 9.394)"><g transform="translate(4.712 8.652)"><path class="c" d="M619.775,479.676a40,40,0,0,1-7.306-.623c-2.345-.448-5.3-1.35-6.075-3.1a.372.372,0,0,1,.68-.3c.5,1.133,2.468,2.08,5.534,2.667a41.92,41.92,0,0,0,9.874.532,29.377,29.377,0,0,0,6.721-1.074c1.836-.569,2.935-1.29,3.179-2.083a.373.373,0,0,1,.712.22c-.325,1.053-1.56,1.919-3.67,2.575a30.091,30.091,0,0,1-6.9,1.106C621.615,479.65,620.693,479.676,619.775,479.676Z" transform="translate(-606.362 -475.432)"/></g><path class="d" d="M620.936,505.381a19.463,19.463,0,1,1,13.763-5.7A19.335,19.335,0,0,1,620.936,505.381Zm0-38.054a18.591,18.591,0,1,0,18.591,18.591A18.612,18.612,0,0,0,620.936,467.327Z" transform="translate(-601.472 -466.454)"/><g transform="translate(19.011)"><path class="d" d="M621.638,505.381a.437.437,0,1,1,0-.873c4.542,0,7.266-3.113,8.752-5.726a29.2,29.2,0,0,0,0-25.73c-1.486-2.612-4.21-5.726-8.752-5.726a.437.437,0,1,1,0-.873c3.928,0,7.216,2.132,9.512,6.167a30.06,30.06,0,0,1,0,26.593C628.854,503.249,625.565,505.381,621.638,505.381Z" transform="translate(-621.201 -466.454)"/></g><g transform="translate(6.18)"><path class="d" d="M621.153,505.381c-4.125,0-7.583-2.13-10-6.158a28.7,28.7,0,0,1,0-26.611c2.414-4.029,5.871-6.158,10-6.158a.437.437,0,0,1,0,.873c-4.8,0-7.68,3.118-9.249,5.734a27.85,27.85,0,0,0,0,25.713c1.569,2.615,4.445,5.733,9.249,5.733a.437.437,0,0,1,0,.873Z" transform="translate(-607.886 -466.454)"/></g><g transform="translate(1.409 26.213)"><path class="d" d="M621.213,500.08a39.655,39.655,0,0,1-10.081-1.236c-3.714-1-6.514-2.548-8.1-4.473a.436.436,0,0,1,.675-.554c1.469,1.785,4.115,3.231,7.651,4.185a39.568,39.568,0,0,0,11.129,1.186c7.5-.223,13.549-2.273,15.79-5.351a.436.436,0,0,1,.705.514c-1.245,1.711-3.535,3.144-6.619,4.145a36.038,36.038,0,0,1-9.851,1.565C622.081,500.074,621.647,500.08,621.213,500.08Z" transform="translate(-602.934 -493.658)"/></g><g transform="translate(0.012 17.892)"><path class="d" d="M620.712,491.546q-.791,0-1.581-.024a40.953,40.953,0,0,1-10.585-1.6c-3.3-1.018-5.713-2.471-6.976-4.2a.436.436,0,1,1,.7-.515c2.27,3.109,8.74,5.2,16.884,5.448,7.739.238,17.074-1.36,20.482-5.47a.437.437,0,0,1,.672.558c-1.631,1.968-4.643,3.547-8.708,4.568A45.9,45.9,0,0,1,620.712,491.546Z" transform="translate(-601.485 -485.022)"/></g></g></g></g></svg>