<svg xmlns="http://www.w3.org/2000/svg" width="538" height="237" viewBox="0 0 538 237"><defs><style>.a{fill:none;stroke:#fff;stroke-width:2px;stroke-dasharray:4 5;opacity:0.503;}.b{fill:#55bfca;font-size:24px;}.b,.c{font-family:Runda-Bold, Runda;font-weight:700;}.c,.d,.e{fill:#fff;}.c{font-size:18px;}.d{font-size:15px;font-family:Runda-Normal, Runda;}</style></defs><g transform="translate(1 1)"><path class="a" d="M6,0H530a6,6,0,0,1,6,6V229a6,6,0,0,1-6,6H6a6,6,0,0,1-6-6V6A6,6,0,0,1,6,0Z"/><g transform="translate(39 41)"><text class="b"><tspan x="0" y="23">&lt; DEVELOPMENT SOLUTIONS &gt; </tspan></text></g><text class="c" transform="translate(40 131)"><tspan x="0" y="0">WE PLAY IN YOUR TEAM</tspan></text><text class="d" transform="translate(40 151)"><tspan x="0" y="13" xml:space="preserve">Give your project the right tools. Find the perfect  services for </tspan><tspan x="0" y="35">your business</tspan></text><g transform="translate(446 208)"><path class="e" d="M6.667,0a1.21,1.21,0,0,0-.933.4L.4,5.733A1.289,1.289,0,0,0,.4,7.6a1.289,1.289,0,0,0,1.867,0l4.4-4.4,4.4,4.4a1.32,1.32,0,0,0,1.867-1.867L7.6.4A1.21,1.21,0,0,0,6.667,0Z" transform="translate(0 13.333) rotate(-90)"/></g><g transform="translate(487.667 208)"><path class="e" d="M6.667,8a1.21,1.21,0,0,1-.933-.4L.4,2.267A1.289,1.289,0,0,1,.4.4,1.289,1.289,0,0,1,2.267.4l4.4,4.4,4.4-4.4a1.289,1.289,0,0,1,1.867,0,1.289,1.289,0,0,1,0,1.867L7.6,7.6A1.21,1.21,0,0,1,6.667,8Z" transform="translate(0 13.333) rotate(-90)"/></g></g></svg>