<svg xmlns="http://www.w3.org/2000/svg" width="125" height="19.347" viewBox="0 0 125 19.347"><defs><style>.a{fill:#55bfca;}</style></defs><path class="a" d="M87.692-.007a9.973,9.973,0,0,1,4.991,1.179,7.636,7.636,0,0,1,3.157,3.353,11.434,11.434,0,0,1,1.073,5.108,12.478,12.478,0,0,1-.588,3.941,8.524,8.524,0,0,1-1.761,3.073,7.672,7.672,0,0,1-2.881,1.984,10.422,10.422,0,0,1-3.914.688,10.329,10.329,0,0,1-3.929-.707,7.8,7.8,0,0,1-2.895-2,8.509,8.509,0,0,1-1.754-3.1A12.5,12.5,0,0,1,78.6,9.609a12.124,12.124,0,0,1,.618-3.954A8.463,8.463,0,0,1,81.009,2.6,7.721,7.721,0,0,1,83.861.663a10.27,10.27,0,0,1,3.83-.669Zm5.38,9.616a8.748,8.748,0,0,0-.664-3.558,4.945,4.945,0,0,0-1.9-2.282A5.19,5.19,0,0,0,87.684,3a5.1,5.1,0,0,0-2.092.428,4.58,4.58,0,0,0-1.658,1.244,5.928,5.928,0,0,0-1.1,2.092,9.422,9.422,0,0,0-.4,2.853,9.645,9.645,0,0,0,.4,2.881,5.934,5.934,0,0,0,1.141,2.136A4.755,4.755,0,0,0,85.661,15.9a5.3,5.3,0,0,0,4.755-.306,5.008,5.008,0,0,0,1.938-2.244A8.717,8.717,0,0,0,93.072,9.609Z" transform="translate(-63.646 0.009)"/><path class="a" d="M202.759,4.554H195.3V9.342h6.236a1.923,1.923,0,0,1,1.293.38,1.331,1.331,0,0,1,.428,1.038,1.3,1.3,0,0,1-.434,1.04,1.9,1.9,0,0,1-1.288.38H195.3v6.162a2.482,2.482,0,0,1-.529,1.742,1.919,1.919,0,0,1-2.729,0,2.475,2.475,0,0,1-.531-1.736V3.96a3.151,3.151,0,0,1,.243-1.331,1.5,1.5,0,0,1,.761-.761,3.208,3.208,0,0,1,1.32-.236h8.925a1.938,1.938,0,0,1,1.347.4,1.356,1.356,0,0,1,.439,1.052,1.375,1.375,0,0,1-.439,1.065A1.931,1.931,0,0,1,202.759,4.554Z" transform="translate(-155.085 -1.318)"/><path class="a" d="M265.97,3.988l-4.565,12.969a8.524,8.524,0,0,1-.892,1.9,1.423,1.423,0,0,1-1.211.491,1.776,1.776,0,0,1-1.263-.523,1.6,1.6,0,0,1-.55-1.185,2.662,2.662,0,0,1,.127-.793q.129-.405.422-1.141l4.781-12.138c.135-.35.3-.761.491-1.257a6.336,6.336,0,0,1,.612-1.217,2.511,2.511,0,0,1,.854-.785,3.043,3.043,0,0,1,2.628,0,2.534,2.534,0,0,1,.854.772,5.416,5.416,0,0,1,.548,1.019q.222.542.571,1.449L274.263,15.6a6.105,6.105,0,0,1,.571,2,1.662,1.662,0,0,1-.54,1.192,1.786,1.786,0,0,1-1.309.542,1.692,1.692,0,0,1-.761-.16,1.548,1.548,0,0,1-.536-.434,3.961,3.961,0,0,1-.464-.841c-.165-.38-.31-.713-.428-1L265.97,3.988" transform="translate(-208.517 -0.007)"/><path class="a" d="M368.278,12.367h-1.331v6.006a2.488,2.488,0,0,1-.523,1.748,1.78,1.78,0,0,1-1.364.571,1.746,1.746,0,0,1-1.4-.586,2.608,2.608,0,0,1-.5-1.723V3.989a2.432,2.432,0,0,1,.548-1.773,2.438,2.438,0,0,1,1.772-.55h6.16a18.735,18.735,0,0,1,2.181.108,5.5,5.5,0,0,1,1.632.441,4.726,4.726,0,0,1,1.56,1.057,4.643,4.643,0,0,1,1.027,1.6,5.325,5.325,0,0,1,.35,1.932,4.663,4.663,0,0,1-1.179,3.34,6.793,6.793,0,0,1-3.577,1.773,6.9,6.9,0,0,1,1.925,1.582,16.076,16.076,0,0,1,1.645,2.225,16.372,16.372,0,0,1,1.122,2.13,4.22,4.22,0,0,1,.4,1.307,1.347,1.347,0,0,1-.234.734,1.653,1.653,0,0,1-.645.571,2.035,2.035,0,0,1-.951.211,1.854,1.854,0,0,1-1.071-.3,2.949,2.949,0,0,1-.746-.761c-.207-.308-.491-.761-.848-1.352l-1.522-2.526a13.884,13.884,0,0,0-1.461-2.117,3.6,3.6,0,0,0-1.307-.995,4.483,4.483,0,0,0-1.666-.264Zm2.168-7.855h-3.5V9.647h3.393a9.475,9.475,0,0,0,2.3-.232,2.706,2.706,0,0,0,1.423-.8,2.316,2.316,0,0,0,.491-1.561,2.422,2.422,0,0,0-.392-1.371,2.385,2.385,0,0,0-1.1-.886,7.942,7.942,0,0,0-2.617-.28Z" transform="translate(-294.09 -1.347)"/><path class="a" d="M462.89,17.027V2.3a2.513,2.513,0,0,1,.523-1.723,1.744,1.744,0,0,1,1.352-.571,1.8,1.8,0,0,1,1.379.569,2.452,2.452,0,0,1,.529,1.729V17.027a2.486,2.486,0,0,1-.529,1.736,1.8,1.8,0,0,1-1.383.571,1.742,1.742,0,0,1-1.346-.58A2.5,2.5,0,0,1,462.89,17.027Z" transform="translate(-374.852 -0.001)"/><path class="a" d="M516.505,13.393a5.487,5.487,0,0,1-.873,3.043,5.77,5.77,0,0,1-2.556,2.117,9.634,9.634,0,0,1-3.994.761,8.974,8.974,0,0,1-4.565-1.046,6.065,6.065,0,0,1-2.071-2.008,4.546,4.546,0,0,1-.8-2.442,1.653,1.653,0,0,1,1.695-1.655,1.447,1.447,0,0,1,1.016.38,3.022,3.022,0,0,1,.707,1.141,7.441,7.441,0,0,0,.761,1.493,3.152,3.152,0,0,0,1.168.989,4.321,4.321,0,0,0,1.976.38,4.454,4.454,0,0,0,2.735-.785,2.365,2.365,0,0,0,1.054-1.955,2.071,2.071,0,0,0-.571-1.522,3.642,3.642,0,0,0-1.455-.882,24.9,24.9,0,0,0-2.4-.65,17.482,17.482,0,0,1-3.372-1.1A5.464,5.464,0,0,1,502.8,7.937a4.485,4.485,0,0,1-.8-2.71,4.656,4.656,0,0,1,.852-2.75A5.3,5.3,0,0,1,505.294.635a9.951,9.951,0,0,1,3.739-.645,9.319,9.319,0,0,1,2.978.426A6.316,6.316,0,0,1,514.1,1.558a4.755,4.755,0,0,1,1.2,1.476,3.426,3.426,0,0,1,.38,1.521,1.8,1.8,0,0,1-.468,1.219,1.522,1.522,0,0,1-1.193.542,1.375,1.375,0,0,1-.989-.325,4.391,4.391,0,0,1-.732-1.065,4.849,4.849,0,0,0-1.225-1.653,3.59,3.59,0,0,0-2.3-.593,3.974,3.974,0,0,0-2.366.645,1.874,1.874,0,0,0-.9,1.55,1.579,1.579,0,0,0,.306.97,2.572,2.572,0,0,0,.835.7,5.67,5.67,0,0,0,1.084.46q.548.165,1.811.485a28.342,28.342,0,0,1,2.853.814A8.75,8.75,0,0,1,514.59,9.39a4.462,4.462,0,0,1,1.4,1.613A5.179,5.179,0,0,1,516.505,13.393Z" transform="translate(-406.24 0.012)"/><path class="a" d="M1.915,21.374l6.276,3.553a3.724,3.724,0,0,1,.915.7,1.519,1.519,0,0,1,.238.951,1.881,1.881,0,0,1-.253.981c-.167.285-.359.428-.571.428a.865.865,0,0,1-.38-.1,6.254,6.254,0,0,1-.55-.329L1.7,23.825l-.607-.38a2.876,2.876,0,0,1-.588-.477,1.858,1.858,0,0,1-.38-.664,3.091,3.091,0,0,1-.137-1.021,3.132,3.132,0,0,1,.145-1.029,1.967,1.967,0,0,1,.38-.666A2.628,2.628,0,0,1,1,19.162c.175-.116.407-.262.7-.441l5.829-3.8A2.119,2.119,0,0,1,8.5,14.47a.709.709,0,0,1,.571.422,1.9,1.9,0,0,1,.268,1.01,1.957,1.957,0,0,1-.078.6,1.259,1.259,0,0,1-.209.417,1.879,1.879,0,0,1-.405.363c-.19.129-.344.242-.485.333L1.915,21.374" transform="translate(0.01 -11.716)"/><path class="a" d="M615.545,21.867l-6.276-3.553a3.777,3.777,0,0,1-.915-.694,1.507,1.507,0,0,1-.236-.951,1.887,1.887,0,0,1,.251-.983c.169-.283.361-.426.571-.426a.865.865,0,0,1,.38.1c.133.067.316.177.55.327l5.867,3.726.609.38a2.87,2.87,0,0,1,.588.475,1.864,1.864,0,0,1,.38.666,3.687,3.687,0,0,1,0,2.045,1.956,1.956,0,0,1-.371.668,2.756,2.756,0,0,1-.479.439c-.175.116-.409.262-.7.441l-5.833,3.808a2.134,2.134,0,0,1-.968.447q-.3,0-.57-.422a1.89,1.89,0,0,1-.261-1.019,2.018,2.018,0,0,1,.076-.593,1.276,1.276,0,0,1,.209-.417,1.9,1.9,0,0,1,.407-.363c.19-.129.344-.242.483-.333l6.238-3.766" transform="translate(-492.459 -12.356)"/></svg>