<svg xmlns="http://www.w3.org/2000/svg" xmlns:xlink="http://www.w3.org/1999/xlink" width="98" height="108.747" viewBox="0 0 98 108.747"><defs><style>.a{fill:#fff;}.b{fill:url(#c);}.c,.d{fill:#55bfca;}.c{stroke:#55bfca;stroke-miterlimit:10;stroke-width:1.701px;}.e{filter:url(#a);}</style><filter id="a" x="0" y="0" width="98" height="108.747" filterUnits="userSpaceOnUse"><feOffset dy="3" input="SourceAlpha"/><feGaussianBlur stdDeviation="3" result="b"/><feFlood flood-opacity="0.161"/><feComposite operator="in" in2="b"/><feComposite in="SourceGraphic"/></filter><linearGradient id="c" x1="-0.693" y1="0.506" x2="2.265" y2="0.49" gradientUnits="objectBoundingBox"><stop offset="0" stop-color="#55bfca"/><stop offset="1" stop-color="#55bfca"/></linearGradient></defs><g transform="translate(9 6)"><g class="e" transform="matrix(1, 0, 0, 1, -9, -6)"><path class="a" d="M944.35,512.137a5.272,5.272,0,0,1,2.634-4.563l34.73-20.052a5.273,5.273,0,0,1,5.27,0l34.731,20.052a5.272,5.272,0,0,1,2.635,4.563v40.1a5.268,5.268,0,0,1-2.635,4.563l-34.731,20.052a5.269,5.269,0,0,1-5.27,0L946.984,556.8a5.269,5.269,0,0,1-2.634-4.563Z" transform="translate(-935.35 -480.82)"/></g><path class="b" d="M956.98,520.469l.691-1.2L990.3,500.407h1.379l32.63,18.867.688,1.193V558.2l-.688,1.194-32.63,18.867H990.3l-32.629-18.865-.689-1.2Z" transform="translate(-950.987 -493.958)"/><path class="a" d="M965.553,560.709v-32.7a1.689,1.689,0,0,1,.843-1.463L994.65,510.2a1.682,1.682,0,0,1,1.686,0l28.254,16.348a1.689,1.689,0,0,1,.843,1.463v32.695a1.69,1.69,0,0,1-.843,1.463l-28.254,16.348a1.684,1.684,0,0,1-1.686,0L966.4,562.172A1.689,1.689,0,0,1,965.553,560.709Z" transform="translate(-955.493 -498.987)"/><g transform="translate(16.654 22.202)"><path class="c" d="M640.583,381.038a23.348,23.348,0,1,1,16.509-6.838A23.195,23.195,0,0,1,640.583,381.038Zm0-45.65a22.3,22.3,0,1,0,22.3,22.3A22.328,22.328,0,0,0,640.583,335.388Z" transform="translate(-617.234 -334.341)"/><g transform="translate(22.805)"><path class="c" d="M640.563,381.038a.523.523,0,1,1,0-1.047c5.449,0,8.717-3.735,10.5-6.868a35.031,35.031,0,0,0,0-30.867c-1.782-3.133-5.05-6.868-10.5-6.868a.523.523,0,1,1,0-1.047c4.711,0,8.656,2.558,11.409,7.4a36.058,36.058,0,0,1,0,31.9C649.219,378.48,645.274,381.038,640.563,381.038Z" transform="translate(-640.039 -334.341)"/></g><g transform="translate(7.414)"><path class="c" d="M640.563,381.038c-4.949,0-9.1-2.554-11.993-7.387a34.441,34.441,0,0,1,0-31.923c2.9-4.832,7.044-7.387,11.993-7.387a.523.523,0,0,1,0,1.047c-5.762,0-9.214,3.741-11.095,6.879a33.409,33.409,0,0,0,0,30.846c1.881,3.138,5.333,6.878,11.095,6.878a.523.523,0,0,1,0,1.047Z" transform="translate(-624.648 -334.341)"/></g><g transform="translate(22.805)"><path class="c" d="M640.563,381.038a.524.524,0,0,1-.524-.523v-45.65a.523.523,0,1,1,1.047,0v45.65A.523.523,0,0,1,640.563,381.038Z" transform="translate(-640.039 -334.341)"/></g><g transform="translate(4.551 9.458)"><path class="c" d="M640.65,349.768a56.354,56.354,0,0,1-10.276-.877c-3.3-.631-7.454-1.9-8.544-4.356a.523.523,0,1,1,.957-.424c.707,1.593,3.472,2.926,7.784,3.751a58.991,58.991,0,0,0,13.889.747,41.291,41.291,0,0,0,9.452-1.51c2.582-.8,4.128-1.815,4.472-2.93a.524.524,0,0,1,1,.308c-.457,1.482-2.194,2.7-5.162,3.622a42.32,42.32,0,0,1-9.7,1.556C643.239,349.731,641.941,349.768,640.65,349.768Z" transform="translate(-621.785 -343.799)"/></g><g transform="translate(1.689 31.446)"><path class="c" d="M640.852,373.491a47.641,47.641,0,0,1-12.094-1.482c-4.454-1.2-7.814-3.056-9.715-5.366a.523.523,0,1,1,.808-.665c1.762,2.14,4.937,3.876,9.179,5.02a47.474,47.474,0,0,0,13.351,1.423c9-.267,16.254-2.727,18.942-6.419a.524.524,0,0,1,.847.616c-1.495,2.053-4.24,3.772-7.941,4.972a43.141,43.141,0,0,1-11.817,1.878C641.893,373.483,641.372,373.491,640.852,373.491Z" transform="translate(-618.923 -365.787)"/></g><g transform="translate(0.014 21.464)"><path class="c" d="M640.313,363.631q-.948,0-1.9-.029a49.171,49.171,0,0,1-12.7-1.924c-3.96-1.222-6.854-2.964-8.369-5.041a.524.524,0,0,1,.846-.617c2.722,3.73,10.483,6.234,20.254,6.536,9.283.286,20.482-1.631,24.57-6.561a.523.523,0,0,1,.806.668c-1.958,2.361-5.57,4.256-10.447,5.48A54.987,54.987,0,0,1,640.313,363.631Z" transform="translate(-617.248 -355.805)"/></g><g transform="translate(11.859 8.668)"><path class="a" d="M649.03,354.344a8.55,8.55,0,0,0-13.929-6.591,8.729,8.729,0,0,0-.7.637,8.493,8.493,0,0,0-2.467,6.06c.023,3.667,5.459,14.137,8.673,19.877,3.141-5.78,8.447-16.316,8.424-19.983h0" transform="translate(-629.093 -343.009)"/><path class="d" d="M641.519,378.326a1.42,1.42,0,0,1-2.122-.386c-1.051-1.8-10.268-17.752-10.3-23.472a11.389,11.389,0,1,1,22.777-.141h0c.036,5.719-8.983,21.785-10.011,23.6A1.433,1.433,0,0,1,641.519,378.326ZM635.1,347.753a8.729,8.729,0,0,0-.7.637,8.493,8.493,0,0,0-2.467,6.06c.023,3.667,5.459,14.137,8.673,19.877,3.141-5.78,8.447-16.316,8.424-19.983h0a8.55,8.55,0,0,0-13.929-6.591Z" transform="translate(-629.093 -343.009)"/><g transform="translate(6.035 5.976)"><path class="d" d="M643.852,358.494a5.351,5.351,0,1,1,1.982-4.189A5.324,5.324,0,0,1,643.852,358.494Zm-4.952-6.109a2.269,2.269,0,0,0-.206.187,2.508,2.508,0,1,0,.206-.187Z" transform="translate(-635.128 -348.985)"/></g></g></g></g></svg>