<svg xmlns="http://www.w3.org/2000/svg" xmlns:xlink="http://www.w3.org/1999/xlink" width="95.087" height="105.443" viewBox="0 0 95.087 105.443"><defs><style>.a{isolation:isolate;}.b{fill:#fff;}.c{fill:url(#c);}.d{fill:#55bfca;}.e{filter:url(#a);}</style><filter id="a" x="0" y="0" width="95.087" height="105.443" filterUnits="userSpaceOnUse"><feOffset dy="3" input="SourceAlpha"/><feGaussianBlur stdDeviation="3" result="b"/><feFlood flood-opacity="0.161"/><feComposite operator="in" in2="b"/><feComposite in="SourceGraphic"/></filter><linearGradient id="c" x1="-0.693" y1="0.506" x2="2.265" y2="0.49" gradientUnits="objectBoundingBox"><stop offset="0" stop-color="#55bfca"/><stop offset="1" stop-color="#55bfca"/></linearGradient></defs><g transform="translate(9 6)"><g class="a"><g class="e" transform="matrix(1, 0, 0, 1, -9, -6)"><path class="b" d="M944.35,511.215a5.08,5.08,0,0,1,2.538-4.4L980.354,487.5a5.081,5.081,0,0,1,5.078,0l33.466,19.322a5.08,5.08,0,0,1,2.539,4.4v38.644a5.076,5.076,0,0,1-2.539,4.4l-33.466,19.322a5.077,5.077,0,0,1-5.078,0l-33.466-19.322a5.077,5.077,0,0,1-2.538-4.4Z" transform="translate(-935.35 -480.82)"/></g><path class="c" d="M956.98,519.739l.666-1.154,31.439-18.178h1.329l31.442,18.18.662,1.149v36.356l-.663,1.15-31.442,18.18h-1.328l-31.441-18.178-.664-1.152Z" transform="translate(-951.205 -494.194)"/><path class="b" d="M965.553,558.862V527.357a1.628,1.628,0,0,1,.812-1.409l27.225-15.753a1.621,1.621,0,0,1,1.624,0l27.225,15.753a1.628,1.628,0,0,1,.812,1.409v31.5a1.628,1.628,0,0,1-.812,1.41l-27.225,15.753a1.623,1.623,0,0,1-1.624,0l-27.225-15.752A1.628,1.628,0,0,1,965.553,558.862Z" transform="translate(-955.859 -499.388)"/><g transform="translate(15.923 20.072)"><g transform="translate(18.682 16.22)"><path class="d" d="M239.5,482.24v-3.371a6.73,6.73,0,0,1,2.8.925v-2.4a6.588,6.588,0,0,0-2.8-.605v-1.619h-1.3v1.654a4.151,4.151,0,0,0-2.615,1.143,3.233,3.233,0,0,0-.987,2.379,3.3,3.3,0,0,0,.76,2.2,6.889,6.889,0,0,0,2.842,1.677v3.237a7.075,7.075,0,0,1-1.823-.409,5.19,5.19,0,0,1-1.539-.774v2.463a7.27,7.27,0,0,0,3.362.819v1.876h1.3v-1.93a4.494,4.494,0,0,0,2.694-1.1,3.142,3.142,0,0,0,.943-2.379,3.084,3.084,0,0,0-.845-2.184A7.153,7.153,0,0,0,239.5,482.24Zm-1.3-.516q-1.236-.614-1.236-1.53,0-1.067,1.236-1.289Zm1.3,5.7v-2.694q1.271.551,1.271,1.422Q240.773,487.23,239.5,487.425Z" transform="translate(-234.601 -475.169)"/></g><path class="d" d="M251.185,502.175a1.884,1.884,0,0,1-.876-.216l-12.145-6.386-12.145,6.386a1.882,1.882,0,0,1-2.731-1.984l2.319-13.524-9.826-9.577a1.882,1.882,0,0,1,1.044-3.211l13.579-1.973,6.073-12.3a1.882,1.882,0,0,1,1.687-1.049h0a1.882,1.882,0,0,1,1.688,1.049l6.073,12.3,13.578,1.973a1.882,1.882,0,0,1,1.044,3.211l-9.826,9.577,2.319,13.524a1.882,1.882,0,0,1-1.855,2.2ZM221.14,476.84l7.8,7.606a1.883,1.883,0,0,1,.541,1.666l-1.841,10.74,9.645-5.07a1.883,1.883,0,0,1,1.752,0l9.646,5.07-1.842-10.74a1.881,1.881,0,0,1,.542-1.666l7.8-7.606L244.4,475.273a1.885,1.885,0,0,1-1.417-1.03l-4.823-9.772-4.823,9.772a1.883,1.883,0,0,1-1.416,1.03Z" transform="translate(-215.213 -458.336)"/></g></g></g></svg>