<svg xmlns="http://www.w3.org/2000/svg" xmlns:xlink="http://www.w3.org/1999/xlink" width="95.087" height="105.443" viewBox="0 0 95.087 105.443"><defs><style>.a{fill:#fff;}.b,.c{fill:#55bfca;}.c{stroke:#55bfca;stroke-miterlimit:10;stroke-width:1.465px;}.d{filter:url(#a);}</style><filter id="a" x="0" y="0" width="95.087" height="105.443" filterUnits="userSpaceOnUse"><feOffset dy="3" input="SourceAlpha"/><feGaussianBlur stdDeviation="3" result="b"/><feFlood flood-opacity="0.161"/><feComposite operator="in" in2="b"/><feComposite in="SourceGraphic"/></filter></defs><g transform="translate(9 6)"><g class="d" transform="matrix(1, 0, 0, 1, -9, -6)"><path class="a" d="M944.35,511.215a5.08,5.08,0,0,1,2.538-4.4L980.354,487.5a5.081,5.081,0,0,1,5.078,0l33.466,19.322a5.08,5.08,0,0,1,2.539,4.4v38.644a5.076,5.076,0,0,1-2.539,4.4l-33.466,19.322a5.077,5.077,0,0,1-5.078,0l-33.466-19.322a5.077,5.077,0,0,1-2.538-4.4Z" transform="translate(-935.35 -480.82)"/></g><path class="b" d="M956.98,519.739l.666-1.154,31.439-18.178h1.329l31.442,18.18.662,1.149v36.356l-.663,1.15-31.442,18.18h-1.328l-31.441-18.178-.664-1.152Z" transform="translate(-951.205 -494.194)"/><path class="a" d="M965.553,558.862V527.357a1.628,1.628,0,0,1,.812-1.409l27.225-15.753a1.621,1.621,0,0,1,1.624,0l27.225,15.753a1.628,1.628,0,0,1,.812,1.409v31.5a1.628,1.628,0,0,1-.812,1.41l-27.225,15.753a1.623,1.623,0,0,1-1.624,0l-27.225-15.752A1.628,1.628,0,0,1,965.553,558.862Z" transform="translate(-955.859 -499.388)"/><g transform="translate(15.302 18.465)"><g transform="translate(0 20.759)"><path class="c" d="M485.954,496.04a.662.662,0,0,1-.45-.175l-6.53-5.964a.668.668,0,0,1,0-.986l6.53-5.964a.667.667,0,1,1,.9.986l-5.989,5.472,5.989,5.471a.667.667,0,0,1-.45,1.16Z" transform="translate(-478.757 -482.777)"/><g transform="translate(37.508)"><path class="c" d="M520.02,496.04a.668.668,0,0,1-.45-1.16l5.989-5.471-5.989-5.472a.667.667,0,0,1,.9-.986l6.53,5.964a.668.668,0,0,1,0,.986l-6.53,5.964A.662.662,0,0,1,520.02,496.04Z" transform="translate(-519.352 -482.777)"/></g></g><g transform="translate(13.36)"><path class="c" d="M499.668,512.956a.714.714,0,0,1-.251-.045,9.787,9.787,0,0,1-.361-18.042V478.414a9.785,9.785,0,0,1,.361-18.059.715.715,0,0,1,.966.669V469.2a.193.193,0,0,0,.019.1.2.2,0,0,0,.1.018h4.936a.509.509,0,0,0,.354-.136v-8.159a.714.714,0,0,1,1.01-.65,10.249,10.249,0,0,1,4.141,3.525,9.765,9.765,0,0,1,1.752,5.528,9.522,9.522,0,0,1-1.841,5.642,9.956,9.956,0,0,1-4.246,3.336v16.44a9.8,9.8,0,0,1,6.107,8.995,9.7,9.7,0,0,1-5.937,9.063.715.715,0,0,1-.986-.661V504.07a.691.691,0,0,0-.344-.448h-4.89a.7.7,0,0,0-.178.448v8.172a.715.715,0,0,1-.715.714Zm-.715-50.831a8.363,8.363,0,0,0,1.052,15.12.714.714,0,0,1,.48.674v17.442a.714.714,0,0,1-.478.675,8.368,8.368,0,0,0-1.054,15.1V504.07a1.778,1.778,0,0,1,1.574-1.877h4.936a1.978,1.978,0,0,1,1.762,1.877v7.023a8.368,8.368,0,0,0-1.567-15.085.712.712,0,0,1-.475-.673V477.916a.713.713,0,0,1,.473-.673,8.387,8.387,0,0,0,5.612-7.817,8.763,8.763,0,0,0-4.043-7.195V469.2a1.69,1.69,0,0,1-1.783,1.552h-4.936a1.5,1.5,0,0,1-1.552-1.552Z" transform="translate(-493.216 -460.31)"/></g></g></g></svg>