<svg xmlns="http://www.w3.org/2000/svg" xmlns:xlink="http://www.w3.org/1999/xlink" width="95.087" height="105.443" viewBox="0 0 95.087 105.443"><defs><style>.a{fill:#fff;}.b{fill:url(#c);}.c,.d{fill:#55bfca;stroke:#55bfca;}.c{stroke-miterlimit:10;stroke-width:1.465px;}.e{filter:url(#a);}</style><filter id="a" x="0" y="0" width="95.087" height="105.443" filterUnits="userSpaceOnUse"><feOffset dy="3" input="SourceAlpha"/><feGaussianBlur stdDeviation="3" result="b"/><feFlood flood-opacity="0.161"/><feComposite operator="in" in2="b"/><feComposite in="SourceGraphic"/></filter><linearGradient id="c" x1="-0.693" y1="0.506" x2="2.265" y2="0.49" gradientUnits="objectBoundingBox"><stop offset="0" stop-color="#55bfca"/><stop offset="1" stop-color="#55bfca"/></linearGradient></defs><g transform="translate(9 6)"><g class="e" transform="matrix(1, 0, 0, 1, -9, -6)"><path class="a" d="M944.35,511.215a5.08,5.08,0,0,1,2.538-4.4L980.354,487.5a5.081,5.081,0,0,1,5.078,0l33.466,19.322a5.08,5.08,0,0,1,2.539,4.4v38.644a5.076,5.076,0,0,1-2.539,4.4l-33.466,19.322a5.077,5.077,0,0,1-5.078,0l-33.466-19.322a5.077,5.077,0,0,1-2.538-4.4Z" transform="translate(-935.35 -480.82)"/></g><path class="b" d="M956.98,519.739l.666-1.154,31.439-18.178h1.329l31.442,18.18.662,1.149v36.356l-.663,1.15-31.442,18.18h-1.328l-31.441-18.178-.664-1.152Z" transform="translate(-951.205 -494.194)"/><path class="a" d="M965.553,558.862V527.357a1.628,1.628,0,0,1,.812-1.409l27.225-15.753a1.621,1.621,0,0,1,1.624,0l27.225,15.753a1.628,1.628,0,0,1,.812,1.409v31.5a1.628,1.628,0,0,1-.812,1.41l-27.225,15.753a1.623,1.623,0,0,1-1.624,0l-27.225-15.752A1.628,1.628,0,0,1,965.553,558.862Z" transform="translate(-955.859 -499.388)"/><g transform="translate(18.859 18.97)"><g transform="translate(13.441)"><path class="c" d="M363.649,462.748h4.068V490.5h4.64V462.748h4.288l-6.595-8.37Z" transform="translate(-363.649 -454.378)"/></g><g transform="translate(27.914 15.226)"><path class="c" d="M378.669,477.884h3.745v13.187h4.271V477.884h3.947l-6.071-7.7Z" transform="translate(-378.669 -470.179)"/></g><g transform="translate(0 20.477)"><path class="c" d="M349.7,483.334h3.745v7.935h4.271v-7.935h3.947l-6.071-7.7Z" transform="translate(-349.7 -475.629)"/></g><g transform="translate(2.812 40.877)"><g transform="translate(27.449)"><path class="d" d="M385.394,498.852l-1.013-2.052-1.013,2.052-2.264.329,1.638,1.6-.387,2.255,2.025-1.065,2.025,1.065-.387-2.255,1.638-1.6Z" transform="translate(-381.105 -496.8)"/></g><g transform="translate(13.725)"><path class="d" d="M370.138,496.8l-1.013,2.052-2.264.329,1.638,1.6-.387,2.255,2.025-1.065,2.025,1.065-.387-2.255,1.638-1.6-2.264-.329Z" transform="translate(-366.861 -496.8)"/></g><path class="d" d="M356.907,498.852l-1.012-2.052-1.013,2.052-2.264.329,1.638,1.6-.387,2.255,2.025-1.065,2.025,1.065-.387-2.255,1.638-1.6Z" transform="translate(-352.618 -496.8)"/></g></g></g></svg>