<svg xmlns="http://www.w3.org/2000/svg" width="116.259" height="17.994" viewBox="0 0 116.259 17.994"><defs><style>.a{fill:#fff;}</style></defs><path class="a" d="M87.056-.007A9.275,9.275,0,0,1,91.7,1.09a7.1,7.1,0,0,1,2.936,3.119,10.634,10.634,0,0,1,1,4.751,11.605,11.605,0,0,1-.547,3.665,7.928,7.928,0,0,1-1.638,2.859,7.136,7.136,0,0,1-2.68,1.845,9.694,9.694,0,0,1-3.64.64,9.607,9.607,0,0,1-3.655-.658,7.252,7.252,0,0,1-2.692-1.857,7.914,7.914,0,0,1-1.631-2.882A11.629,11.629,0,0,1,78.6,8.937a11.276,11.276,0,0,1,.575-3.678A7.871,7.871,0,0,1,80.84,2.413a7.182,7.182,0,0,1,2.653-1.8,9.552,9.552,0,0,1,3.563-.623Zm5,8.944a8.137,8.137,0,0,0-.617-3.31A4.6,4.6,0,0,0,89.674,3.5a4.827,4.827,0,0,0-2.625-.718,4.739,4.739,0,0,0-1.946.4A4.259,4.259,0,0,0,83.56,4.341,5.514,5.514,0,0,0,82.54,6.287a8.764,8.764,0,0,0-.373,2.653,8.971,8.971,0,0,0,.373,2.68A5.519,5.519,0,0,0,83.6,13.607a4.422,4.422,0,0,0,1.565,1.18,4.933,4.933,0,0,0,4.422-.285,4.657,4.657,0,0,0,1.8-2.087A8.107,8.107,0,0,0,92.06,8.937Z" transform="translate(-64.692 0.009)"/><path class="a" d="M201.973,4.349h-6.938V8.8h5.8a1.788,1.788,0,0,1,1.2.354,1.238,1.238,0,0,1,.4.966,1.213,1.213,0,0,1-.4.968,1.764,1.764,0,0,1-1.2.354h-5.8v5.731a2.308,2.308,0,0,1-.492,1.62,1.785,1.785,0,0,1-2.538,0,2.3,2.3,0,0,1-.494-1.615V3.8a2.931,2.931,0,0,1,.226-1.238,1.4,1.4,0,0,1,.708-.708,2.984,2.984,0,0,1,1.228-.219h8.3a1.8,1.8,0,0,1,1.252.375,1.261,1.261,0,0,1,.409.978,1.279,1.279,0,0,1-.409.991A1.8,1.8,0,0,1,201.973,4.349Z" transform="translate(-157.632 -1.34)"/><path class="a" d="M265.377,3.71l-4.245,12.062a7.926,7.926,0,0,1-.83,1.769,1.323,1.323,0,0,1-1.127.456A1.652,1.652,0,0,1,258,17.51a1.489,1.489,0,0,1-.511-1.1,2.473,2.473,0,0,1,.119-.738q.12-.377.393-1.061L262.448,3.32c.126-.325.279-.708.456-1.169a5.89,5.89,0,0,1,.569-1.132,2.336,2.336,0,0,1,.794-.731,2.83,2.83,0,0,1,2.445,0,2.355,2.355,0,0,1,.794.718,5.036,5.036,0,0,1,.509.948q.207.5.531,1.348l4.543,11.211a5.677,5.677,0,0,1,.531,1.863,1.547,1.547,0,0,1-.5,1.109,1.661,1.661,0,0,1-1.217.5,1.574,1.574,0,0,1-.708-.149,1.44,1.44,0,0,1-.5-.4,3.682,3.682,0,0,1-.432-.782c-.154-.354-.288-.663-.4-.93L265.377,3.71" transform="translate(-211.941 -0.007)"/><path class="a" d="M367.92,11.619h-1.238V17.2a2.314,2.314,0,0,1-.486,1.626,1.656,1.656,0,0,1-1.268.531,1.624,1.624,0,0,1-1.306-.545,2.426,2.426,0,0,1-.462-1.6V3.827a2.262,2.262,0,0,1,.509-1.649,2.268,2.268,0,0,1,1.649-.511h5.729a17.424,17.424,0,0,1,2.029.1,5.119,5.119,0,0,1,1.518.41,4.395,4.395,0,0,1,1.45.984A4.317,4.317,0,0,1,377,4.651a4.951,4.951,0,0,1,.325,1.8,4.337,4.337,0,0,1-1.1,3.106A6.318,6.318,0,0,1,372.9,11.2a6.416,6.416,0,0,1,1.79,1.472,14.944,14.944,0,0,1,1.53,2.07,15.244,15.244,0,0,1,1.044,1.981,3.926,3.926,0,0,1,.373,1.215,1.252,1.252,0,0,1-.218.683,1.537,1.537,0,0,1-.6.531,1.893,1.893,0,0,1-.884.2,1.724,1.724,0,0,1-1-.278,2.743,2.743,0,0,1-.693-.708c-.193-.287-.456-.708-.789-1.258l-1.415-2.349a12.917,12.917,0,0,0-1.359-1.969,3.349,3.349,0,0,0-1.215-.925,4.169,4.169,0,0,0-1.549-.246Zm2.017-7.306h-3.251V9.089h3.156a8.813,8.813,0,0,0,2.135-.216,2.518,2.518,0,0,0,1.323-.748,2.154,2.154,0,0,0,.456-1.452,2.254,2.254,0,0,0-.364-1.275,2.218,2.218,0,0,0-1.021-.824,7.386,7.386,0,0,0-2.434-.26Z" transform="translate(-298.919 -1.369)"/><path class="a" d="M462.89,15.837V2.138a2.337,2.337,0,0,1,.486-1.6,1.622,1.622,0,0,1,1.258-.531,1.677,1.677,0,0,1,1.283.529,2.281,2.281,0,0,1,.492,1.608V15.837a2.312,2.312,0,0,1-.492,1.615,1.675,1.675,0,0,1-1.286.531,1.62,1.62,0,0,1-1.252-.54A2.327,2.327,0,0,1,462.89,15.837Z" transform="translate(-381.008 -0.001)"/><path class="a" d="M515.467,12.456a5.1,5.1,0,0,1-.812,2.83,5.367,5.367,0,0,1-2.378,1.969,8.96,8.96,0,0,1-3.715.708,8.346,8.346,0,0,1-4.245-.973,5.641,5.641,0,0,1-1.926-1.868,4.228,4.228,0,0,1-.741-2.271,1.537,1.537,0,0,1,1.576-1.539,1.346,1.346,0,0,1,.945.354,2.811,2.811,0,0,1,.658,1.061,6.918,6.918,0,0,0,.708,1.389,2.931,2.931,0,0,0,1.086.92,4.018,4.018,0,0,0,1.838.354A4.142,4.142,0,0,0,511,14.658a2.2,2.2,0,0,0,.98-1.818,1.927,1.927,0,0,0-.531-1.415A3.387,3.387,0,0,0,510.1,10.6a23.151,23.151,0,0,0-2.236-.6,16.261,16.261,0,0,1-3.136-1.026,5.082,5.082,0,0,1-2.006-1.592,4.172,4.172,0,0,1-.741-2.521,4.33,4.33,0,0,1,.793-2.558A4.924,4.924,0,0,1,505.039.59a9.255,9.255,0,0,1,3.478-.6,8.668,8.668,0,0,1,2.77.4,5.874,5.874,0,0,1,1.946,1.061,4.422,4.422,0,0,1,1.12,1.373,3.184,3.184,0,0,1,.354,1.415,1.675,1.675,0,0,1-.435,1.134,1.415,1.415,0,0,1-1.109.5,1.279,1.279,0,0,1-.92-.3,4.082,4.082,0,0,1-.681-.991,4.511,4.511,0,0,0-1.139-1.537,3.34,3.34,0,0,0-2.135-.552,3.7,3.7,0,0,0-2.2.6,1.743,1.743,0,0,0-.837,1.442,1.468,1.468,0,0,0,.285.9,2.392,2.392,0,0,0,.776.651,5.275,5.275,0,0,0,1.008.428q.509.154,1.684.451a26.357,26.357,0,0,1,2.653.757,8.137,8.137,0,0,1,2.029,1.01,4.149,4.149,0,0,1,1.305,1.5A4.817,4.817,0,0,1,515.467,12.456Z" transform="translate(-412.912 0.012)"/><path class="a" d="M1.781,20.891l5.837,3.3a3.464,3.464,0,0,1,.851.647,1.413,1.413,0,0,1,.221.884,1.749,1.749,0,0,1-.235.913c-.156.265-.334.4-.531.4a.8.8,0,0,1-.354-.092,5.818,5.818,0,0,1-.511-.306L1.584,23.171l-.564-.354a2.674,2.674,0,0,1-.547-.444,1.728,1.728,0,0,1-.354-.617,2.874,2.874,0,0,1-.127-.95,2.913,2.913,0,0,1,.134-.957A1.829,1.829,0,0,1,.48,19.23a2.445,2.445,0,0,1,.449-.4c.163-.108.379-.244.651-.41L7,14.886a1.971,1.971,0,0,1,.9-.416.66.66,0,0,1,.531.393,1.769,1.769,0,0,1,.249.939,1.82,1.82,0,0,1-.073.554,1.171,1.171,0,0,1-.195.387,1.748,1.748,0,0,1-.377.338c-.177.12-.32.225-.451.31l-5.807,3.5" transform="translate(0.01 -11.908)"/><path class="a" d="M615.025,21.405l-5.837-3.3a3.514,3.514,0,0,1-.851-.646,1.4,1.4,0,0,1-.219-.884,1.754,1.754,0,0,1,.233-.915c.157-.264.336-.4.531-.4a.8.8,0,0,1,.354.092c.124.062.294.165.511.3l5.457,3.465.566.354a2.671,2.671,0,0,1,.547.442,1.735,1.735,0,0,1,.354.619,3.43,3.43,0,0,1,0,1.9,1.819,1.819,0,0,1-.345.621,2.558,2.558,0,0,1-.446.409c-.163.108-.38.244-.651.41L609.8,27.419a1.986,1.986,0,0,1-.9.416q-.283,0-.531-.393a1.758,1.758,0,0,1-.242-.948,1.878,1.878,0,0,1,.071-.552,1.186,1.186,0,0,1,.195-.387,1.767,1.767,0,0,1,.379-.338c.177-.12.32-.225.449-.31l5.8-3.5" transform="translate(-500.547 -12.559)"/></svg>