<svg xmlns="http://www.w3.org/2000/svg" width="244.86" height="212.362" viewBox="0 0 244.86 212.362"><defs><style>.a{fill:#45b3bf;}.b{fill:#072233;}</style></defs><g transform="translate(94.996 60.799)"><path class="a" d="M265.013,258.982l0,1.495h0Z" transform="translate(-265.011 -258.982)"/></g><g transform="translate(137.345 105.336)"><path class="a" d="M287.772,272.777l-9.644,7.991A29.109,29.109,0,0,0,287.772,272.777Z" transform="translate(-278.128 -272.777)"/></g><g transform="translate(69.074 45.129)"><path class="a" d="M363.606,266.11H341.122l-.084,1.049v-8.01H344.6v-5.02H279.342v5.02l3.558.1.048,6.861H260.462a3.467,3.467,0,0,0-3.429,4.052c4.872,28.68,18.238,46.863,41.946,52.3l-.052-.042a29.272,29.272,0,0,1-10.089-8.372q-18.858-11.977-25.031-38.511a3.454,3.454,0,0,1,3.387-4.242H282.9l0-1.495v1.495h0l-.026,25.135a28.931,28.931,0,0,0,5.96,17.618h0l10.089,8.372a28.94,28.94,0,0,0,7.219,2.509l.078.323v23.162a8.922,8.922,0,0,1-8.979,8.866h-2.706a5.7,5.7,0,0,0-5.64,5.757v2.338h46.308v-2.338a5.8,5.8,0,0,0-5.763-5.757h-2.706a8.817,8.817,0,0,1-8.856-8.866V325.249l-2.522.077a28.867,28.867,0,0,0,9.892-3l9.644-7.991a29.03,29.03,0,0,0,6.141-17.909V271.292h15.84a3.453,3.453,0,0,1,3.387,4.242q-6.194,26.544-25.035,38.524l-.333.278a29.109,29.109,0,0,1-9.644,7.991l-.161.132c23.7-5.434,37.074-23.614,41.943-52.294A3.471,3.471,0,0,0,363.606,266.11Z" transform="translate(-256.983 -254.129)"/></g><g transform="translate(100.929 105.046)"><path class="a" d="M266.849,272.687a29.272,29.272,0,0,0,10.089,8.372l-10.089-8.372Z" transform="translate(-266.849 -272.687)"/></g><g transform="translate(32.176 1.133)"><g transform="translate(158.525)"><path class="a" d="M311.262,248.446l-3.921-7.944-3.921,7.944-8.767,1.274L301,255.9l-1.5,8.731,7.841-4.122,7.841,4.122-1.5-8.731,6.344-6.184Z" transform="translate(-294.654 -240.502)"/></g><g transform="translate(79.262)"><path class="a" d="M282.791,240.5l-3.921,7.944L270.1,249.72l6.344,6.184-1.5,8.731,7.841-4.122,7.841,4.122-1.5-8.731,6.344-6.184-8.767-1.274Z" transform="translate(-270.104 -240.502)"/></g><path class="a" d="M262.162,248.446l-3.921-7.944-3.921,7.944-8.767,1.274L251.9,255.9l-1.5,8.731,7.841-4.122,7.841,4.122-1.5-8.731,6.344-6.184Z" transform="translate(-245.554 -240.502)"/></g><g transform="translate(104.956 182.357)"><rect class="a" width="38.188" height="12.42"/></g><g transform="translate(67.941 43.957)"><g transform="translate(13.739 123.859)"><path class="b" d="M342.354,336.674h-78.2a3.275,3.275,0,0,1-3.271-3.271v-38a3.277,3.277,0,0,1,3.271-3.271h78.2a3.275,3.275,0,0,1,3.271,3.271v38A3.273,3.273,0,0,1,342.354,336.674Zm-78.2-42.279a1.007,1.007,0,0,0-1,1v38a1,1,0,0,0,1,1h78.2a1,1,0,0,0,1-1v-38a1.007,1.007,0,0,0-1-1Z" transform="translate(-260.887 -292.129)"/></g><g transform="translate(35.881 137.267)"><path class="b" d="M307.066,310.969H268.878a1.133,1.133,0,0,1-1.133-1.133v-12.42a1.133,1.133,0,0,1,1.133-1.133h38.188a1.133,1.133,0,0,1,1.133,1.133v12.42A1.133,1.133,0,0,1,307.066,310.969ZM270.012,308.7h35.921V298.549H270.012Z" transform="translate(-267.745 -296.282)"/></g><g transform="translate(24.69 111.264)"><path class="b" d="M325.984,303.089a1.132,1.132,0,0,1-1.133-1.133V290.5H266.545v11.458a1.133,1.133,0,0,1-2.266,0V290.333a2.107,2.107,0,0,1,2.1-2.105h58.635a2.107,2.107,0,0,1,2.1,2.105v11.623A1.133,1.133,0,0,1,325.984,303.089Z" transform="translate(-264.279 -288.228)"/></g><g transform="translate(31.855 71.155)"><path class="b" d="M313.939,318.148H267.631a1.133,1.133,0,0,1-1.133-1.133v-2.289a6.842,6.842,0,0,1,6.835-6.835h2.706a7.8,7.8,0,0,0,7.791-7.787V276.942a1.133,1.133,0,1,1,2.267,0V300.1a10.069,10.069,0,0,1-10.057,10.057h-2.706a4.572,4.572,0,0,0-4.568,4.565v1.156h44.041v-1.156a4.572,4.572,0,0,0-4.568-4.565h-2.706A10.069,10.069,0,0,1,295.475,300.1V276.942a1.133,1.133,0,1,1,2.266,0V300.1a7.8,7.8,0,0,0,7.791,7.787h2.706a6.842,6.842,0,0,1,6.835,6.835v2.289A1.133,1.133,0,0,1,313.939,318.148Z" transform="translate(-266.498 -275.805)"/></g><g transform="translate(58.367 17.131)"><path class="b" d="M275.844,315.443a1.134,1.134,0,0,1-.129-2.26,27.93,27.93,0,0,0,24.728-27.772V260.205a1.133,1.133,0,1,1,2.266,0v25.206a30.2,30.2,0,0,1-26.736,30.026C275.928,315.44,275.886,315.443,275.844,315.443Z" transform="translate(-274.71 -259.072)"/></g><g transform="translate(84.1 4.978)"><path class="b" d="M283.813,265.665a1.133,1.133,0,0,1-1.133-1.133v-8.091a1.133,1.133,0,1,1,2.266,0v8.091A1.133,1.133,0,0,1,283.813,265.665Z" transform="translate(-282.68 -255.308)"/></g><g transform="translate(25.917 4.978)"><path class="b" d="M265.841,264.581a1.136,1.136,0,0,1-1.136-1.127l-.045-7.006a1.132,1.132,0,0,1,1.124-1.14h.01a1.133,1.133,0,0,1,1.133,1.127l.048,7.006a1.133,1.133,0,0,1-1.127,1.14Z" transform="translate(-264.659 -255.308)"/></g><g transform="translate(25.917 15.707)"><path class="b" d="M289.022,316.029a1.134,1.134,0,0,1-.229-.026,30.234,30.234,0,0,1-24.134-29.609l.045-26.63a1.137,1.137,0,0,1,1.136-1.133h0a1.137,1.137,0,0,1,1.133,1.136l-.048,26.626a28.037,28.037,0,0,0,22.323,27.388,1.135,1.135,0,0,1-.226,2.247Z" transform="translate(-264.659 -258.631)"/></g><g transform="translate(22.376)"><path class="b" d="M329.961,261.011h-9.708a1.133,1.133,0,0,1,0-2.267h8.575v-2.709h-63v2.709h25.638a1.133,1.133,0,1,1,0,2.267H264.7a1.133,1.133,0,0,1-1.133-1.133V254.9a1.135,1.135,0,0,1,1.133-1.133h65.266a1.135,1.135,0,0,1,1.133,1.133v4.978A1.133,1.133,0,0,1,329.961,261.011Z" transform="translate(-263.562 -253.766)"/></g><g transform="translate(59.766 5.059)"><path class="b" d="M278.7,257.6h-2.428a1.133,1.133,0,0,1,0-2.266H278.7a1.133,1.133,0,0,1,0,2.266Z" transform="translate(-275.143 -255.333)"/></g><g transform="translate(0 11.985)"><path class="b" d="M299.761,316.122a1.162,1.162,0,0,1-.255-.029,49.455,49.455,0,0,1-28.673-17.845c-6.88-8.769-11.636-20.673-14.135-35.379a4.615,4.615,0,0,1,4.546-5.392h22.487a1.133,1.133,0,1,1,0,2.266H261.243a2.352,2.352,0,0,0-2.312,2.744c4.991,29.39,18.429,46.2,41.081,51.393a1.135,1.135,0,0,1-.252,2.241Z" transform="translate(-256.632 -257.478)"/><g transform="translate(6.73 5.146)"><path class="b" d="M284.974,304.159a1.124,1.124,0,0,1-.607-.178,52.721,52.721,0,0,1-16.027-15.969,73.1,73.1,0,0,1-9.5-23.275,4.612,4.612,0,0,1,4.491-5.666h15.756a1.133,1.133,0,1,1,0,2.266H263.33a2.343,2.343,0,0,0-2.283,2.886c4.042,17.341,12.3,30.074,24.534,37.842a1.135,1.135,0,0,1-.607,2.092Z" transform="translate(-258.716 -259.072)"/></g></g><g transform="translate(68.108 11.985)"><path class="b" d="M278.861,316.122a1.135,1.135,0,0,1-.255-2.241c22.652-5.192,36.089-22,41.081-51.393a2.347,2.347,0,0,0-2.312-2.744H294.891a1.133,1.133,0,1,1,0-2.266h22.484a4.619,4.619,0,0,1,4.549,5.392c-2.5,14.706-7.255,26.61-14.138,35.379a49.445,49.445,0,0,1-28.673,17.845A1.113,1.113,0,0,1,278.861,316.122Z" transform="translate(-277.727 -257.478)"/><g transform="translate(10.14 5.146)"><path class="b" d="M282,304.159a1.135,1.135,0,0,1-.61-2.092c12.236-7.768,20.492-20.5,24.537-37.842a2.348,2.348,0,0,0-2.283-2.886H287.892a1.133,1.133,0,1,1,0-2.266h15.756a4.616,4.616,0,0,1,4.491,5.666,73.094,73.094,0,0,1-9.5,23.275,52.792,52.792,0,0,1-16.027,15.969A1.141,1.141,0,0,1,282,304.159Z" transform="translate(-280.867 -259.072)"/></g></g><g transform="translate(34.208 43.551)"><path class="b" d="M289.162,290.32a21.96,21.96,0,0,1-21.935-21.932,1.133,1.133,0,0,1,2.266,0,19.691,19.691,0,0,0,19.669,19.665,1.133,1.133,0,1,1,0,2.266Z" transform="translate(-267.227 -267.255)"/></g><g transform="translate(34.018 28.86)"><path class="b" d="M268.3,270.964a1.135,1.135,0,0,1-1.133-1.133v-5.992a1.135,1.135,0,0,1,2.27,0v5.992A1.135,1.135,0,0,1,268.3,270.964Z" transform="translate(-267.168 -262.705)"/></g></g><g transform="translate(31.043)"><g transform="translate(158.524)"><path class="b" d="M315.964,266.551a1.135,1.135,0,0,1-.526-.132l-7.313-3.845-7.316,3.845a1.132,1.132,0,0,1-1.643-1.195l1.4-8.143-5.918-5.769a1.131,1.131,0,0,1,.63-1.931l8.175-1.191,3.658-7.41a1.135,1.135,0,0,1,1.017-.63h0a1.142,1.142,0,0,1,1.017.63l3.655,7.41,8.178,1.191a1.131,1.131,0,0,1,.626,1.931l-5.915,5.769,1.395,8.143a1.134,1.134,0,0,1-.449,1.111A1.146,1.146,0,0,1,315.964,266.551Zm-18.09-15.258,4.7,4.581a1.135,1.135,0,0,1,.326,1l-1.111,6.467,5.808-3.054a1.131,1.131,0,0,1,1.056,0l5.808,3.054-1.107-6.467a1.127,1.127,0,0,1,.326-1l4.7-4.581-6.493-.943a1.14,1.14,0,0,1-.855-.62l-2.9-5.886-2.906,5.886a1.14,1.14,0,0,1-.852.62Z" transform="translate(-294.303 -240.151)"/></g><g transform="translate(79.262)"><path class="b" d="M291.414,266.551a1.126,1.126,0,0,1-.526-.132l-7.313-3.845-7.316,3.845a1.132,1.132,0,0,1-1.643-1.195l1.4-8.143-5.918-5.769a1.13,1.13,0,0,1,.629-1.931l8.175-1.191,3.658-7.41a1.136,1.136,0,0,1,2.034,0l3.655,7.41,8.178,1.191a1.131,1.131,0,0,1,.626,1.931l-5.915,5.769,1.395,8.143a1.134,1.134,0,0,1-.449,1.111A1.147,1.147,0,0,1,291.414,266.551Zm-18.093-15.258,4.7,4.581a1.135,1.135,0,0,1,.326,1l-1.111,6.467,5.808-3.054a1.13,1.13,0,0,1,1.056,0l5.808,3.054-1.107-6.467a1.133,1.133,0,0,1,.323-1l4.7-4.581-6.493-.943a1.14,1.14,0,0,1-.856-.62l-2.9-5.886-2.906,5.886a1.14,1.14,0,0,1-.852.62Z" transform="translate(-269.753 -240.151)"/></g><path class="b" d="M266.864,266.551a1.126,1.126,0,0,1-.526-.132l-7.313-3.845-7.316,3.845a1.132,1.132,0,0,1-1.643-1.195l1.4-8.143-5.918-5.769a1.13,1.13,0,0,1,.63-1.931l8.175-1.191,3.658-7.41a1.136,1.136,0,0,1,2.034,0l3.655,7.41,8.178,1.191a1.131,1.131,0,0,1,.626,1.931l-5.915,5.769,1.395,8.143a1.134,1.134,0,0,1-.449,1.111A1.146,1.146,0,0,1,266.864,266.551Zm-18.093-15.258,4.7,4.581a1.136,1.136,0,0,1,.326,1l-1.111,6.467,5.808-3.054a1.131,1.131,0,0,1,1.056,0l5.808,3.054-1.111-6.467a1.144,1.144,0,0,1,.326-1l4.7-4.581-6.493-.943a1.14,1.14,0,0,1-.856-.62l-2.9-5.886-2.906,5.886a1.14,1.14,0,0,1-.852.62Z" transform="translate(-245.203 -240.151)"/></g><g transform="translate(46.663 144.309)"><g transform="translate(3.48)"><path class="b" d="M252.336,294.563a1.215,1.215,0,0,1-1.217-1.214v-7.287a1.216,1.216,0,0,1,2.431,0v7.287A1.215,1.215,0,0,1,252.336,294.563Z" transform="translate(-251.119 -284.848)"/></g><g transform="translate(0 3.807)"><path class="b" d="M258.542,288.455h-7.287a1.214,1.214,0,1,1,0-2.428h7.287a1.214,1.214,0,1,1,0,2.428Z" transform="translate(-250.041 -286.027)"/></g></g><g transform="translate(205.026 194.991)"><g transform="translate(3.48)"><path class="b" d="M301.383,310.261a1.215,1.215,0,0,1-1.214-1.214V301.76a1.216,1.216,0,0,1,2.431,0v7.287A1.215,1.215,0,0,1,301.383,310.261Z" transform="translate(-300.169 -300.546)"/></g><g transform="translate(0 3.807)"><path class="b" d="M307.592,304.153H300.3a1.214,1.214,0,1,1,0-2.428h7.287a1.214,1.214,0,1,1,0,2.428Z" transform="translate(-299.091 -301.725)"/></g></g><g transform="translate(235.146 90.065)"><g transform="translate(3.48)"><path class="b" d="M310.712,277.762a1.215,1.215,0,0,1-1.214-1.214v-7.287a1.214,1.214,0,0,1,2.428,0v7.287A1.215,1.215,0,0,1,310.712,277.762Z" transform="translate(-309.498 -268.047)"/></g><g transform="translate(0 3.803)"><path class="b" d="M316.921,271.656h-7.287a1.216,1.216,0,0,1,0-2.431h7.287a1.216,1.216,0,0,1,0,2.431Z" transform="translate(-308.42 -269.225)"/></g></g><g transform="translate(0 183.662)"><path class="b" d="M243.133,313.38a1.6,1.6,0,0,1,1.579-1.64h0a1.6,1.6,0,0,1,1.656,1.553h0a1.581,1.581,0,0,1-1.579,1.63h-.039A1.587,1.587,0,0,1,243.133,313.38Zm-4.8-.894a1.621,1.621,0,0,1-.042-2.289h0a1.621,1.621,0,0,1,2.289-.042h0a1.618,1.618,0,0,1,.045,2.289h0a1.62,1.62,0,0,1-1.169.494h0A1.615,1.615,0,0,1,238.336,312.486Zm10.486-.249a1.624,1.624,0,0,1-.071-2.289h0a1.618,1.618,0,0,1,2.289-.071h0a1.618,1.618,0,0,1,.071,2.289h0a1.61,1.61,0,0,1-1.178.51h0A1.614,1.614,0,0,1,248.822,312.237Zm-13.234-6.073a1.635,1.635,0,0,1,1.6-1.656h0a1.644,1.644,0,0,1,1.64,1.627h0a1.633,1.633,0,0,1-1.6,1.663h-.023A1.647,1.647,0,0,1,235.588,306.164Zm14.716-.387a1.609,1.609,0,0,1,1.559-1.666h0a1.6,1.6,0,0,1,1.676,1.54h0a1.582,1.582,0,0,1-1.556,1.663h-.061A1.6,1.6,0,0,1,250.3,305.777ZM238.194,302a1.62,1.62,0,0,1-.016-2.289h0a1.617,1.617,0,0,1,2.289-.013h0a1.62,1.62,0,0,1,.016,2.289h0a1.608,1.608,0,0,1-1.153.481h0A1.6,1.6,0,0,1,238.194,302Zm10.251-.213a1.618,1.618,0,0,1-.1-2.286h0a1.616,1.616,0,0,1,2.289-.1h0a1.622,1.622,0,0,1,.1,2.289h0a1.629,1.629,0,0,1-1.195.523h0A1.618,1.618,0,0,1,248.444,301.783Zm-5.5-3.125a1.619,1.619,0,0,1,1.618-1.621h0a1.622,1.622,0,0,1,1.621,1.621h0a1.619,1.619,0,0,1-1.621,1.618h0A1.616,1.616,0,0,1,242.949,298.658Z" transform="translate(-235.588 -297.037)"/></g><g transform="translate(167.106 125.531)"><path class="b" d="M294.891,295.375a1.6,1.6,0,0,1,1.579-1.64h0a1.6,1.6,0,0,1,1.66,1.553h0a1.581,1.581,0,0,1-1.579,1.63h-.042A1.589,1.589,0,0,1,294.891,295.375Zm-4.795-.894a1.615,1.615,0,0,1-.042-2.289h0a1.621,1.621,0,0,1,2.289-.042h0a1.621,1.621,0,0,1,.042,2.289h0a1.619,1.619,0,0,1-1.166.494h0A1.609,1.609,0,0,1,290.1,294.481Zm10.483-.249a1.624,1.624,0,0,1-.071-2.289h0a1.622,1.622,0,0,1,2.292-.071h0a1.624,1.624,0,0,1,.071,2.289h0a1.622,1.622,0,0,1-1.182.51h0A1.62,1.62,0,0,1,300.58,294.232Zm-13.234-6.073h0a1.637,1.637,0,0,1,1.6-1.656h0a1.644,1.644,0,0,1,1.64,1.627h0a1.631,1.631,0,0,1-1.6,1.663h-.023A1.649,1.649,0,0,1,287.346,288.159Zm14.716-.387a1.609,1.609,0,0,1,1.559-1.666h0a1.6,1.6,0,0,1,1.676,1.54h0a1.582,1.582,0,0,1-1.556,1.663h-.061A1.6,1.6,0,0,1,302.062,287.772Zm-12.11-3.781a1.62,1.62,0,0,1-.016-2.289h0a1.621,1.621,0,0,1,2.292-.013h0a1.617,1.617,0,0,1,.013,2.289h0a1.608,1.608,0,0,1-1.153.481h0A1.6,1.6,0,0,1,289.952,283.991Zm10.251-.213h0a1.615,1.615,0,0,1-.1-2.286h0a1.615,1.615,0,0,1,2.286-.1h0a1.622,1.622,0,0,1,.1,2.289h0a1.623,1.623,0,0,1-1.195.523h0A1.619,1.619,0,0,1,300.2,283.778Zm-5.476-3.125a1.588,1.588,0,0,1,1.637-1.621v0a1.661,1.661,0,0,1,1.6,1.618h0a1.619,1.619,0,0,1-1.621,1.618h0A1.616,1.616,0,0,1,294.727,280.653Z" transform="translate(-287.346 -279.032)"/></g><g transform="translate(10.525 68.049)"><path class="b" d="M246.393,277.571a1.605,1.605,0,0,1,1.579-1.643h0a1.6,1.6,0,0,1,1.656,1.553h0a1.583,1.583,0,0,1-1.579,1.634h-.039A1.589,1.589,0,0,1,246.393,277.571Zm-4.8-.9a1.62,1.62,0,0,1-.042-2.289h0a1.621,1.621,0,0,1,2.289-.042h0a1.618,1.618,0,0,1,.045,2.289h0a1.611,1.611,0,0,1-1.169.5h0A1.618,1.618,0,0,1,241.6,276.674Zm10.487-.245a1.624,1.624,0,0,1-.071-2.289h0a1.621,1.621,0,0,1,2.289-.074h0a1.622,1.622,0,0,1,.071,2.292h0a1.623,1.623,0,0,1-1.178.51h0A1.629,1.629,0,0,1,252.082,276.428Zm-13.234-6.06h0a1.6,1.6,0,0,1,1.6-1.663h0a1.641,1.641,0,0,1,1.64,1.624h0a1.632,1.632,0,0,1-1.6,1.66h-.023A1.69,1.69,0,0,1,238.848,270.368Zm14.716-.4a1.609,1.609,0,0,1,1.559-1.666h0a1.6,1.6,0,0,1,1.676,1.54h0a1.582,1.582,0,0,1-1.556,1.663h-.061A1.6,1.6,0,0,1,253.564,269.968Zm-12.111-3.781a1.62,1.62,0,0,1-.016-2.289h0a1.62,1.62,0,0,1,2.289-.016h0a1.624,1.624,0,0,1,.016,2.292h0a1.621,1.621,0,0,1-1.153.481h0A1.6,1.6,0,0,1,241.454,266.187Zm10.251-.213a1.622,1.622,0,0,1-.1-2.289h0a1.619,1.619,0,0,1,2.289-.1h0a1.618,1.618,0,0,1,.1,2.286h0a1.62,1.62,0,0,1-1.195.526h0A1.618,1.618,0,0,1,251.7,265.974Zm-5.479-3.128a1.585,1.585,0,0,1,1.637-1.618h0a1.659,1.659,0,0,1,1.6,1.618h0a1.617,1.617,0,0,1-1.618,1.621h0A1.618,1.618,0,0,1,246.225,262.846Z" transform="translate(-238.848 -261.228)"/></g></svg>