<svg xmlns="http://www.w3.org/2000/svg" width="252.064" height="208.955" viewBox="0 0 252.064 208.955"><defs><style>.a{fill:#45b3bf;}.b{fill:#072233;}</style></defs><g transform="translate(222.579 5.243)"><path class="a" d="M325.468,166.173V121.52a14.207,14.207,0,0,0,9.55-13.321,14.864,14.864,0,0,0-8.589-13.187v12.822c0,.8-.882,1.316-1.677,1.316h-7.745a1.236,1.236,0,0,1-1.316-1.316V95.013a14.216,14.216,0,0,0,.16,26.514v44.688a14.221,14.221,0,0,0-.16,26.491V179.883c0-.8.553-1.824,1.348-1.824h7.745a2,2,0,0,1,1.645,1.824v12.822a14.234,14.234,0,0,0-.962-26.533Z" transform="translate(-306.687 -95.013)"/><g transform="translate(9.165 22.792)"><line class="a" y1="3.686"/></g><g transform="translate(18.78 22.792)"><line class="a" y1="3.686"/></g><g transform="translate(9.165 71.187)"><line class="a" y1="4.006"/></g><g transform="translate(18.78 71.187)"><line class="a" y1="4.006"/></g></g><g transform="translate(103.223 6.787)"><path class="a" d="M306.568,117.38l0-6.547-5.036,0a13.992,13.992,0,0,0-1.537-4.179l3.422-3.422L298.8,98.618l-3.208,3.208a14.578,14.578,0,0,0-4.368-2.013l0-4.317-6.547,0,.006,4.1a14.311,14.311,0,0,0-4.713,1.869l-2.853-2.853-4.687,4.687,2.853,2.853a15.148,15.148,0,0,0-1.847,4.7l-4.106-.013.006,6.544,4.317-.01a14.49,14.49,0,0,0,2.01,4.374l-3.234,3.234,4.617,4.614,3.441-3.441a14.016,14.016,0,0,0,4.179,1.543l.006,5.01,6.55,0-.01-5.2a13.826,13.826,0,0,0,3.8-1.63l3.716,3.719,4.687-4.684L299.7,121.2a13.979,13.979,0,0,0,1.639-3.821Zm-12.976,2.371a8.686,8.686,0,1,1,0-12.285A8.688,8.688,0,0,1,293.593,119.751Z" transform="translate(-269.332 -95.496)"/></g><g transform="translate(1.122 1.121)"><path class="a" d="M287.471,123.163v-8.806l-6.777,0a18.9,18.9,0,0,0-2.064-5.627l4.6-4.6-6.211-6.211-4.317,4.317a19.616,19.616,0,0,0-5.873-2.709l0-5.806h-8.809l.01,5.524a19.141,19.141,0,0,0-6.342,2.515l-3.841-3.841-6.3,6.3,3.841,3.841a20.415,20.415,0,0,0-2.486,6.323l-5.524-.016.01,8.8,5.809-.01a19.47,19.47,0,0,0,2.7,5.879l-4.349,4.352,6.211,6.208,4.63-4.63a18.8,18.8,0,0,0,5.624,2.077l.006,6.742,8.812,0-.013-7a18.757,18.757,0,0,0,5.106-2.192l5,5,6.3-6.3-5-5a18.765,18.765,0,0,0,2.2-5.138Zm-17.452,3.189a11.688,11.688,0,1,1,0-16.529A11.69,11.69,0,0,1,270.019,126.352Z" transform="translate(-237.377 -93.723)"/></g><g transform="translate(51.682 75.393)"><g transform="translate(0.102 88.372)"><path class="b" d="M402.425,146.869H254.354a1.121,1.121,0,0,1,0-2.243H402.425a1.121,1.121,0,1,1,0,2.243Z" transform="translate(-253.233 -144.626)"/><g transform="translate(56.89 14.1)"><path class="b" d="M272.16,179.166a1.121,1.121,0,0,1-1.122-1.122V150.164a1.121,1.121,0,1,1,2.243,0v27.881A1.121,1.121,0,0,1,272.16,179.166Z" transform="translate(-271.038 -149.039)"/></g><g transform="translate(91.184 14.1)"><path class="b" d="M282.893,179.166a1.121,1.121,0,0,1-1.122-1.122V150.164a1.121,1.121,0,1,1,2.243,0v27.881A1.123,1.123,0,0,1,282.893,179.166Z" transform="translate(-281.771 -149.039)"/></g><g transform="translate(41.985 42.627)"><path class="b" d="M331.756,160.21H267.5a1.122,1.122,0,1,1,0-2.243h64.258a1.122,1.122,0,1,1,0,2.243Z" transform="translate(-266.373 -157.967)"/></g><g transform="translate(71.61 4.454)"><path class="b" d="M279.064,152.858a3.419,3.419,0,1,1,3.419-3.419A3.423,3.423,0,0,1,279.064,152.858Zm0-4.595a1.176,1.176,0,1,0,1.176,1.176A1.177,1.177,0,0,0,279.064,148.263Z" transform="translate(-275.645 -146.02)"/></g></g><path class="b" d="M396.6,221.233H260.157a6.961,6.961,0,0,1-6.956-6.956V123.924a6.961,6.961,0,0,1,6.956-6.956H396.6a6.963,6.963,0,0,1,6.956,6.956v90.353A6.963,6.963,0,0,1,396.6,221.233ZM260.157,119.211a4.717,4.717,0,0,0-4.713,4.713v90.353a4.717,4.717,0,0,0,4.713,4.713H396.6a4.717,4.717,0,0,0,4.71-4.713V123.924a4.717,4.717,0,0,0-4.71-4.713Z" transform="translate(-253.201 -116.968)"/></g><g transform="translate(16.692 147.901)"><g transform="translate(3.524)"><path class="b" d="M244.474,149.115a1.121,1.121,0,0,1-1.122-1.122v-7.212a1.122,1.122,0,0,1,2.243,0v7.212A1.121,1.121,0,0,1,244.474,149.115Z" transform="translate(-243.353 -139.661)"/></g><g transform="translate(0 3.684)"><path class="b" d="M250.583,143.057h-7.212a1.122,1.122,0,0,1,0-2.243h7.212a1.122,1.122,0,1,1,0,2.243Z" transform="translate(-242.25 -140.814)"/></g></g><g transform="translate(76.144 49.346)"><g transform="translate(3.524)"><path class="b" d="M263.081,118.274a1.124,1.124,0,0,1-1.122-1.125v-7.208a1.121,1.121,0,1,1,2.243,0v7.208A1.124,1.124,0,0,1,263.081,118.274Z" transform="translate(-261.96 -108.816)"/></g><g transform="translate(0 3.687)"><path class="b" d="M269.19,112.213h-7.211a1.121,1.121,0,1,1,0-2.243h7.211a1.121,1.121,0,1,1,0,2.243Z" transform="translate(-260.857 -109.97)"/></g></g><g transform="translate(221.809 147.901)"><g transform="translate(3.524)"><path class="b" d="M308.67,149.115a1.121,1.121,0,0,1-1.122-1.122v-7.212a1.122,1.122,0,0,1,2.243,0v7.212A1.121,1.121,0,0,1,308.67,149.115Z" transform="translate(-307.549 -139.661)"/></g><g transform="translate(0 3.684)"><path class="b" d="M314.779,143.057h-7.212a1.122,1.122,0,1,1,0-2.243h7.212a1.122,1.122,0,0,1,0,2.243Z" transform="translate(-306.446 -140.814)"/></g></g><g transform="translate(56.433 195.334)"><g transform="translate(3.524)"><path class="b" d="M256.913,163.961a1.121,1.121,0,0,1-1.122-1.121v-7.212a1.122,1.122,0,0,1,2.243,0v7.212A1.121,1.121,0,0,1,256.913,163.961Z" transform="translate(-255.791 -154.506)"/></g><g transform="translate(0 3.687)"><path class="b" d="M263.021,157.9H255.81a1.122,1.122,0,1,1,0-2.243h7.211a1.122,1.122,0,1,1,0,2.243Z" transform="translate(-254.688 -155.66)"/></g></g><g transform="translate(1.681 191.254)"><path class="b" d="M245.016,169.4a1.586,1.586,0,0,1,1.562-1.623h0a1.582,1.582,0,0,1,1.642,1.537h0a1.564,1.564,0,0,1-1.562,1.614h-.041A1.572,1.572,0,0,1,245.016,169.4Zm-4.745-.876h0a1.612,1.612,0,0,1-.042-2.272h0a1.6,1.6,0,0,1,2.265-.045h0a1.6,1.6,0,0,1,.042,2.265h0a1.6,1.6,0,0,1-1.153.5h0A1.5,1.5,0,0,1,240.271,168.527Zm10.378-.256a1.6,1.6,0,0,1-.07-2.265h0a1.6,1.6,0,0,1,2.265-.07h0a1.607,1.607,0,0,1,.07,2.265h0a1.6,1.6,0,0,1-1.169.5h0A1.6,1.6,0,0,1,250.649,168.272Zm-13.1-6.01a1.616,1.616,0,0,1,1.582-1.639h0a1.622,1.622,0,0,1,1.62,1.61h0a1.614,1.614,0,0,1-1.582,1.646h-.019A1.63,1.63,0,0,1,237.552,162.262Zm14.564-.383a1.582,1.582,0,0,1,1.54-1.642h0a1.57,1.57,0,0,1,1.662,1.559h0a1.585,1.585,0,0,1-1.543,1.6h-.061A1.581,1.581,0,0,1,252.116,161.878Zm-11.988-3.742a1.6,1.6,0,0,1-.013-2.265h0a1.6,1.6,0,0,1,2.265-.013h0a1.6,1.6,0,0,1,.013,2.265h0a1.586,1.586,0,0,1-1.141.476h0A1.592,1.592,0,0,1,240.127,158.137Zm10.145-.211a1.6,1.6,0,0,1-.1-2.262h0a1.6,1.6,0,0,1,2.262-.1h0a1.6,1.6,0,0,1,.1,2.265h0a1.607,1.607,0,0,1-1.182.518h0A1.593,1.593,0,0,1,250.272,157.926Zm-5.438-3.093a1.6,1.6,0,0,1,1.6-1.6h0a1.6,1.6,0,0,1,1.6,1.6h0a1.6,1.6,0,0,1-1.6,1.6h0A1.6,1.6,0,0,1,244.834,154.833Z" transform="translate(-237.552 -153.229)"/></g><g transform="translate(172.664 27.159)"><path class="b" d="M298.532,118.046a1.586,1.586,0,0,1,1.562-1.623h0a1.577,1.577,0,0,1,1.639,1.537h0a1.562,1.562,0,0,1-1.562,1.614h-.038A1.57,1.57,0,0,1,298.532,118.046Zm-4.748-.885a1.6,1.6,0,0,1-.041-2.265h0a1.6,1.6,0,0,1,2.269-.042h0a1.6,1.6,0,0,1,.042,2.265h0a1.6,1.6,0,0,1-1.157.489h0A1.6,1.6,0,0,1,293.784,117.161Zm10.378-.246a1.607,1.607,0,0,1-.07-2.265h0a1.6,1.6,0,0,1,2.265-.07h0a1.6,1.6,0,0,1,.07,2.265h0a1.594,1.594,0,0,1-1.166.5h0A1.6,1.6,0,0,1,304.162,116.915Zm-13.1-6.01a1.618,1.618,0,0,1,1.582-1.639h0a1.625,1.625,0,0,1,1.623,1.61h0a1.616,1.616,0,0,1-1.582,1.646h-.022A1.63,1.63,0,0,1,291.065,110.9Zm14.564-.383a1.592,1.592,0,0,1,1.543-1.649h0a1.587,1.587,0,0,1,1.658,1.524h0a1.566,1.566,0,0,1-1.54,1.646h-.061A1.582,1.582,0,0,1,305.629,110.521Zm-11.985-3.742a1.6,1.6,0,0,1-.016-2.265h0a1.6,1.6,0,0,1,2.265-.013h0a1.6,1.6,0,0,1,.016,2.265h0a1.591,1.591,0,0,1-1.141.476h0A1.586,1.586,0,0,1,293.644,106.78Zm10.145-.211h0a1.6,1.6,0,0,1-.1-2.262h0a1.6,1.6,0,0,1,2.265-.1h0a1.605,1.605,0,0,1,.1,2.265h0a1.612,1.612,0,0,1-1.182.518h0A1.587,1.587,0,0,1,303.788,106.569Zm-5.438-3.093a1.6,1.6,0,0,1,1.6-1.6h0a1.6,1.6,0,0,1,1.6,1.6h0a1.6,1.6,0,0,1-1.6,1.6h0A1.6,1.6,0,0,1,298.35,103.476Z" transform="translate(-291.065 -101.872)"/></g><g transform="translate(232.436 191.254)"><path class="b" d="M317.239,169.4a1.586,1.586,0,0,1,1.562-1.623h0a1.582,1.582,0,0,1,1.642,1.537h0a1.564,1.564,0,0,1-1.562,1.614h-.042A1.572,1.572,0,0,1,317.239,169.4Zm-4.745-.876h0a1.606,1.606,0,0,1-.042-2.272h0a1.6,1.6,0,0,1,2.265-.045h0a1.6,1.6,0,0,1,.042,2.265h0a1.609,1.609,0,0,1-1.154.5h0A1.5,1.5,0,0,1,312.494,168.527Zm10.375-.256a1.607,1.607,0,0,1-.07-2.265h0a1.605,1.605,0,0,1,2.268-.07h0a1.607,1.607,0,0,1,.07,2.265h0a1.606,1.606,0,0,1-1.169.5h0A1.6,1.6,0,0,1,322.869,168.272Zm-13.1-6.01a1.621,1.621,0,0,1,1.582-1.639h0a1.625,1.625,0,0,1,1.623,1.61h0a1.614,1.614,0,0,1-1.582,1.646h-.019A1.633,1.633,0,0,1,309.772,162.262Zm14.564-.383a1.587,1.587,0,0,1,1.543-1.642h0a1.567,1.567,0,0,1,1.658,1.559h0A1.585,1.585,0,0,1,326,163.4h-.061A1.584,1.584,0,0,1,324.336,161.878Zm-11.985-3.742a1.6,1.6,0,0,1-.016-2.265h0a1.6,1.6,0,0,1,2.269-.013h0a1.6,1.6,0,0,1,.013,2.265h0a1.591,1.591,0,0,1-1.141.476h0A1.592,1.592,0,0,1,312.351,158.137Zm10.145-.211a1.6,1.6,0,0,1-.1-2.262h0a1.6,1.6,0,0,1,2.262-.1h0a1.605,1.605,0,0,1,.1,2.265h0a1.607,1.607,0,0,1-1.182.518h0A1.587,1.587,0,0,1,322.5,157.926Zm-5.438-3.093a1.6,1.6,0,0,1,1.6-1.6h0a1.6,1.6,0,0,1,1.6,1.6h0a1.6,1.6,0,0,1-1.6,1.6h0A1.6,1.6,0,0,1,317.057,154.833Z" transform="translate(-309.772 -153.229)"/></g><g transform="translate(99.453 107.207)"><g transform="translate(0 0.001)"><path class="b" d="M282.837,153.988a1.358,1.358,0,0,1-.92-.358L268.6,141.463a1.363,1.363,0,0,1,0-2.013l13.321-12.167a1.362,1.362,0,1,1,1.837,2.01l-12.218,11.164,12.218,11.164a1.361,1.361,0,0,1-.917,2.368Z" transform="translate(-268.152 -126.925)"/></g><g transform="translate(38.826 0.001)"><path class="b" d="M281.666,153.988a1.363,1.363,0,0,1-.92-2.368l12.222-11.164-12.222-11.164a1.363,1.363,0,1,1,1.84-2.01l13.321,12.167a1.363,1.363,0,0,1,0,2.013L282.586,153.63A1.358,1.358,0,0,1,281.666,153.988Z" transform="translate(-280.304 -126.925)"/></g><g transform="translate(22.788)"><path class="b" d="M276.649,153.988a1.379,1.379,0,0,1-.358-.048,1.363,1.363,0,0,1-.958-1.671l6.572-24.338a1.362,1.362,0,0,1,2.63.709l-6.572,24.338A1.359,1.359,0,0,1,276.649,153.988Z" transform="translate(-275.284 -126.925)"/></g></g><g transform="translate(221.458 4.121)"><path class="b" d="M316.461,194.6a1.122,1.122,0,0,1-.393-.07,15.361,15.361,0,0,1-.569-28.316V123.074a15.356,15.356,0,0,1,.569-28.341,1.121,1.121,0,0,1,1.515,1.051v12.822a.149.149,0,0,0,.195.195h7.745a.787.787,0,0,0,.553-.214v-12.8a1.123,1.123,0,0,1,1.585-1.022,16.079,16.079,0,0,1,6.5,5.531,15.328,15.328,0,0,1,2.748,8.678,14.933,14.933,0,0,1-2.888,8.854,15.659,15.659,0,0,1-6.662,5.237v43.112a15.387,15.387,0,0,1,9.582,14.116,15.22,15.22,0,0,1-9.317,14.225,1.123,1.123,0,0,1-1.55-1.038V180.654a1.088,1.088,0,0,0-.537-.7h-7.675a1.092,1.092,0,0,0-.281.7v12.822a1.118,1.118,0,0,1-1.122,1.122ZM315.34,97.513a13.124,13.124,0,0,0,1.652,23.727,1.122,1.122,0,0,1,.754,1.058v44.688a1.123,1.123,0,0,1-.751,1.058,13.134,13.134,0,0,0-1.655,23.7V180.654c0-1.422.994-2.946,2.47-2.946h7.745a3.105,3.105,0,0,1,2.767,2.946v11.02A13.132,13.132,0,0,0,325.862,168a1.12,1.12,0,0,1-.744-1.058V122.291a1.121,1.121,0,0,1,.741-1.054,13.164,13.164,0,0,0,8.809-12.266,13.754,13.754,0,0,0-6.346-11.292v10.928a2.654,2.654,0,0,1-2.8,2.438h-7.745a2.358,2.358,0,0,1-2.438-2.438Z" transform="translate(-306.336 -94.662)"/><g transform="translate(9.164 22.792)"><path class="b" d="M310.325,107.725A1.123,1.123,0,0,1,309.2,106.6v-3.687a1.123,1.123,0,0,1,2.246,0V106.6A1.124,1.124,0,0,1,310.325,107.725Z" transform="translate(-309.204 -101.795)"/></g><g transform="translate(18.781 22.792)"><path class="b" d="M313.335,107.725a1.121,1.121,0,0,1-1.122-1.122v-3.687a1.122,1.122,0,0,1,2.243,0V106.6A1.121,1.121,0,0,1,313.335,107.725Z" transform="translate(-312.214 -101.795)"/></g><g transform="translate(9.164 71.186)"><path class="b" d="M310.325,123.191a1.123,1.123,0,0,1-1.122-1.122v-4.007a1.123,1.123,0,0,1,2.246,0v4.007A1.124,1.124,0,0,1,310.325,123.191Z" transform="translate(-309.204 -116.941)"/></g><g transform="translate(18.781 71.186)"><path class="b" d="M313.335,123.191a1.121,1.121,0,0,1-1.122-1.122v-4.007a1.122,1.122,0,0,1,2.243,0v4.007A1.121,1.121,0,0,1,313.335,123.191Z" transform="translate(-312.214 -116.941)"/></g></g><g transform="translate(12.697 12.684)"><path class="b" d="M253.8,122.945a12.8,12.8,0,0,1-9.058-21.858h0a12.808,12.808,0,1,1,9.058,21.858Zm-7.47-20.27a10.563,10.563,0,1,0,14.941,0,10.574,10.574,0,0,0-14.941,0Z" transform="translate(-241 -97.342)"/></g><path class="b" d="M267.6,145.763h0l-8.812-.038a1.144,1.144,0,0,1-1.122-1.141l-.006-5.854a20.11,20.11,0,0,1-4.3-1.6l-4.042,4.039a1.121,1.121,0,0,1-1.588,0l-6.208-6.211a1.115,1.115,0,0,1,0-1.585l3.706-3.71a20.868,20.868,0,0,1-2.109-4.595l-4.965.022h0a1.127,1.127,0,0,1-.792-.342,1.151,1.151,0,0,1-.332-.8l-.006-8.806a1.127,1.127,0,0,1,.329-.8,1.141,1.141,0,0,1,.8-.329l4.627.013a21.835,21.835,0,0,1,1.981-5.01l-3.233-3.234a1.119,1.119,0,0,1,0-1.588l6.3-6.3a1.121,1.121,0,0,1,1.585,0l3.224,3.224a20.258,20.258,0,0,1,5.042-2l-.006-4.623a1.124,1.124,0,0,1,1.122-1.125H267.6a1.124,1.124,0,0,1,1.125,1.121l0,4.965a21.006,21.006,0,0,1,4.6,2.115L277,97.9a1.122,1.122,0,0,1,1.588,0l6.208,6.211a1.118,1.118,0,0,1,0,1.585l-4.013,4.013a19.833,19.833,0,0,1,1.585,4.313l5.876.013h0a1.1,1.1,0,0,1,1.122,1.1v8.8a1.165,1.165,0,0,1-.329.812,1.13,1.13,0,0,1-.792.345h0l-6.2-.022a20.067,20.067,0,0,1-1.639,3.828l4.387,4.384a1.119,1.119,0,0,1,0,1.585l-6.3,6.3a1.12,1.12,0,0,1-1.585,0l-4.39-4.39a19.673,19.673,0,0,1-3.8,1.63l.01,6.154a1.2,1.2,0,0,1-.326.834A1.163,1.163,0,0,1,267.6,145.763Zm-7.691-2.32,6.569,0-.013-5.879a1.128,1.128,0,0,1,.834-1.086,17.482,17.482,0,0,0,4.8-2.058,1.121,1.121,0,0,1,1.387.157l4.211,4.211,4.719-4.719-4.211-4.208a1.126,1.126,0,0,1-.16-1.387,17.636,17.636,0,0,0,2.07-4.812,1.108,1.108,0,0,1,1.086-.818h0l5.917-.016v-6.56l-5.655.006h0a1.134,1.134,0,0,1-1.1-.914,17.61,17.61,0,0,0-1.943-5.3,1.127,1.127,0,0,1,.182-1.348l3.812-3.812-4.627-4.623-3.524,3.524a1.119,1.119,0,0,1-1.422.134,18.475,18.475,0,0,0-5.534-2.556,1.118,1.118,0,0,1-.831-1.083V95.615h-6.56l.006,4.4a1.125,1.125,0,0,1-.9,1.1,18.018,18.018,0,0,0-5.972,2.368,1.126,1.126,0,0,1-1.387-.16l-3.045-3.045L243.9,105l3.048,3.048a1.117,1.117,0,0,1,.166,1.371,19.33,19.33,0,0,0-2.345,5.965,1.114,1.114,0,0,1-1.1.9l-4.4-.013,0,6.569,4.687.01h0a1.107,1.107,0,0,1,1.083.818A18.316,18.316,0,0,0,247.6,129.2a1.119,1.119,0,0,1-.137,1.419l-3.556,3.553,4.627,4.623,3.837-3.837a1.118,1.118,0,0,1,1.345-.185A17.5,17.5,0,0,0,259,136.721a1.122,1.122,0,0,1,.9,1.1Z" transform="translate(-237.026 -93.372)"/><g transform="translate(102.102 5.665)"><g transform="translate(9.439 9.43)"><path class="b" d="M281.737,117.707a9.808,9.808,0,0,1-6.933-16.743h0a9.808,9.808,0,1,1,6.933,16.743Zm-5.349-15.158a7.564,7.564,0,1,0,10.7,0,7.573,7.573,0,0,0-10.7,0Z" transform="translate(-271.935 -98.096)"/></g><path class="b" d="M292,134.663h0l-6.55-.029a1.136,1.136,0,0,1-1.121-1.134l0-4.128a15.166,15.166,0,0,1-2.85-1.061l-2.86,2.856a1.124,1.124,0,0,1-1.588,0l-4.614-4.617a1.124,1.124,0,0,1,0-1.588l2.6-2.594a15.674,15.674,0,0,1-1.415-3.093l-3.48,0h0a1.118,1.118,0,0,1-1.122-1.118l-.007-6.541a1.122,1.122,0,0,1,.329-.8,1.146,1.146,0,0,1,.8-.329l3.218.01a16.384,16.384,0,0,1,1.339-3.384l-2.253-2.253a1.122,1.122,0,0,1,0-1.588l4.684-4.684a1.122,1.122,0,0,1,1.588,0l2.243,2.243a15.239,15.239,0,0,1,3.409-1.355l-.006-3.214a1.124,1.124,0,0,1,1.122-1.125H292a1.124,1.124,0,0,1,1.122,1.122v3.483a15.739,15.739,0,0,1,3.087,1.419l2.572-2.572a1.122,1.122,0,0,1,1.588,0l4.614,4.617a1.12,1.12,0,0,1,0,1.585l-2.834,2.837a14.722,14.722,0,0,1,1.051,2.841l4.141-.013h0a1.14,1.14,0,0,1,1.122,1.137l0,6.547a1.135,1.135,0,0,1-.329.8,1.123,1.123,0,0,1-.792.332h0l-4.393-.006a14.875,14.875,0,0,1-1.074,2.515l3.109,3.109a1.119,1.119,0,0,1,0,1.585l-4.684,4.687a1.124,1.124,0,0,1-1.588,0l-3.109-3.109a14.833,14.833,0,0,1-2.486,1.061l.007,4.368a1.18,1.18,0,0,1-.329.818A1.149,1.149,0,0,1,292,134.663Zm-5.429-2.3,4.3,0-.006-4.08a1.126,1.126,0,0,1,.831-1.086,12.611,12.611,0,0,0,3.492-1.5,1.126,1.126,0,0,1,1.387.16l2.924,2.927,3.1-3.1-2.927-2.927a1.125,1.125,0,0,1-.16-1.387,12.777,12.777,0,0,0,1.5-3.508,1.119,1.119,0,0,1,1.086-.831h0l4.109,0v-4.314l-3.914-.01h0a1.113,1.113,0,0,1-1.1-.891,12.9,12.9,0,0,0-1.412-3.847,1.113,1.113,0,0,1,.182-1.339L302.6,104l-3.032-3.029-2.416,2.419a1.123,1.123,0,0,1-1.425.134,13.389,13.389,0,0,0-4.026-1.86,1.122,1.122,0,0,1-.831-1.083l0-3.2-4.3,0,0,2.981a1.122,1.122,0,0,1-.9,1.1,13.139,13.139,0,0,0-4.342,1.725,1.122,1.122,0,0,1-1.387-.163l-2.058-2.058-3.1,3.1,2.061,2.061a1.122,1.122,0,0,1,.169,1.371,13.978,13.978,0,0,0-1.709,4.32,1.1,1.1,0,0,1-1.1.882h0l-2.978.013,0,4.3,3.2.01h0a1.122,1.122,0,0,1,1.086.831,13.419,13.419,0,0,0,1.85,4.029,1.119,1.119,0,0,1-.134,1.422l-2.441,2.441,3.032,3.029,2.649-2.652a1.123,1.123,0,0,1,1.345-.182,12.681,12.681,0,0,0,3.847,1.419,1.122,1.122,0,0,1,.9,1.1Z" transform="translate(-268.981 -95.145)"/></g><g transform="translate(24.382 59.124)"><path class="b" d="M245.778,116.2a1.121,1.121,0,0,1-1.121-1.122V113a1.121,1.121,0,1,1,2.243,0v2.083A1.121,1.121,0,0,1,245.778,116.2Z" transform="translate(-244.657 -111.876)"/><g transform="translate(0 9.774)"><path class="b" d="M245.778,158.041a1.121,1.121,0,0,1-1.121-1.121v-4.326a1.121,1.121,0,1,1,2.243,0v4.326A1.121,1.121,0,0,1,245.778,158.041Zm0-12.177a1.121,1.121,0,0,1-1.121-1.121v-4.326a1.122,1.122,0,1,1,2.243,0v4.326A1.121,1.121,0,0,1,245.778,145.864Zm0-12.18a1.121,1.121,0,0,1-1.121-1.121v-4.326a1.121,1.121,0,1,1,2.243,0v4.326A1.121,1.121,0,0,1,245.778,133.684Zm0-12.18a1.121,1.121,0,0,1-1.121-1.121v-4.326a1.121,1.121,0,1,1,2.243,0v4.326A1.121,1.121,0,0,1,245.778,121.5Z" transform="translate(-244.657 -114.935)"/></g><g transform="translate(0 58.651)"><path class="b" d="M247.7,134.4h-1.924a1.121,1.121,0,0,1-1.121-1.121v-1.924a1.121,1.121,0,1,1,2.243,0v.8h.8a1.121,1.121,0,1,1,0,2.243Z" transform="translate(-244.657 -130.232)"/></g><g transform="translate(8.493 60.574)"><path class="b" d="M252.124,133.077h-3.687a1.122,1.122,0,1,1,0-2.243h3.687a1.122,1.122,0,0,1,0,2.243Z" transform="translate(-247.315 -130.834)"/></g><g transform="translate(18.59 60.574)"><path class="b" d="M253.68,133.077H251.6a1.122,1.122,0,1,1,0-2.243h2.083a1.122,1.122,0,0,1,0,2.243Z" transform="translate(-250.475 -130.834)"/></g></g><g transform="translate(208.028 107.518)"><g transform="translate(27.562)"><path class="b" d="M311.88,131.348a1.121,1.121,0,0,1-1.121-1.122v-2.083a1.121,1.121,0,1,1,2.243,0v2.083A1.121,1.121,0,0,1,311.88,131.348Z" transform="translate(-310.759 -127.022)"/></g><g transform="translate(25.478 10.256)"><path class="b" d="M313.312,134.4h-2.083a1.121,1.121,0,1,1,0-2.243h.962v-.8a1.122,1.122,0,1,1,2.243,0v1.924A1.121,1.121,0,0,1,313.312,134.4Z" transform="translate(-310.107 -130.232)"/></g><g transform="translate(7.691 12.18)"><path class="b" d="M317.841,133.077h-3.2a1.122,1.122,0,0,1,0-2.243h3.2a1.122,1.122,0,1,1,0,2.243Zm-8.975,0h-3.2a1.122,1.122,0,1,1,0-2.243h3.2a1.122,1.122,0,0,1,0,2.243Z" transform="translate(-304.54 -130.834)"/></g><g transform="translate(0 12.18)"><path class="b" d="M305.178,133.077h-1.923a1.122,1.122,0,0,1,0-2.243h1.923a1.122,1.122,0,1,1,0,2.243Z" transform="translate(-302.133 -130.834)"/></g></g></svg>