<svg xmlns="http://www.w3.org/2000/svg" width="245.929" height="217.148" viewBox="0 0 245.929 217.148"><defs><style>.a{fill:#45b3bf;}.b{fill:#072233;}.c{fill:#141b2c;}.d{fill:#fff;}</style></defs><circle class="a" cx="19.038" cy="19.038" r="19.038" transform="translate(193.522 85.753) rotate(-31.717)"/><g transform="translate(18.81 115.978)"><g transform="translate(69.923 33.337)"><path class="a" d="M476.009,315.25h-5.646a2.465,2.465,0,0,1-2.327-1.754,24.754,24.754,0,0,0-1.466-3.652,2.451,2.451,0,0,1,.453-2.826l3.993-4a1.919,1.919,0,0,0,0-2.714l-5.579-5.579a1.919,1.919,0,0,0-2.711,0l-3.66,3.66a2.439,2.439,0,0,1-2.946.384,24.811,24.811,0,0,0-4.03-1.85,2.464,2.464,0,0,1-1.655-2.3v-4.969a1.92,1.92,0,0,0-1.89-1.946h-7.858a1.913,1.913,0,0,0-1.885,1.946v4.3a2.427,2.427,0,0,1-1.829,2.324,26.27,26.27,0,0,0-4.747,1.757,2.45,2.45,0,0,1-2.807-.461l-2.839-2.839a1.919,1.919,0,0,0-2.714,0l-5.579,5.577a1.917,1.917,0,0,0,0,2.714l2.487,2.482a2.443,2.443,0,0,1,.389,2.938A25.848,25.848,0,0,0,419,313.5a2.462,2.462,0,0,1-2.327,1.751H413.22a1.912,1.912,0,0,0-1.957,1.871v8.034a1.9,1.9,0,0,0,1.957,1.861H416.7a2.448,2.448,0,0,1,2.311,1.706A27.7,27.7,0,0,0,421.2,333.8a2.436,2.436,0,0,1-.416,2.908l-2.49,2.482a1.919,1.919,0,0,0,0,2.719l5.574,5.563a1.914,1.914,0,0,0,2.711,0l2.834-2.842a2.449,2.449,0,0,1,2.81-.458,26.314,26.314,0,0,0,4.75,1.762,2.434,2.434,0,0,1,1.829,2.33v4.358a1.9,1.9,0,0,0,1.885,1.933h7.858a1.908,1.908,0,0,0,1.89-1.933V347.6a2.46,2.46,0,0,1,1.661-2.3,25.1,25.1,0,0,0,4.028-1.842,2.45,2.45,0,0,1,2.946.379l3.641,3.633a1.918,1.918,0,0,0,2.711,0l5.587-5.582a1.917,1.917,0,0,0,0-2.714l-3.961-3.948a2.443,2.443,0,0,1-.453-2.82,25.248,25.248,0,0,0,1.445-3.625,2.472,2.472,0,0,1,2.327-1.759h5.646a1.908,1.908,0,0,0,1.965-1.861v-8.034A1.917,1.917,0,0,0,476.009,315.25Zm-18.524,18.689a18.157,18.157,0,1,1,0-25.678A18.158,18.158,0,0,1,457.486,333.939Z" transform="translate(-411.263 -287.708)"/></g><g transform="translate(68.961 32.364)"><g transform="translate(15.184 15.205)"><path class="b" d="M435.759,331.366a19.158,19.158,0,0,1-13.547-32.708h0a19.16,19.16,0,1,1,13.547,32.708Zm0-36.314a17.031,17.031,0,0,0-12.129,5.025h0a17.154,17.154,0,1,0,12.129-5.025Zm-12.838,4.316Z" transform="translate(-416.598 -293.047)"/></g><path class="b" d="M449.146,356.149h-7.858a2.924,2.924,0,0,1-2.922-2.919v-4.358a1.421,1.421,0,0,0-1.066-1.359,27.038,27.038,0,0,1-4.915-1.831,1.443,1.443,0,0,0-1.661.267l-2.831,2.842a2.9,2.9,0,0,1-2.066.858h0a2.908,2.908,0,0,1-2.063-.853l-5.574-5.563a2.922,2.922,0,0,1,.005-4.137l2.49-2.479a1.421,1.421,0,0,0,.245-1.7,28.553,28.553,0,0,1-2.271-5.254,1.416,1.416,0,0,0-1.357-.978h-3.479a2.922,2.922,0,0,1-2.919-2.922v-8.034a2.924,2.924,0,0,1,2.919-2.922h3.455a1.435,1.435,0,0,0,1.37-1.021,26.649,26.649,0,0,1,2.247-5.225,1.452,1.452,0,0,0-.224-1.738l-2.487-2.479a2.922,2.922,0,0,1,0-4.134l5.577-5.577a2.9,2.9,0,0,1,2.066-.856h0a2.9,2.9,0,0,1,2.066.856l2.836,2.842a1.449,1.449,0,0,0,1.655.264,27.134,27.134,0,0,1,4.921-1.821,1.417,1.417,0,0,0,1.066-1.357v-4.3a2.924,2.924,0,0,1,2.922-2.919h7.858a2.924,2.924,0,0,1,2.922,2.919v4.969a1.451,1.451,0,0,0,.976,1.357,26.336,26.336,0,0,1,4.177,1.925,1.448,1.448,0,0,0,1.738-.219l3.66-3.663a2.909,2.909,0,0,1,2.063-.858h0a2.9,2.9,0,0,1,2.063.856l5.579,5.577a2.922,2.922,0,0,1,0,4.132l-4,3.993a1.442,1.442,0,0,0-.261,1.663,26.046,26.046,0,0,1,1.525,3.788,1.436,1.436,0,0,0,1.37,1.026h5.646a2.926,2.926,0,0,1,2.922,2.922v8.034a2.924,2.924,0,0,1-2.922,2.922h-5.646a1.441,1.441,0,0,0-1.37,1.026,25.758,25.758,0,0,1-1.5,3.743,1.443,1.443,0,0,0,.264,1.666l3.961,3.948a2.922,2.922,0,0,1,0,4.134l-5.587,5.579a2.923,2.923,0,0,1-4.126,0l-3.639-3.631a1.452,1.452,0,0,0-1.738-.221,25.828,25.828,0,0,1-4.182,1.919,1.447,1.447,0,0,0-.978,1.357v5.022A2.924,2.924,0,0,1,449.146,356.149Zm-17.409-12.625a3.491,3.491,0,0,1,1.527.355,24.98,24.98,0,0,0,4.55,1.7,3.426,3.426,0,0,1,2.556,3.3v4.358a.916.916,0,0,0,.917.914h7.858a.916.916,0,0,0,.914-.914v-5.022a3.462,3.462,0,0,1,2.316-3.249,24.077,24.077,0,0,0,3.86-1.767,3.457,3.457,0,0,1,4.145.541l3.639,3.631a.914.914,0,0,0,1.293,0l5.587-5.582a.914.914,0,0,0,0-1.3l-3.961-3.945a3.446,3.446,0,0,1-.645-3.977,24.082,24.082,0,0,0,1.386-3.449,3.435,3.435,0,0,1,3.284-2.434h5.646a.917.917,0,0,0,.917-.917v-8.034a.917.917,0,0,0-.917-.917h-5.646a3.436,3.436,0,0,1-3.287-2.431,23.769,23.769,0,0,0-1.4-3.5,3.447,3.447,0,0,1,.642-3.974l3.993-3.991a.911.911,0,0,0,0-1.293l-5.579-5.579a.9.9,0,0,0-.645-.267h0a.9.9,0,0,0-.645.267l-3.66,3.663a3.453,3.453,0,0,1-4.153.544,24.227,24.227,0,0,0-3.852-1.775,3.46,3.46,0,0,1-2.311-3.247v-4.969a.916.916,0,0,0-.914-.914h-7.858a.916.916,0,0,0-.917.914v4.3a3.422,3.422,0,0,1-2.559,3.295,25.08,25.08,0,0,0-4.556,1.687,3.451,3.451,0,0,1-3.95-.653l-2.836-2.839a.91.91,0,0,0-.648-.269h0a.91.91,0,0,0-.648.269l-5.577,5.577a.917.917,0,0,0,0,1.3l2.487,2.482a3.462,3.462,0,0,1,.554,4.14,24.627,24.627,0,0,0-2.082,4.833,3.425,3.425,0,0,1-3.284,2.434h-3.455a.916.916,0,0,0-.914.917v8.034a.916.916,0,0,0,.914.917H417.3a3.413,3.413,0,0,1,3.268,2.375,26.339,26.339,0,0,0,2.111,4.881,3.44,3.44,0,0,1-.581,4.1l-2.492,2.476a.914.914,0,0,0,0,1.3l5.571,5.563a.909.909,0,0,0,.648.269h0a.909.909,0,0,0,.648-.269l2.834-2.842A3.417,3.417,0,0,1,431.737,343.525Z" transform="translate(-410.902 -287.343)"/></g><g transform="translate(96.944 62.007)"><path class="b" d="M426.8,307.984a1,1,0,0,1-.709-.293l-4.393-4.393a1,1,0,0,1,1.418-1.418l3.684,3.684,6.805-6.808a1,1,0,1,1,1.418,1.418l-7.514,7.517A1.01,1.01,0,0,1,426.8,307.984Z" transform="translate(-421.4 -298.463)"/></g><g transform="translate(140.043 9.226)"><g transform="translate(0 56.6)"><path class="b" d="M440.175,301.9h-1.6a1,1,0,1,1,0-2h1.6a1,1,0,0,1,0,2Z" transform="translate(-437.568 -299.896)"/></g><g transform="translate(7.352 56.6)"><path class="b" d="M487.855,301.9h-3.076a1,1,0,1,1,0-2h3.076a1,1,0,0,1,0,2Zm-8.69,0h-3.076a1,1,0,0,1,0-2h3.076a1,1,0,0,1,0,2Zm-8.69,0H467.4a1,1,0,0,1,0-2h3.076a1,1,0,1,1,0,2Zm-8.69,0h-3.074a1,1,0,1,1,0-2h3.074a1,1,0,0,1,0,2Zm-8.69,0h-3.073a1,1,0,1,1,0-2h3.073a1,1,0,0,1,0,2Zm-8.69,0h-3.073a1,1,0,1,1,0-2H444.4a1,1,0,1,1,0,2Z" transform="translate(-440.326 -299.896)"/></g><g transform="translate(60.028 54.929)"><path class="b" d="M462.761,302.945h-1.671a1,1,0,1,1,0-2h.669v-.669a1,1,0,0,1,2,0v1.671A1,1,0,0,1,462.761,302.945Z" transform="translate(-460.087 -299.269)"/></g><g transform="translate(61.699)"><path class="b" d="M461.716,329.713a1,1,0,0,1-1-1v-3.343a1,1,0,0,1,2,0v3.343A1,1,0,0,1,461.716,329.713Zm0-9.223a1,1,0,0,1-1-1v-3.343a1,1,0,1,1,2,0v3.343A1,1,0,0,1,461.716,320.49Zm0-9.226a1,1,0,0,1-1-1v-3.343a1,1,0,0,1,2,0v3.343A1,1,0,0,1,461.716,311.264Zm0,28.1a1,1,0,0,1-1-1v-3.34a1,1,0,1,1,2,0v3.34A1,1,0,0,1,461.716,339.36Zm0-9.226a1,1,0,0,1-1-1v-3.343a1,1,0,0,1,2,0v3.343A1,1,0,0,1,461.716,330.134Zm0-9.226a1,1,0,0,1-1-1v-3.343a1,1,0,0,1,2,0v3.343A1,1,0,0,1,461.716,320.908Zm0-9.223a1,1,0,0,1-1-1V307.34a1,1,0,0,1,2,0v3.343A1,1,0,0,1,461.716,311.685Zm0-9.226a1,1,0,0,1-1-1v-3.343a1,1,0,0,1,2,0v3.343A1,1,0,0,1,461.716,302.459Zm0-9.223a1,1,0,0,1-1-1v-3.343a1,1,0,1,1,2,0v3.343A1,1,0,0,1,461.716,293.236Zm0-9.226a1,1,0,0,1-1-1v-3.343a1,1,0,0,1,2,0v3.343A1,1,0,0,1,461.716,284.01Z" transform="translate(-460.714 -278.663)"/></g></g><g transform="translate(60.228 65.826)"><path class="b" d="M410.369,301.9h-1.738a1,1,0,1,1,0-2h1.738a1,1,0,0,1,0,2Z" transform="translate(-407.626 -299.896)"/></g><g transform="translate(7.288 65.826)"><path class="b" d="M436.094,301.9h-3.207a1,1,0,1,1,0-2h3.207a1,1,0,1,1,0,2Zm-8.823,0h-3.209a1,1,0,0,1,0-2h3.209a1,1,0,0,1,0,2Zm-8.823,0h-3.21a1,1,0,0,1,0-2h3.21a1,1,0,0,1,0,2Zm-8.823,0h-3.21a1,1,0,0,1,0-2h3.21a1,1,0,0,1,0,2Zm-8.823,0h-3.209a1,1,0,0,1,0-2H400.8a1,1,0,1,1,0,2Zm-8.823,0h-3.209a1,1,0,1,1,0-2h3.209a1,1,0,0,1,0,2Z" transform="translate(-387.766 -299.896)"/></g><g transform="translate(0 64.155)"><path class="b" d="M387.706,302.945h-1.669a1,1,0,0,1-1-1v-1.671a1,1,0,0,1,2.007,0v.669h.666a1,1,0,1,1,0,2Z" transform="translate(-385.032 -299.269)"/></g><path class="b" d="M386.037,335.478a1,1,0,0,1-1-1v-3.343a1,1,0,0,1,2.007,0v3.343A1,1,0,0,1,386.037,335.478Zm0-9.223a1,1,0,0,1-1-1V321.91a1,1,0,0,1,2.007,0v3.343A1,1,0,0,1,386.037,326.255Zm0-9.226a1,1,0,0,1-1-1v-3.343a1,1,0,0,1,2.007,0v3.343A1,1,0,0,1,386.037,317.029Zm0,28.1a1.006,1.006,0,0,1-1-1v-3.34a1,1,0,1,1,2.007,0v3.34A1,1,0,0,1,386.037,345.125Zm0-9.226a1,1,0,0,1-1-1v-3.343a1,1,0,0,1,2.007,0V334.9A1,1,0,0,1,386.037,335.9Zm0-9.226a1,1,0,0,1-1-1v-3.343a1,1,0,0,1,2.007,0v3.343A1,1,0,0,1,386.037,326.673Zm0-9.223a1,1,0,0,1-1-1v-3.343a1,1,0,0,1,2.007,0v3.343A1,1,0,0,1,386.037,317.45Zm0-9.226a1,1,0,0,1-1-1v-3.343a1,1,0,0,1,2.007,0v3.343A1,1,0,0,1,386.037,308.224Zm0-9.223a1,1,0,0,1-1-1v-3.343a1,1,0,0,1,2.007,0V298A1,1,0,0,1,386.037,299Zm0-9.226a1,1,0,0,1-1-1V285.43a1,1,0,0,1,2.007,0v3.343A1,1,0,0,1,386.037,289.775Zm0-9.223a1.006,1.006,0,0,1-1-1v-3.34a1,1,0,1,1,2.007,0v3.34A1,1,0,0,1,386.037,280.552Z" transform="translate(-385.032 -275.202)"/><g transform="translate(48.135 81.129)"><path class="b" d="M406.717,318.075h0a1.338,1.338,0,0,1-.645-1.778h0a1.336,1.336,0,0,1,1.775-.645h0a1.338,1.338,0,0,1,.648,1.778h0a1.34,1.34,0,0,1-1.213.77h0A1.329,1.329,0,0,1,406.717,318.075Zm3.892-.677a1.337,1.337,0,0,1,.594-1.794h0A1.334,1.334,0,0,1,413,316.2h0a1.337,1.337,0,0,1-.592,1.8h0a1.327,1.327,0,0,1-.6.144h0A1.334,1.334,0,0,1,410.608,317.4Zm-7.483-3.732a1.337,1.337,0,0,1,.994-1.61h0a1.338,1.338,0,0,1,1.607.994h0a1.337,1.337,0,0,1-.994,1.61h0a1.339,1.339,0,0,1-.309.035h0A1.333,1.333,0,0,1,403.126,313.666Zm11.161.853a1.333,1.333,0,0,1-1.04-1.578h0a1.335,1.335,0,0,1,1.578-1.04h0a1.337,1.337,0,0,1,1.04,1.578h0a1.339,1.339,0,0,1-1.306,1.069h0A1.339,1.339,0,0,1,414.287,314.519Zm-9.711-4.526a1.336,1.336,0,0,1-.219-1.877h0a1.339,1.339,0,0,1,1.879-.221h0a1.341,1.341,0,0,1,.219,1.879h0a1.336,1.336,0,0,1-1.05.506h0A1.329,1.329,0,0,1,404.576,309.993Zm7.85-.307a1.333,1.333,0,0,1,.163-1.882h0a1.339,1.339,0,0,1,1.884.163h0a1.339,1.339,0,0,1-.165,1.885h0a1.326,1.326,0,0,1-.858.312h0A1.32,1.32,0,0,1,412.426,309.686Zm-4.289-2.711a1.339,1.339,0,0,1,1.338-1.338h0a1.337,1.337,0,0,1,1.336,1.338h0a1.334,1.334,0,0,1-1.336,1.336h0A1.337,1.337,0,0,1,408.137,306.975Z" transform="translate(-403.089 -305.637)"/></g><g transform="translate(150.63 77.784)"><path class="b" d="M445.166,316.82a1.338,1.338,0,0,1-.648-1.778h0a1.339,1.339,0,0,1,1.778-.645h0a1.334,1.334,0,0,1,.645,1.775h0a1.336,1.336,0,0,1-1.213.773h0A1.319,1.319,0,0,1,445.166,316.82Zm3.892-.677a1.335,1.335,0,0,1,.592-1.794h0a1.338,1.338,0,0,1,1.8.592h0a1.341,1.341,0,0,1-.595,1.8h0a1.337,1.337,0,0,1-.6.141h0A1.334,1.334,0,0,1,449.058,316.143Zm-7.482-3.735a1.335,1.335,0,0,1,.991-1.607h0a1.335,1.335,0,0,1,1.608.994h0a1.335,1.335,0,0,1-.992,1.607h0a1.38,1.38,0,0,1-.309.037h0A1.336,1.336,0,0,1,441.576,312.408Zm11.161.856a1.336,1.336,0,0,1-1.042-1.578h0a1.335,1.335,0,0,1,1.578-1.04h0a1.335,1.335,0,0,1,1.042,1.578h0a1.34,1.34,0,0,1-1.309,1.069h0A1.321,1.321,0,0,1,452.737,313.264Zm-9.711-4.529a1.335,1.335,0,0,1-.219-1.877h0a1.338,1.338,0,0,1,1.879-.219h0a1.338,1.338,0,0,1,.216,1.879h0a1.332,1.332,0,0,1-1.048.507h0A1.317,1.317,0,0,1,443.026,308.735Zm7.848-.3a1.339,1.339,0,0,1,.165-1.885h0a1.333,1.333,0,0,1,1.882.163h0a1.336,1.336,0,0,1-.163,1.885h0a1.334,1.334,0,0,1-.861.312h0A1.339,1.339,0,0,1,450.874,308.434Zm-4.286-2.716a1.337,1.337,0,0,1,1.338-1.336h0a1.336,1.336,0,0,1,1.336,1.336h0a1.335,1.335,0,0,1-1.336,1.338h0A1.336,1.336,0,0,1,446.587,305.717Z" transform="translate(-441.539 -304.382)"/></g><g transform="translate(13.704 90.891)"><g transform="translate(3.409)"><path class="b" d="M392.454,318.125a1,1,0,0,1-1-1V310.3a1,1,0,1,1,2,0v6.816A1,1,0,0,1,392.454,318.125Z" transform="translate(-391.452 -309.299)"/></g><g transform="translate(0 3.409)"><path class="b" d="M397.994,312.585h-6.819a1,1,0,0,1,0-2.007h6.819a1,1,0,0,1,0,2.007Z" transform="translate(-390.173 -310.578)"/></g></g></g><g transform="translate(77.847 44.719)"><path class="c" d="M451.967,338.044a44.787,44.787,0,1,1,31.668-13.118A44.5,44.5,0,0,1,451.967,338.044Zm0-87.567a42.779,42.779,0,1,0,42.779,42.779A42.827,42.827,0,0,0,451.967,250.477Z" transform="translate(-407.179 -248.47)"/><g transform="translate(43.746)"><path class="c" d="M424.6,338.044a1,1,0,1,1,0-2.01c10.452,0,16.719-7.163,20.139-13.174,4.433-7.792,6.872-18.305,6.872-29.6s-2.439-21.81-6.872-29.6c-3.42-6.011-9.687-13.176-20.139-13.176a1,1,0,1,1,0-2.007c9.036,0,16.6,4.907,21.885,14.189,4.6,8.09,7.136,18.956,7.136,30.6s-2.535,22.509-7.136,30.6C441.2,333.137,433.632,338.044,424.6,338.044Z" transform="translate(-423.59 -248.47)"/></g><g transform="translate(14.221)"><path class="c" d="M443.044,338.044c-9.5,0-17.449-4.9-23-14.171-4.851-8.1-7.525-18.969-7.525-30.618s2.674-22.522,7.525-30.615c5.555-9.271,13.51-14.171,23-14.171a1,1,0,0,1,0,2.007c-11.055,0-17.673,7.176-21.283,13.2-4.668,7.786-7.237,18.294-7.237,29.583s2.57,21.8,7.237,29.586c3.609,6.019,10.228,13.192,21.283,13.192a1,1,0,0,1,0,2.01Z" transform="translate(-412.514 -248.47)"/></g><g transform="translate(43.746)"><path class="c" d="M424.6,338.044a1.006,1.006,0,0,1-1.005-1V249.475a1,1,0,1,1,2.007,0v87.564A1,1,0,0,1,424.6,338.044Z" transform="translate(-423.59 -248.47)"/></g><g transform="translate(8.731 18.142)"><path class="c" d="M446.643,266.725a108.306,108.306,0,0,1-19.713-1.682c-6.323-1.213-14.3-3.644-16.388-8.357a1,1,0,1,1,1.837-.813c1.354,3.058,6.656,5.611,14.93,7.2a113.232,113.232,0,0,0,26.641,1.431,79.112,79.112,0,0,0,18.132-2.9c4.953-1.535,7.917-3.479,8.578-5.619a1,1,0,0,1,1.919.592c-.877,2.841-4.209,5.179-9.9,6.947a81.281,81.281,0,0,1-18.609,2.983C451.606,266.653,449.117,266.725,446.643,266.725Z" transform="translate(-410.454 -255.276)"/></g><g transform="translate(3.242 60.318)"><path class="c" d="M450.456,285.877a91.307,91.307,0,0,1-23.2-2.844c-8.543-2.3-14.989-5.862-18.636-10.292a1,1,0,0,1,1.551-1.277c3.38,4.105,9.469,7.437,17.607,9.631a91.125,91.125,0,0,0,25.609,2.73c17.255-.512,31.178-5.23,36.336-12.313a1,1,0,0,1,1.623,1.181c-2.866,3.937-8.133,7.235-15.232,9.538a82.84,82.84,0,0,1-22.669,3.6C452.455,285.86,451.456,285.877,450.456,285.877Z" transform="translate(-408.395 -271.098)"/></g><g transform="translate(0.028 41.171)"><path class="c" d="M451.433,278.928q-1.819,0-3.639-.056a94.2,94.2,0,0,1-24.356-3.692c-7.6-2.343-13.147-5.686-16.055-9.668a1,1,0,0,1,1.623-1.184c5.222,7.155,20.107,11.958,38.849,12.537,17.809.549,39.289-3.129,47.132-12.587a1,1,0,0,1,1.546,1.282c-3.756,4.529-10.684,8.165-20.041,10.513A105.57,105.57,0,0,1,451.433,278.928Z" transform="translate(-407.189 -263.915)"/></g></g><g transform="translate(24.753 63.102)"><path class="c" d="M390.894,267.823a1.34,1.34,0,0,1-.645-1.781h0a1.339,1.339,0,0,1,1.778-.648h0a1.341,1.341,0,0,1,.648,1.781h0a1.342,1.342,0,0,1-1.216.773h0A1.338,1.338,0,0,1,390.894,267.823Zm3.9-.677a1.344,1.344,0,0,1,.594-1.8h0a1.342,1.342,0,0,1,1.8.595h0a1.342,1.342,0,0,1-.594,1.8h0a1.34,1.34,0,0,1-.6.141h0A1.343,1.343,0,0,1,394.791,267.146Zm-7.493-3.74a1.337,1.337,0,0,1,.994-1.61h0a1.336,1.336,0,0,1,1.61.994h0a1.337,1.337,0,0,1-.994,1.61h0a1.228,1.228,0,0,1-.309.037h0A1.339,1.339,0,0,1,387.3,263.406Zm11.177.856a1.342,1.342,0,0,1-1.042-1.581h0a1.342,1.342,0,0,1,1.583-1.042h0a1.338,1.338,0,0,1,1.04,1.581h0a1.336,1.336,0,0,1-1.309,1.072h0A1.349,1.349,0,0,1,398.475,264.261Zm-9.724-4.534a1.336,1.336,0,0,1-.219-1.879h0a1.337,1.337,0,0,1,1.882-.219h0a1.338,1.338,0,0,1,.219,1.879h0a1.344,1.344,0,0,1-1.053.509h0A1.332,1.332,0,0,1,388.751,259.727Zm7.861-.3h0a1.339,1.339,0,0,1,.165-1.887h0a1.336,1.336,0,0,1,1.885.163h0a1.339,1.339,0,0,1-.163,1.887h0a1.341,1.341,0,0,1-.861.314h0A1.338,1.338,0,0,1,396.612,259.423Zm-4.294-2.716a1.34,1.34,0,0,1,1.338-1.341h0A1.34,1.34,0,0,1,395,256.707h0a1.337,1.337,0,0,1-1.341,1.336h0v0h0A1.339,1.339,0,0,1,392.317,256.707Z" transform="translate(-387.261 -255.366)"/></g><g transform="translate(59.766 105.894)"><path class="c" d="M404.029,283.876a1.343,1.343,0,0,1-.648-1.781h0a1.341,1.341,0,0,1,1.781-.648h0a1.34,1.34,0,0,1,.645,1.781h0a1.335,1.335,0,0,1-1.213.773h0A1.338,1.338,0,0,1,404.029,283.876Zm3.9-.68a1.34,1.34,0,0,1,.594-1.8h0a1.34,1.34,0,0,1,1.8.594h0a1.338,1.338,0,0,1-.594,1.8h0a1.324,1.324,0,0,1-.6.144h0A1.339,1.339,0,0,1,407.926,283.2Zm-7.493-3.737a1.34,1.34,0,0,1,.994-1.613h0a1.34,1.34,0,0,1,1.61,1h0a1.337,1.337,0,0,1-.994,1.61h0a1.385,1.385,0,0,1-.309.037h0A1.339,1.339,0,0,1,400.433,279.459Zm11.177.856a1.34,1.34,0,0,1-1.042-1.581h0a1.339,1.339,0,0,1,1.581-1.042h0a1.338,1.338,0,0,1,1.042,1.581h0a1.341,1.341,0,0,1-1.311,1.072h0A1.343,1.343,0,0,1,411.61,280.314Zm-9.724-4.534a1.336,1.336,0,0,1-.219-1.879h0a1.337,1.337,0,0,1,1.879-.221h0a1.339,1.339,0,0,1,.219,1.882h0a1.336,1.336,0,0,1-1.05.506h0A1.329,1.329,0,0,1,401.886,275.78Zm7.861-.307a1.334,1.334,0,0,1,.163-1.885h0a1.34,1.34,0,0,1,1.887.163h0a1.339,1.339,0,0,1-.165,1.887h0a1.336,1.336,0,0,1-.861.315h0A1.327,1.327,0,0,1,409.747,275.473Zm-4.294-2.716a1.339,1.339,0,0,1,1.338-1.338h0a1.337,1.337,0,0,1,1.338,1.338h0a1.337,1.337,0,0,1-1.338,1.338h0A1.339,1.339,0,0,1,405.452,272.757Z" transform="translate(-400.396 -271.419)"/></g><g transform="translate(77.723 16.716)"><path class="c" d="M410.767,250.422a1.338,1.338,0,0,1-.648-1.781h0A1.339,1.339,0,0,1,411.9,248h0a1.337,1.337,0,0,1,.648,1.781h0a1.34,1.34,0,0,1-1.213.773h0A1.332,1.332,0,0,1,410.767,250.422Zm3.9-.677a1.336,1.336,0,0,1,.594-1.8h0a1.336,1.336,0,0,1,1.8.594h0a1.337,1.337,0,0,1-.595,1.8h0a1.34,1.34,0,0,1-.6.144h0A1.335,1.335,0,0,1,414.664,249.745Zm-7.5-3.74a1.341,1.341,0,0,1,1-1.61h0a1.339,1.339,0,0,1,1.61.994h0a1.339,1.339,0,0,1-.994,1.613h0a1.394,1.394,0,0,1-.309.035h0A1.342,1.342,0,0,1,407.168,246Zm11.177.858a1.339,1.339,0,0,1-1.04-1.581h0a1.34,1.34,0,0,1,1.581-1.045h0a1.344,1.344,0,0,1,1.042,1.583h0a1.343,1.343,0,0,1-1.311,1.069h0A1.381,1.381,0,0,1,418.345,246.863Zm-9.724-4.534a1.34,1.34,0,0,1-.216-1.882h0a1.336,1.336,0,0,1,1.879-.219h0a1.339,1.339,0,0,1,.219,1.879h0a1.331,1.331,0,0,1-1.05.509h0A1.358,1.358,0,0,1,408.621,242.329Zm7.861-.307a1.34,1.34,0,0,1,.165-1.887h0a1.337,1.337,0,0,1,1.885.165h0a1.336,1.336,0,0,1-.163,1.885h0a1.322,1.322,0,0,1-.861.315h0A1.338,1.338,0,0,1,416.482,242.022Zm-4.294-2.716a1.342,1.342,0,0,1,1.341-1.341v0a1.337,1.337,0,0,1,1.338,1.338h0a1.339,1.339,0,0,1-1.338,1.338h0A1.341,1.341,0,0,1,412.188,239.306Z" transform="translate(-407.133 -237.965)"/></g><g transform="translate(165.344 33.225)"><path class="c" d="M443.637,256.612a1.337,1.337,0,0,1-.648-1.778h0a1.337,1.337,0,0,1,1.781-.648h0a1.338,1.338,0,0,1,.645,1.781h0a1.34,1.34,0,0,1-1.213.773h0A1.332,1.332,0,0,1,443.637,256.612Zm3.9-.677a1.336,1.336,0,0,1,.594-1.8h0a1.336,1.336,0,0,1,1.8.594h0a1.337,1.337,0,0,1-.594,1.8h0a1.307,1.307,0,0,1-.6.144h0A1.335,1.335,0,0,1,447.534,255.935Zm-7.5-3.737a1.342,1.342,0,0,1,1-1.613h0a1.338,1.338,0,0,1,1.61.994h0a1.339,1.339,0,0,1-.994,1.613h0a1.372,1.372,0,0,1-.309.035h0A1.34,1.34,0,0,1,440.038,252.2Zm11.18.856a1.338,1.338,0,0,1-1.042-1.581h0a1.336,1.336,0,0,1,1.581-1.042h0a1.34,1.34,0,0,1,1.042,1.581h0a1.341,1.341,0,0,1-1.311,1.069h0A1.338,1.338,0,0,1,451.218,253.053Zm-9.727-4.534a1.339,1.339,0,0,1-.216-1.882h0a1.339,1.339,0,0,1,1.879-.219h0a1.339,1.339,0,0,1,.219,1.882h0a1.336,1.336,0,0,1-1.05.506h0A1.342,1.342,0,0,1,441.491,248.519Zm7.861-.307a1.342,1.342,0,0,1,.165-1.887h0a1.336,1.336,0,0,1,1.885.165h0a1.337,1.337,0,0,1-.163,1.887h0a1.348,1.348,0,0,1-.861.312h0A1.342,1.342,0,0,1,449.352,248.212ZM445.06,245.5a1.337,1.337,0,0,1,1.338-1.338h0a1.338,1.338,0,0,1,1.341,1.338h0a1.34,1.34,0,0,1-1.341,1.338h0A1.339,1.339,0,0,1,445.06,245.5Z" transform="translate(-440.003 -244.158)"/></g><g transform="translate(24.587 5.355)"><g transform="translate(3.415)"><path class="c" d="M389.485,242.54a1.006,1.006,0,0,1-1-1.005v-6.829a1,1,0,0,1,2.01,0v6.829A1.006,1.006,0,0,1,389.485,242.54Z" transform="translate(-388.48 -233.703)"/></g><g transform="translate(0 3.415)"><path class="c" d="M395.033,236.991H388.2a1,1,0,1,1,0-2.007h6.829a1,1,0,0,1,0,2.007Z" transform="translate(-387.199 -234.984)"/></g></g><g transform="translate(26.73 120.235)"><g transform="translate(3.415)"><path class="c" d="M390.289,285.636a1,1,0,0,1-1.005-1.005V277.8a1,1,0,1,1,2.007,0v6.827A1,1,0,0,1,390.289,285.636Z" transform="translate(-389.284 -276.799)"/></g><g transform="translate(0 3.415)"><path class="c" d="M395.835,280.087h-6.827a1,1,0,1,1,0-2.007h6.827a1,1,0,1,1,0,2.007Z" transform="translate(-388.003 -278.08)"/></g></g><g transform="translate(58.462 66.543)"><g transform="translate(3.415)"><path class="c" d="M402.193,265.494a1,1,0,0,1-1-1v-6.829a1,1,0,1,1,2.007,0v6.829A1,1,0,0,1,402.193,265.494Z" transform="translate(-401.188 -256.657)"/></g><g transform="translate(0 3.415)"><path class="c" d="M407.741,259.945h-6.829a1,1,0,1,1,0-2.007h6.829a1,1,0,0,1,0,2.007Z" transform="translate(-399.907 -257.938)"/></g></g><g transform="translate(126.079)"><g transform="translate(3.412)"><path class="c" d="M427.558,240.531a1.006,1.006,0,0,1-1-1V232.7a1,1,0,0,1,2.01,0v6.829A1.006,1.006,0,0,1,427.558,240.531Z" transform="translate(-426.553 -231.694)"/></g><g transform="translate(0 3.412)"><path class="c" d="M433.1,234.984h-6.829a1,1,0,0,1,0-2.01H433.1a1,1,0,1,1,0,2.01Z" transform="translate(-425.273 -232.974)"/></g></g><g transform="translate(172.539 123.716)"><g transform="translate(3.415)"><path class="c" d="M444.985,286.942a1,1,0,0,1-1-1.005v-6.829a1,1,0,0,1,2.007,0v6.829A1.006,1.006,0,0,1,444.985,286.942Z" transform="translate(-443.983 -278.105)"/></g><g transform="translate(0 3.415)"><path class="c" d="M450.534,281.393h-6.827a1,1,0,1,1,0-2.007h6.827a1,1,0,1,1,0,2.007Z" transform="translate(-442.702 -279.386)"/></g></g><g transform="translate(198.812 71.027)"><g transform="translate(8.477 9.037)"><path class="b" d="M479.809,270.094l-7.459-1.082-3.335-6.76a.938.938,0,0,0-1.682,0L464,269.012l-7.459,1.082a.938.938,0,0,0-.52,1.6l5.4,5.262-1.274,7.429a.936.936,0,0,0,1.359.986l6.672-3.505,6.669,3.505a.937.937,0,0,0,1.362-.986l-1.274-7.429,5.4-5.262a.938.938,0,0,0-.52-1.6Zm-6.539,5.862a.935.935,0,0,0-.269.832l1.037,6.04-5.427-2.852a.944.944,0,0,0-.872,0l-5.427,2.852,1.037-6.04a.935.935,0,0,0-.269-.832l-4.39-4.278,6.067-.882a.929.929,0,0,0,.706-.512l2.714-5.5,2.711,5.5a.938.938,0,0,0,.706.512l6.067.882Z" transform="translate(-455.738 -261.729)"/></g><path class="c" d="M473.473,258.339a20.912,20.912,0,1,0,20.912,20.912A20.937,20.937,0,0,0,473.473,258.339Zm0,39.95a19.038,19.038,0,1,1,19.036-19.038A19.06,19.06,0,0,1,473.473,298.289Z" transform="translate(-452.558 -258.339)"/></g><g transform="translate(0 80.329)"><circle class="a" cx="17.463" cy="17.463" r="17.463" transform="matrix(0.997, -0.071, 0.071, 0.997, 0, 2.476)"/></g><g transform="translate(0.191 80.519)"><g transform="translate(7.922 12.24)"><path class="b" d="M389.925,279.679a1.01,1.01,0,0,1-.709-.293l-7.9-7.906a1,1,0,1,1,1.418-1.418l7.195,7.192,10.468-10.468a1,1,0,1,1,1.421,1.421l-11.177,11.18A1.016,1.016,0,0,1,389.925,279.679Z" transform="translate(-381.019 -266.492)"/></g><path class="b" d="M396.512,298.833a18.466,18.466,0,1,1,18.468-18.465A18.484,18.484,0,0,1,396.512,298.833Zm0-34.926a16.459,16.459,0,1,0,16.46,16.46A16.478,16.478,0,0,0,396.512,263.907Z" transform="translate(-378.047 -261.9)"/></g><path class="d" d="M471.426,274.045a.935.935,0,0,0-.269.832l1.037,6.04-5.427-2.852a.944.944,0,0,0-.872,0l-5.427,2.852,1.037-6.04a.935.935,0,0,0-.269-.832l-4.39-4.278,6.067-.882a.929.929,0,0,0,.706-.512l2.714-5.5,2.711,5.5a.938.938,0,0,0,.706.512l6.067.882Z" transform="translate(-246.605 -179.755)"/></svg>