<svg xmlns="http://www.w3.org/2000/svg" width="245.881" height="199.635" viewBox="0 0 245.881 199.635"><defs><style>.a{fill:#45b3bf;}.b{fill:#072233;}</style></defs><g transform="translate(80.459 81.881)"><path class="a" d="M441.208,120.4a42.807,42.807,0,1,0,42.805,42.809A42.808,42.808,0,0,0,441.208,120.4ZM406.465,159.64a5.876,5.876,0,1,1,5.876,5.876A5.875,5.875,0,0,1,406.465,159.64Zm9.86,27.823a5.876,5.876,0,1,1,5.876-5.876A5.875,5.875,0,0,1,416.325,187.463Zm40.724-29.707a5.876,5.876,0,1,1,5.876-5.876A5.877,5.877,0,0,1,457.049,157.755Z" transform="translate(-398.403 -120.398)"/></g><g transform="translate(223.264 44.042)"><path class="a" d="M444.288,108.091h0Z" transform="translate(-444.276 -108.091)"/></g><g transform="translate(201.84 1.159)"><path class="a" d="M458.751,94.144a21.441,21.441,0,0,0-.019,42.882q-5.88,0-11.764-4.431a11.765,11.765,0,0,1,11.748-11.745h0a8.4,8.4,0,1,1,.55.012A11.79,11.79,0,0,1,470.511,132.6q-5.885,4.432-11.767,4.431l.006,0a21.443,21.443,0,0,0,0-42.885Z" transform="translate(-437.308 -94.144)"/></g><g transform="translate(223.249 27.866)"><path class="a" d="M444.821,102.842c-.181-.006-.366-.012-.55-.012h0v.031C444.456,102.861,444.64,102.855,444.821,102.842Z" transform="translate(-444.271 -102.83)"/></g><g transform="translate(123.078 44.042)"><path class="a" d="M412.3,108.091h0Z" transform="translate(-412.266 -108.091)"/></g><g transform="translate(122.883 44.042)"><path class="a" d="M412.261,108.094l.135,0H412.2Z" transform="translate(-412.203 -108.091)"/></g><g transform="translate(122.619 27.866)"><path class="a" d="M412.447,102.83c-.111,0-.218.006-.329.009.108,0,.218.009.329.009Z" transform="translate(-412.118 -102.83)"/></g><g transform="translate(122.107 44.026)"><path class="a" d="M412.722,108.1c-.258,0-.513-.006-.769-.015C412.208,108.1,412.463,108.1,412.722,108.1Z" transform="translate(-411.953 -108.086)"/></g><g transform="translate(101.498 1.159)"><path class="a" d="M426.691,94.144a21.441,21.441,0,0,0-.827,42.867,19.469,19.469,0,0,1-10.946-4.415,11.776,11.776,0,0,1,11.453-11.736,9.278,9.278,0,1,1,.32-.009A11.766,11.766,0,0,1,438.473,132.6c-3.939,2.912-7.807,4.363-11.61,4.431a21.442,21.442,0,0,0-.172-42.882Z" transform="translate(-405.248 -94.144)"/></g><g transform="translate(22.608 44.042)"><path class="a" d="M380.186,108.091h0Z" transform="translate(-380.165 -108.091)"/></g><g transform="translate(22.654 27.866)"><path class="a" d="M380.18,102.861c.178,0,.36-.006.538-.018-.178-.006-.36-.012-.538-.012Z" transform="translate(-380.18 -102.83)"/></g><g transform="translate(1.159 1.159)"><path class="a" d="M394.632,94.144a21.443,21.443,0,1,0,0,42.885l.006,0q-5.894,0-11.788-4.431a11.766,11.766,0,0,1,11.782-11.745,8.4,8.4,0,1,1,.59.012A11.755,11.755,0,0,1,406.435,132.6q-5.88,4.428-11.776,4.431a21.441,21.441,0,0,0-.028-42.882Z" transform="translate(-373.189 -94.144)"/></g><g transform="translate(31.995 90.577)"><g transform="translate(0 92.151)"><path class="b" d="M557.864,165.244H391.1a7.815,7.815,0,0,1-7.882-7.73v-3.158A1.169,1.169,0,0,1,384.4,153.2H564.564a1.172,1.172,0,0,1,1.182,1.159v3.158A7.817,7.817,0,0,1,557.864,165.244Zm-172.285-9.731v2a5.472,5.472,0,0,0,5.521,5.411H557.864a5.472,5.472,0,0,0,5.518-5.411v-2Z" transform="translate(-383.218 -153.197)"/></g><g transform="translate(77.676 92.274)"><path class="b" d="M433.927,160.419H409.062a1.157,1.157,0,0,1-1.156-1.159V154.4a1.158,1.158,0,1,1,2.315,0v3.7h22.547v-3.7a1.159,1.159,0,1,1,2.318,0v4.864A1.16,1.16,0,0,1,433.927,160.419Z" transform="translate(-407.906 -153.237)"/></g><g transform="translate(120.137)"><path class="b" d="M470.253,216.428a1.158,1.158,0,0,1-1.159-1.159V131.42a5.839,5.839,0,0,0-5.925-5.879H422.3a1.158,1.158,0,1,1,0-2.315h40.868a8.225,8.225,0,0,1,5.83,2.38,8.124,8.124,0,0,1,2.41,5.814v83.849A1.157,1.157,0,0,1,470.253,216.428Z" transform="translate(-421.141 -123.226)"/></g><g transform="translate(11.97)"><path class="b" d="M388.27,217.2a1.16,1.16,0,0,1-1.159-1.159V131.42a8.259,8.259,0,0,1,8.3-8.194h41.268a1.158,1.158,0,1,1,0,2.315H395.416a5.94,5.94,0,0,0-5.986,5.879v84.621A1.16,1.16,0,0,1,388.27,217.2Z" transform="translate(-387.111 -123.226)"/></g><g transform="translate(22.009 10.039)"><path class="b" d="M391.566,202.783a1.243,1.243,0,0,1-.842-.363,1.214,1.214,0,0,1-.347-.846V127.647a1.173,1.173,0,0,1,1.189-1.156h29.874a1.158,1.158,0,1,1,0,2.315H392.752v71.612l133.759-.077V128.806H497.827a1.158,1.158,0,1,1,0-2.315H527.7a1.173,1.173,0,0,1,1.19,1.156V201.5a1.2,1.2,0,0,1-1.19,1.184l-136.135.1Z" transform="translate(-390.376 -126.491)"/></g></g><g transform="translate(200.681)"><path class="b" d="M459.533,138.968a22.6,22.6,0,1,1,22.6-22.6A22.626,22.626,0,0,1,459.533,138.968Zm0-42.882a20.284,20.284,0,1,0,20.281,20.284A20.3,20.3,0,0,0,459.533,96.085Z" transform="translate(-436.931 -93.767)"/><g transform="translate(9.664 9.064)"><g transform="translate(2.939)"><path class="b" d="M451.029,116.71a10,10,0,1,1,10-10A10.011,10.011,0,0,1,451.029,116.71Zm0-17.676a7.679,7.679,0,1,0,7.677,7.677A7.686,7.686,0,0,0,451.029,99.033Z" transform="translate(-441.03 -96.715)"/></g><g transform="translate(0 17.676)"><path class="b" d="M464.791,116.561a1.16,1.16,0,0,1-1.159-1.159,10.621,10.621,0,0,0-21.243,0,1.158,1.158,0,1,1-2.315,0,12.937,12.937,0,1,1,25.873,0A1.157,1.157,0,0,1,464.791,116.561Z" transform="translate(-440.074 -102.464)"/></g></g></g><g transform="translate(100.342)"><path class="b" d="M427.471,138.968a22.6,22.6,0,1,1,22.6-22.6A22.624,22.624,0,0,1,427.471,138.968Zm0-42.882a20.284,20.284,0,1,0,20.284,20.284A20.305,20.305,0,0,0,427.471,96.085Z" transform="translate(-404.872 -93.767)"/><g transform="translate(9.661 9.064)"><g transform="translate(2.942)"><path class="b" d="M418.967,116.71a10,10,0,1,1,10-10A10.008,10.008,0,0,1,418.967,116.71Zm0-17.676a7.679,7.679,0,1,0,7.681,7.677A7.688,7.688,0,0,0,418.967,99.033Z" transform="translate(-408.971 -96.715)"/></g><g transform="translate(0 17.676)"><path class="b" d="M432.731,116.561a1.16,1.16,0,0,1-1.159-1.159,10.62,10.62,0,0,0-21.24,0,1.159,1.159,0,1,1-2.318,0,12.938,12.938,0,1,1,25.876,0A1.16,1.16,0,0,1,432.731,116.561Z" transform="translate(-408.014 -102.464)"/></g></g></g><path class="b" d="M395.414,138.968a22.6,22.6,0,1,1,22.6-22.6A22.626,22.626,0,0,1,395.414,138.968Zm0-42.882A20.284,20.284,0,1,0,415.7,116.369,20.3,20.3,0,0,0,395.414,96.085Z" transform="translate(-372.812 -93.767)"/><g transform="translate(9.664 9.064)"><g transform="translate(2.939)"><path class="b" d="M386.91,116.71a10,10,0,1,1,10-10A10.011,10.011,0,0,1,386.91,116.71Zm0-17.676a7.679,7.679,0,1,0,7.678,7.677A7.686,7.686,0,0,0,386.91,99.033Z" transform="translate(-376.911 -96.715)"/></g><g transform="translate(0 17.676)"><path class="b" d="M400.672,116.561a1.16,1.16,0,0,1-1.159-1.159,10.621,10.621,0,0,0-21.243,0,1.158,1.158,0,1,1-2.315,0,12.937,12.937,0,1,1,25.873,0A1.157,1.157,0,0,1,400.672,116.561Z" transform="translate(-375.955 -102.464)"/></g></g><g transform="translate(79.3 80.725)"><path class="b" d="M441.991,207.948a43.964,43.964,0,1,1,31.088-12.877A43.678,43.678,0,0,1,441.991,207.948Zm0-85.611a41.648,41.648,0,1,0,41.649,41.649A41.7,41.7,0,0,0,441.991,122.337Z" transform="translate(-398.026 -120.022)"/><g transform="translate(55.539 37.237)"><path class="b" d="M417.247,180.224a1.157,1.157,0,0,1-.956-1.811,49.806,49.806,0,0,0,5.682-44.73,1.158,1.158,0,0,1,2.18-.784A52.134,52.134,0,0,1,418.2,179.72,1.154,1.154,0,0,1,417.247,180.224Z" transform="translate(-416.09 -132.133)"/></g><g transform="translate(24.2 4.719)"><path class="b" d="M438.243,144.759a1.157,1.157,0,0,1-.953-.5,50.15,50.15,0,0,0-5.808-6.967,49.5,49.5,0,0,0-24.668-13.442,1.159,1.159,0,1,1,.486-2.266,51.827,51.827,0,0,1,25.821,14.07,52.556,52.556,0,0,1,6.075,7.29,1.159,1.159,0,0,1-.953,1.817Z" transform="translate(-405.897 -121.557)"/></g><g transform="translate(6.325 20.682)"><path class="b" d="M405.577,142.025a1.155,1.155,0,0,1-1.039-.646,51.675,51.675,0,0,1-4.434-13.255,1.158,1.158,0,1,1,2.275-.434,49.353,49.353,0,0,0,4.234,12.661,1.158,1.158,0,0,1-.526,1.553A1.171,1.171,0,0,1,405.577,142.025Z" transform="translate(-400.083 -126.749)"/></g><g transform="translate(17.923 44.545)"><path class="b" d="M443.358,154.29a51.99,51.99,0,0,1-39.217-17.861,1.158,1.158,0,0,1,1.746-1.522,49.694,49.694,0,0,0,64.42,9.129,1.157,1.157,0,1,1,1.258,1.943A51.794,51.794,0,0,1,443.358,154.29Z" transform="translate(-403.855 -134.51)"/></g><g transform="translate(1.779 54.142)"><path class="b" d="M409.626,145.179a1.141,1.141,0,0,1-.424-.08,51.828,51.828,0,0,1-10.091-5.353,1.157,1.157,0,0,1,1.3-1.912,49.543,49.543,0,0,0,9.639,5.11,1.158,1.158,0,0,1-.427,2.235Z" transform="translate(-398.605 -137.631)"/></g><g transform="translate(24.423 22.804)"><path class="b" d="M413.028,169.882a51.978,51.978,0,0,1-6.033-.351,1.158,1.158,0,1,1,.268-2.3,49.682,49.682,0,0,0,54.378-38.876,1.158,1.158,0,1,1,2.266.483,52.067,52.067,0,0,1-34.159,38.316A52.426,52.426,0,0,1,413.028,169.882Z" transform="translate(-405.969 -127.439)"/></g><g transform="translate(52.774 25.603)"><path class="b" d="M422.222,142.419a7.035,7.035,0,1,1,7.035-7.035A7.043,7.043,0,0,1,422.222,142.419Zm0-11.751a4.717,4.717,0,1,0,4.716,4.717A4.721,4.721,0,0,0,422.222,130.667Z" transform="translate(-415.19 -128.349)"/></g><g transform="translate(8.065 33.363)"><path class="b" d="M407.681,144.94a7.033,7.033,0,1,1,7.035-7.032A7.04,7.04,0,0,1,407.681,144.94Zm0-11.751a4.718,4.718,0,1,0,4.72,4.72A4.724,4.724,0,0,0,407.681,133.188Z" transform="translate(-400.649 -130.873)"/></g><g transform="translate(12.05 55.313)"><path class="b" d="M408.977,152.079a7.033,7.033,0,1,1,7.035-7.035A7.041,7.041,0,0,1,408.977,152.079Zm0-11.751a4.717,4.717,0,1,0,4.716,4.717A4.721,4.721,0,0,0,408.977,140.327Z" transform="translate(-401.945 -138.012)"/></g></g><g transform="translate(43.636 45.541)"><path class="b" d="M389.282,112.26a1.148,1.148,0,0,1-.818-.341l-1.365-1.365a1.158,1.158,0,0,1,1.639-1.636l1.365,1.365a1.159,1.159,0,0,1-.821,1.977Z" transform="translate(-386.76 -108.579)"/><g transform="translate(6.26 6.257)"><path class="b" d="M415.512,138.489a1.165,1.165,0,0,1-.821-.338l-2.718-2.718a1.159,1.159,0,0,1,1.639-1.639l2.718,2.718a1.158,1.158,0,0,1-.818,1.977Zm-7.613-7.613a1.164,1.164,0,0,1-.821-.338l-2.718-2.721A1.158,1.158,0,0,1,406,126.182l2.718,2.718a1.158,1.158,0,0,1-.818,1.977Zm-7.616-7.613a1.163,1.163,0,0,1-.818-.338l-2.718-2.721a1.158,1.158,0,0,1,1.639-1.636l2.718,2.718a1.158,1.158,0,0,1-.821,1.977Zm-7.613-7.613a1.162,1.162,0,0,1-.818-.338l-2.718-2.721a1.158,1.158,0,0,1,1.636-1.639l2.721,2.721a1.158,1.158,0,0,1-.821,1.977Z" transform="translate(-388.796 -110.614)"/></g><g transform="translate(36.711 36.711)"><path class="b" d="M401.222,124.2a1.163,1.163,0,0,1-.818-.338l-1.365-1.365a1.159,1.159,0,0,1,1.639-1.639l1.365,1.365a1.158,1.158,0,0,1-.821,1.977Z" transform="translate(-398.7 -120.519)"/></g></g><g transform="translate(159.07 42.885)"><g transform="translate(40.89)"><path class="b" d="M438.095,111.4a1.158,1.158,0,0,1-.818-1.977l1.365-1.365a1.159,1.159,0,0,1,1.639,1.639l-1.365,1.365A1.164,1.164,0,0,1,438.095,111.4Z" transform="translate(-436.938 -107.715)"/></g><g transform="translate(5.87 5.867)"><path class="b" d="M426.7,142.457a1.145,1.145,0,0,1-.818-.338,1.16,1.16,0,0,1,0-1.639l2.5-2.5a1.158,1.158,0,0,1,1.639,1.636l-2.5,2.5A1.152,1.152,0,0,1,426.7,142.457Zm7-7a1.144,1.144,0,0,1-.818-.338,1.16,1.16,0,0,1,0-1.639l2.5-2.5a1.158,1.158,0,0,1,1.639,1.636l-2.5,2.5A1.151,1.151,0,0,1,433.709,135.453Zm7-7a1.145,1.145,0,0,1-.818-.338,1.16,1.16,0,0,1,0-1.639l2.5-2.5a1.158,1.158,0,1,1,1.639,1.636l-2.5,2.5A1.152,1.152,0,0,1,440.713,128.449Zm7-7a1.158,1.158,0,0,1-.818-1.977l2.5-2.5a1.158,1.158,0,0,1,1.639,1.636l-2.5,2.5A1.164,1.164,0,0,1,447.717,121.445Zm7-7a1.158,1.158,0,0,1-.818-1.977l2.5-2.5a1.158,1.158,0,0,1,1.639,1.636l-2.5,2.5A1.165,1.165,0,0,1,454.721,114.441Z" transform="translate(-425.548 -109.623)"/></g><g transform="translate(0 40.89)"><path class="b" d="M424.8,124.695a1.159,1.159,0,0,1-.821-1.977l1.365-1.365a1.158,1.158,0,1,1,1.639,1.636l-1.365,1.365A1.148,1.148,0,0,1,424.8,124.695Z" transform="translate(-423.639 -121.014)"/></g></g><g transform="translate(121.716 48.955)"><path class="b" d="M412.98,114.015a1.157,1.157,0,0,1-1.156-1.159v-2.008a1.158,1.158,0,1,1,2.315,0v2.008A1.16,1.16,0,0,1,412.98,114.015Z" transform="translate(-411.824 -109.689)"/><g transform="translate(0 7.724)"><path class="b" d="M412.98,126.716a1.157,1.157,0,0,1-1.156-1.159v-3.241a1.158,1.158,0,1,1,2.315,0v3.241A1.16,1.16,0,0,1,412.98,126.716Zm0-8.956a1.157,1.157,0,0,1-1.156-1.159v-3.244a1.158,1.158,0,0,1,2.315,0V116.6A1.16,1.16,0,0,1,412.98,117.76Z" transform="translate(-411.824 -112.201)"/></g><g transform="translate(0 25.637)"><path class="b" d="M412.98,122.2a1.155,1.155,0,0,1-1.156-1.156v-1.854a1.158,1.158,0,1,1,2.315,0v1.854A1.157,1.157,0,0,1,412.98,122.2Z" transform="translate(-411.824 -118.027)"/></g></g><g transform="translate(20.848 65.604)"><path class="b" d="M383.781,129.472a1.543,1.543,0,0,1-.744-2.051h0a1.542,1.542,0,0,1,2.054-.747h0a1.545,1.545,0,0,1,.747,2.051h0a1.548,1.548,0,0,1-1.4.892h0A1.557,1.557,0,0,1,383.781,129.472Zm4.5-.781a1.543,1.543,0,0,1,.686-2.072h0a1.545,1.545,0,0,1,2.075.686h0a1.547,1.547,0,0,1-.686,2.072h0a1.529,1.529,0,0,1-.695.166h0A1.54,1.54,0,0,1,388.28,128.691Zm-8.646-4.311a1.549,1.549,0,0,1,1.15-1.86h0a1.547,1.547,0,0,1,1.857,1.15h0a1.543,1.543,0,0,1-1.147,1.857h0a1.587,1.587,0,0,1-.357.04h0A1.548,1.548,0,0,1,379.633,124.38Zm12.9.987a1.543,1.543,0,0,1-1.2-1.823h0a1.543,1.543,0,0,1,1.823-1.2h0a1.542,1.542,0,0,1,1.2,1.823h0a1.547,1.547,0,0,1-1.513,1.233h0A1.543,1.543,0,0,1,392.529,125.367Zm-11.219-5.23a1.55,1.55,0,0,1-.252-2.171h0a1.548,1.548,0,0,1,2.171-.252h0a1.541,1.541,0,0,1,.252,2.168h0a1.535,1.535,0,0,1-1.211.587h0A1.548,1.548,0,0,1,381.309,120.137Zm9.067-.354h0a1.544,1.544,0,0,1,.191-2.174h0a1.543,1.543,0,0,1,2.177.188h0a1.548,1.548,0,0,1-.191,2.177h0a1.539,1.539,0,0,1-.993.36h0A1.548,1.548,0,0,1,390.376,119.784Zm-4.95-3.133a1.545,1.545,0,0,1,1.543-1.547h0a1.545,1.545,0,0,1,1.544,1.547h0a1.544,1.544,0,0,1-1.544,1.543h0A1.544,1.544,0,0,1,385.426,116.651Z" transform="translate(-379.593 -115.104)"/></g><g transform="translate(5.203 185.122)"><path class="b" d="M378.694,168.341a1.542,1.542,0,0,1-.747-2.051h0a1.546,1.546,0,0,1,2.054-.747h0a1.545,1.545,0,0,1,.744,2.054h0a1.54,1.54,0,0,1-1.4.892h0A1.5,1.5,0,0,1,378.694,168.341Zm4.5-.778a1.548,1.548,0,0,1,.686-2.075h0a1.545,1.545,0,0,1,2.075.686h0a1.541,1.541,0,0,1-.686,2.072h0a1.529,1.529,0,0,1-.695.166h0A1.55,1.55,0,0,1,383.189,167.563Zm-8.643-4.314a1.541,1.541,0,0,1,1.147-1.857h0a1.546,1.546,0,0,1,1.86,1.147h0a1.547,1.547,0,0,1-1.15,1.857h0a1.571,1.571,0,0,1-.357.043h0A1.544,1.544,0,0,1,374.546,163.249Zm12.892.987a1.545,1.545,0,0,1-1.2-1.823h0a1.543,1.543,0,0,1,1.823-1.2h0a1.543,1.543,0,0,1,1.2,1.823h0a1.543,1.543,0,0,1-1.51,1.233h0A1.547,1.547,0,0,1,387.438,164.236Zm-11.216-5.23a1.542,1.542,0,0,1-.252-2.171h0a1.541,1.541,0,0,1,2.168-.249h0a1.538,1.538,0,0,1,.252,2.168h0a1.539,1.539,0,0,1-1.208.587h0A1.538,1.538,0,0,1,376.222,159.006Zm9.067-.354a1.545,1.545,0,0,1,.188-2.177h0a1.548,1.548,0,0,1,2.177.191h0a1.545,1.545,0,0,1-.191,2.177h0a1.538,1.538,0,0,1-.993.36h0A1.527,1.527,0,0,1,385.289,158.653Zm-4.953-3.133a1.545,1.545,0,0,1,1.546-1.543h0a1.544,1.544,0,0,1,1.544,1.543h0a1.542,1.542,0,0,1-1.544,1.543h0A1.543,1.543,0,0,1,380.336,155.519Z" transform="translate(-374.504 -153.976)"/></g><g transform="translate(218.561 120.877)"><path class="b" d="M446.936,147.446h0a1.541,1.541,0,0,1-.744-2.051h0a1.542,1.542,0,0,1,2.051-.747h0a1.545,1.545,0,0,1,.744,2.054h0a1.54,1.54,0,0,1-1.4.892h0A1.547,1.547,0,0,1,446.936,147.446Zm4.5-.778a1.548,1.548,0,0,1,.686-2.075h0a1.545,1.545,0,0,1,2.075.686h0a1.541,1.541,0,0,1-.686,2.072h0a1.529,1.529,0,0,1-.695.166h0A1.549,1.549,0,0,1,451.431,146.668Zm-8.643-4.314a1.541,1.541,0,0,1,1.147-1.857h0a1.546,1.546,0,0,1,1.86,1.147h0a1.547,1.547,0,0,1-1.15,1.857h0a1.6,1.6,0,0,1-.357.043h0A1.542,1.542,0,0,1,442.788,142.354Zm12.892.987a1.545,1.545,0,0,1-1.2-1.823h0a1.543,1.543,0,0,1,1.823-1.2h0a1.543,1.543,0,0,1,1.2,1.823h0a1.543,1.543,0,0,1-1.509,1.233h0A1.55,1.55,0,0,1,455.68,143.341Zm-11.216-5.23a1.542,1.542,0,0,1-.252-2.171h0a1.544,1.544,0,0,1,2.168-.252h0a1.542,1.542,0,0,1,.252,2.171h0a1.54,1.54,0,0,1-1.211.587h0A1.536,1.536,0,0,1,444.464,138.111Zm9.064-.354a1.548,1.548,0,0,1,.191-2.177h0a1.548,1.548,0,0,1,2.177.191h0a1.545,1.545,0,0,1-.191,2.177h0a1.538,1.538,0,0,1-.993.36h0A1.538,1.538,0,0,1,453.528,137.758Zm-4.95-3.133a1.544,1.544,0,0,1,1.543-1.543h0a1.545,1.545,0,0,1,1.547,1.543h0a1.545,1.545,0,0,1-1.547,1.543h0A1.544,1.544,0,0,1,448.578,134.624Z" transform="translate(-442.746 -133.081)"/></g><g transform="translate(0.028 118.451)"><g transform="translate(3.939)"><path class="b" d="M375.261,142.484a1.16,1.16,0,0,1-1.159-1.159v-7.874a1.158,1.158,0,1,1,2.315,0v7.874A1.157,1.157,0,0,1,375.261,142.484Z" transform="translate(-374.102 -132.292)"/></g><g transform="translate(0 3.939)"><path class="b" d="M381.854,135.888H373.98a1.158,1.158,0,1,1,0-2.315h7.874a1.158,1.158,0,1,1,0,2.315Z" transform="translate(-372.821 -133.573)"/></g></g><g transform="translate(227.188 187.638)"><g transform="translate(3.939)"><path class="b" d="M447.989,164.986a1.155,1.155,0,0,1-1.156-1.156v-7.877a1.158,1.158,0,1,1,2.315,0v7.877A1.155,1.155,0,0,1,447.989,164.986Z" transform="translate(-446.833 -154.794)"/></g><g transform="translate(0 3.939)"><path class="b" d="M454.585,158.393h-7.874a1.159,1.159,0,0,1,0-2.318h7.874a1.159,1.159,0,1,1,0,2.318Z" transform="translate(-445.552 -156.075)"/></g></g><g transform="translate(216.995 68.107)"><g transform="translate(3.939)"><path class="b" d="M444.674,126.111a1.157,1.157,0,0,1-1.156-1.159v-7.877a1.158,1.158,0,0,1,2.315,0v7.877A1.16,1.16,0,0,1,444.674,126.111Z" transform="translate(-443.518 -115.918)"/></g><g transform="translate(0 3.936)"><path class="b" d="M451.27,119.516H443.4a1.159,1.159,0,1,1,0-2.318h7.874a1.159,1.159,0,1,1,0,2.318Z" transform="translate(-442.237 -117.198)"/></g></g></svg>