<svg xmlns="http://www.w3.org/2000/svg" width="245.812" height="205.27" viewBox="0 0 245.812 205.27"><defs><style>.a{fill:#45b3bf;}.b{fill:#072233;}</style></defs><g transform="translate(7.992 22.204)"><rect class="a" width="29.796" height="29.796"/></g><g transform="translate(103.728 104.176)"><g transform="translate(42.298 30.763)"><path class="a" d="M136.422,274.319l.435-.435-.707.163Z" transform="translate(-136.149 -273.884)"/></g><path class="a" d="M241.462,283.7l-5.023-5.028v0l-14.51-14.51-18.677,18.677-12.66-12.686L165.845,294.93l-.795.163-16.22-16.241-25.924,25.94-.117,4.33H165.05l.795.008,64.592-.008H250.56l-1.073-33.451Z" transform="translate(-122.789 -264.167)"/></g><path class="b" d="M170.785,344.291H94.494a4.476,4.476,0,0,1-4.47-4.473V235.734a4.476,4.476,0,0,1,4.47-4.473h76.29a4.479,4.479,0,0,1,4.473,4.473V339.818A4.479,4.479,0,0,1,170.785,344.291ZM94.494,233.645a2.091,2.091,0,0,0-2.086,2.089V339.818a2.091,2.091,0,0,0,2.086,2.089h76.29a2.092,2.092,0,0,0,2.089-2.089V235.734a2.091,2.091,0,0,0-2.089-2.089Z" transform="translate(-90.024 -231.261)"/><g transform="translate(0.345 14.215)"><path class="b" d="M173.8,238.135H91.327a1.192,1.192,0,1,1,0-2.384H173.8a1.192,1.192,0,0,1,0,2.384Z" transform="translate(-90.133 -235.751)"/></g><g transform="translate(25.536 6.348)"><path class="b" d="M99.28,243.438a1.192,1.192,0,0,1-1.19-1.194V234.46a1.19,1.19,0,1,1,2.381,0v7.785A1.192,1.192,0,0,1,99.28,243.438Z" transform="translate(-98.09 -233.266)"/></g><g transform="translate(6.8 21.012)"><path class="b" d="M123.159,270.079h-29.8a1.192,1.192,0,0,1-1.19-1.194V239.092a1.192,1.192,0,0,1,1.19-1.193h29.8a1.194,1.194,0,0,1,1.194,1.193v29.794A1.194,1.194,0,0,1,123.159,270.079Zm-28.6-2.384h27.413V240.282H94.556Z" transform="translate(-92.172 -237.898)"/></g><g transform="translate(45.955 21.046)"><path class="b" d="M134.653,240.293H105.73a1.192,1.192,0,0,1,0-2.384h28.923a1.192,1.192,0,0,1,0,2.384Z" transform="translate(-104.54 -237.909)"/></g><g transform="translate(45.955 31.06)"><path class="b" d="M134.653,243.456H105.73a1.192,1.192,0,0,1,0-2.384h28.923a1.192,1.192,0,0,1,0,2.384Z" transform="translate(-104.54 -241.072)"/></g><g transform="translate(45.955 40.912)"><path class="b" d="M134.653,246.568H105.73a1.192,1.192,0,0,1,0-2.384h28.923a1.192,1.192,0,0,1,0,2.384Z" transform="translate(-104.54 -244.184)"/></g><g transform="translate(45.955 50.923)"><path class="b" d="M134.653,249.73H105.73a1.192,1.192,0,0,1,0-2.384h28.923a1.192,1.192,0,0,1,0,2.384Z" transform="translate(-104.54 -247.346)"/></g><g transform="translate(6.864 61.253)"><path class="b" d="M161.4,252.993H93.382a1.192,1.192,0,0,1,0-2.384H161.4a1.192,1.192,0,0,1,0,2.384Z" transform="translate(-92.192 -250.609)"/></g><g transform="translate(6.864 71.583)"><path class="b" d="M161.4,256.256H93.382a1.192,1.192,0,0,1,0-2.384H161.4a1.192,1.192,0,0,1,0,2.384Z" transform="translate(-92.192 -253.872)"/></g><g transform="translate(6.864 82.071)"><path class="b" d="M161.4,259.566H93.382a1.19,1.19,0,0,1,0-2.381H161.4a1.19,1.19,0,0,1,0,2.381Z" transform="translate(-92.192 -257.185)"/></g><g transform="translate(6.864 92.398)"><path class="b" d="M161.4,262.831H93.382a1.192,1.192,0,0,1,0-2.384H161.4a1.192,1.192,0,0,1,0,2.384Z" transform="translate(-92.192 -260.447)"/></g><g transform="translate(6.864 102.728)"><path class="b" d="M161.4,266.094H93.382a1.192,1.192,0,0,1,0-2.384H161.4a1.192,1.192,0,0,1,0,2.384Z" transform="translate(-92.192 -263.71)"/></g><g transform="translate(6.799 21.014)"><path class="b" d="M123.16,270.077a1.192,1.192,0,0,1-.842-.348l-29.8-29.8a1.192,1.192,0,0,1,1.687-1.684L124,268.042a1.192,1.192,0,0,1-.842,2.036Z" transform="translate(-92.172 -237.899)"/></g><g transform="translate(6.799 21.014)"><path class="b" d="M93.363,270.077a1.192,1.192,0,0,1-.842-2.036l29.8-29.794A1.191,1.191,0,1,1,124,239.932l-29.794,29.8A1.2,1.2,0,0,1,93.363,270.077Z" transform="translate(-92.172 -237.899)"/></g><g transform="translate(6.243 4.166)"><path class="b" d="M95.333,239.254a3.338,3.338,0,1,1,3.337-3.337A3.341,3.341,0,0,1,95.333,239.254Zm0-4.293a.954.954,0,1,0,.956.956A.955.955,0,0,0,95.333,234.961Z" transform="translate(-91.996 -232.577)"/><g transform="translate(9.536)"><path class="b" d="M98.345,239.254a3.338,3.338,0,1,1,3.337-3.337A3.341,3.341,0,0,1,98.345,239.254Zm0-4.293a.954.954,0,1,0,.953.956A.955.955,0,0,0,98.345,234.961Z" transform="translate(-95.008 -232.577)"/></g></g><g transform="translate(90.755 72.659)"><path class="b" d="M267.03,386.823H125.412a6.729,6.729,0,0,1-6.721-6.718V260.93a6.729,6.729,0,0,1,6.721-6.718H267.03a6.726,6.726,0,0,1,6.718,6.718V380.1A6.726,6.726,0,0,1,267.03,386.823ZM125.412,256.6a4.341,4.341,0,0,0-4.337,4.334V380.1a4.341,4.341,0,0,0,4.337,4.334H267.03a4.338,4.338,0,0,0,4.334-4.334V260.93a4.338,4.338,0,0,0-4.334-4.334Z" transform="translate(-118.691 -254.212)"/><g transform="translate(11.78 24.507)"><path class="b" d="M251.376,315.117H123.606a1.192,1.192,0,0,1-1.194-1.19v-50.78a1.194,1.194,0,0,1,1.194-1.193h127.77a1.194,1.194,0,0,1,1.193,1.193v50.78A1.192,1.192,0,0,1,251.376,315.117ZM124.8,312.733H250.185v-48.4H124.8Z" transform="translate(-122.412 -261.953)"/></g><g transform="translate(1.285 13.065)"><path class="b" d="M270.779,260.723H120.287a1.192,1.192,0,0,1,0-2.384H270.779a1.192,1.192,0,0,1,0,2.384Z" transform="translate(-119.097 -258.339)"/></g><g transform="translate(32.51 0.75)"><path class="b" d="M130.15,268.911a1.194,1.194,0,0,1-1.19-1.193V255.639a1.192,1.192,0,0,1,2.384,0v12.078A1.194,1.194,0,0,1,130.15,268.911Z" transform="translate(-128.96 -254.449)"/></g><g transform="translate(7.164 6.867)"><path class="b" d="M126.912,258.765h-4.768a1.192,1.192,0,0,1,0-2.384h4.768a1.192,1.192,0,1,1,0,2.384Z" transform="translate(-120.954 -256.381)"/><g transform="translate(13.347)"><path class="b" d="M131.131,258.765h-4.768a1.192,1.192,0,1,1,0-2.384h4.768a1.192,1.192,0,0,1,0,2.384Z" transform="translate(-125.17 -256.381)"/></g></g><g transform="translate(37.04 4.483)"><path class="b" d="M209.29,258.012H131.581a1.192,1.192,0,0,1,0-2.384H209.29a1.192,1.192,0,0,1,0,2.384Z" transform="translate(-130.391 -255.628)"/><g transform="translate(0 4.609)"><path class="b" d="M147,259.468H131.581a1.192,1.192,0,0,1,0-2.384H147a1.192,1.192,0,1,1,0,2.384Z" transform="translate(-130.391 -257.084)"/></g></g><g transform="translate(11.897 30.326)"><path class="b" d="M123.642,306.8a1.19,1.19,0,0,1-.842-2.033l25.941-25.944a1.19,1.19,0,0,1,1.684,0l15.668,15.668,24.364-24.364a1.194,1.194,0,0,1,1.687,0l11.843,11.843,17.833-17.833a1.192,1.192,0,0,1,1.684,0L242.2,282.83l7.183-7.183a1.192,1.192,0,1,1,1.684,1.687l-8.025,8.025a1.192,1.192,0,0,1-1.684,0l-18.691-18.691L204.83,284.5a1.2,1.2,0,0,1-1.687,0L191.3,272.659l-24.364,24.364a1.194,1.194,0,0,1-1.687,0l-15.668-15.668-25.1,25.1A1.184,1.184,0,0,1,123.642,306.8Z" transform="translate(-122.449 -263.791)"/></g><g transform="translate(11.932 88.074)"><g transform="translate(0 7.626)"><path class="b" d="M148.759,286.825H123.65a1.192,1.192,0,0,1,0-2.384h25.108a1.192,1.192,0,1,1,0,2.384Z" transform="translate(-122.46 -284.441)"/></g><path class="b" d="M148.759,284.413H123.65a1.19,1.19,0,1,1,0-2.381h25.108a1.19,1.19,0,1,1,0,2.381Z" transform="translate(-122.46 -282.032)"/><g transform="translate(0 15.253)"><path class="b" d="M148.759,289.234H123.65a1.192,1.192,0,0,1,0-2.384h25.108a1.192,1.192,0,1,1,0,2.384Z" transform="translate(-122.46 -286.85)"/></g><g transform="translate(0 22.883)"><path class="b" d="M148.759,291.644H123.65a1.192,1.192,0,0,1,0-2.384h25.108a1.192,1.192,0,1,1,0,2.384Z" transform="translate(-122.46 -289.26)"/></g><g transform="translate(0 30.509)"><path class="b" d="M148.759,294.053H123.65a1.192,1.192,0,0,1,0-2.384h25.108a1.192,1.192,0,1,1,0,2.384Z" transform="translate(-122.46 -291.669)"/></g></g><g transform="translate(63.738 88.074)"><g transform="translate(0 7.626)"><path class="b" d="M165.123,286.825H140.014a1.192,1.192,0,0,1,0-2.384h25.108a1.192,1.192,0,0,1,0,2.384Z" transform="translate(-138.824 -284.441)"/></g><path class="b" d="M165.123,284.413H140.014a1.19,1.19,0,1,1,0-2.381h25.108a1.19,1.19,0,1,1,0,2.381Z" transform="translate(-138.824 -282.032)"/><g transform="translate(0 15.253)"><path class="b" d="M165.123,289.234H140.014a1.192,1.192,0,0,1,0-2.384h25.108a1.192,1.192,0,0,1,0,2.384Z" transform="translate(-138.824 -286.85)"/></g><g transform="translate(0 22.883)"><path class="b" d="M165.123,291.644H140.014a1.192,1.192,0,0,1,0-2.384h25.108a1.192,1.192,0,0,1,0,2.384Z" transform="translate(-138.824 -289.26)"/></g><g transform="translate(0 30.509)"><path class="b" d="M165.123,294.053H140.014a1.192,1.192,0,0,1,0-2.384h25.108a1.192,1.192,0,0,1,0,2.384Z" transform="translate(-138.824 -291.669)"/></g></g><g transform="translate(115.382 88.074)"><g transform="translate(0 7.626)"><path class="b" d="M181.439,286.825H156.331a1.192,1.192,0,1,1,0-2.384h25.108a1.192,1.192,0,0,1,0,2.384Z" transform="translate(-155.137 -284.441)"/></g><path class="b" d="M181.439,284.413H156.331a1.19,1.19,0,1,1,0-2.381h25.108a1.19,1.19,0,0,1,0,2.381Z" transform="translate(-155.137 -282.032)"/><g transform="translate(0 15.253)"><path class="b" d="M181.439,289.234H156.331a1.192,1.192,0,1,1,0-2.384h25.108a1.192,1.192,0,0,1,0,2.384Z" transform="translate(-155.137 -286.85)"/></g><g transform="translate(0 22.883)"><path class="b" d="M181.439,291.644H156.331a1.192,1.192,0,1,1,0-2.384h25.108a1.192,1.192,0,0,1,0,2.384Z" transform="translate(-155.137 -289.26)"/></g><g transform="translate(0 30.509)"><path class="b" d="M181.439,294.053H156.331a1.192,1.192,0,1,1,0-2.384h25.108a1.192,1.192,0,0,1,0,2.384Z" transform="translate(-155.137 -291.669)"/></g></g></g><g transform="translate(41.583 123.306)"><path class="b" d="M145.591,329.4H104.353a1.192,1.192,0,0,1-1.194-1.19V271.4a1.192,1.192,0,1,1,2.384,0v55.617h40.048a1.192,1.192,0,0,1,0,2.384Z" transform="translate(-103.159 -270.21)"/></g><g transform="translate(27.758 170.028)"><path class="b" d="M124.853,310.314H99.985a1.192,1.192,0,0,1-1.194-1.19V286.158a1.192,1.192,0,0,1,2.384,0V307.93h23.677a1.192,1.192,0,1,1,0,2.384Z" transform="translate(-98.792 -284.968)"/></g><g transform="translate(27.758 139.357)"><path class="b" d="M99.985,292.125a1.194,1.194,0,0,1-1.194-1.194V276.474a1.192,1.192,0,1,1,2.384,0v14.458A1.192,1.192,0,0,1,99.985,292.125Z" transform="translate(-98.792 -275.28)"/></g><g transform="translate(154.493 18.346)"><path class="b" d="M172.2,272.732a1.194,1.194,0,0,1-1.194-1.19v-32.1H140.014a1.192,1.192,0,0,1,0-2.384H172.2a1.191,1.191,0,0,1,1.19,1.19v33.3A1.191,1.191,0,0,1,172.2,272.732Z" transform="translate(-138.824 -237.056)"/></g><g transform="translate(124.934 18.346)"><path class="b" d="M145.934,239.44H130.681a1.192,1.192,0,1,1,0-2.384h15.253a1.192,1.192,0,1,1,0,2.384Z" transform="translate(-129.487 -237.056)"/></g><g transform="translate(104.593 31.218)"><g transform="translate(24.155)"><path class="b" d="M175.188,275.209a1.194,1.194,0,0,1-1.194-1.194V243.506H131.882a1.192,1.192,0,0,1,0-2.384h43.305a1.189,1.189,0,0,1,1.19,1.19v31.7A1.192,1.192,0,0,1,175.188,275.209Z" transform="translate(-130.692 -241.122)"/></g><path class="b" d="M135.7,243.506H124.252a1.192,1.192,0,0,1,0-2.384H135.7a1.192,1.192,0,0,1,0,2.384Z" transform="translate(-123.062 -241.122)"/></g><g transform="translate(210.189 36.648)"><path class="b" d="M163.278,261.981a1.747,1.747,0,0,1-1.168-2.178h0a1.751,1.751,0,0,1,2.181-1.168h0a1.747,1.747,0,0,1,1.165,2.178h0a1.747,1.747,0,0,1-1.672,1.244h0A1.757,1.757,0,0,1,163.278,261.981Zm4.5-1.308a1.747,1.747,0,0,1,.886-2.308h0a1.747,1.747,0,0,1,2.308.886h0a1.751,1.751,0,0,1-.886,2.308h0a1.765,1.765,0,0,1-.712.149h0A1.746,1.746,0,0,1,167.776,260.673Zm-9.928-2.818h0a1.746,1.746,0,0,1,.535-2.412h0a1.748,1.748,0,0,1,2.415.538h0a1.75,1.75,0,0,1-.538,2.412h0a1.757,1.757,0,0,1-.937.272h0A1.747,1.747,0,0,1,157.848,257.856Zm14.781-.228a1.748,1.748,0,0,1-.833-2.33h0v0h0a1.75,1.75,0,0,1,2.327-.836h0a1.748,1.748,0,0,1,.833,2.33h0a1.746,1.746,0,0,1-1.58,1h0A1.747,1.747,0,0,1,172.629,257.628Zm-14.721-4.458a1.746,1.746,0,0,1-1.472-1.985h0a1.743,1.743,0,0,1,1.982-1.472h0a1.745,1.745,0,0,1,1.475,1.982h0a1.745,1.745,0,0,1-1.725,1.494h0A1.818,1.818,0,0,1,157.908,253.17Zm14.259-2.235a1.752,1.752,0,0,1,1.219-2.153h0A1.752,1.752,0,0,1,175.539,250h0a1.751,1.751,0,0,1-1.219,2.153h0a1.828,1.828,0,0,1-.465.063h0A1.754,1.754,0,0,1,172.167,250.935Zm-12.625-3.258a1.746,1.746,0,0,1,.18-2.466h0a1.752,1.752,0,0,1,2.466.18h0a1.749,1.749,0,0,1-.184,2.466h0a1.74,1.74,0,0,1-1.14.424h0A1.735,1.735,0,0,1,159.542,247.678Zm10.055-.291a1.745,1.745,0,0,1-.481-2.425h0a1.745,1.745,0,0,1,2.422-.481h0a1.748,1.748,0,0,1,.484,2.425h0a1.753,1.753,0,0,1-1.456.776h0A1.737,1.737,0,0,1,169.6,247.386Zm-5.233-2.8a1.747,1.747,0,0,1,1.748-1.748h0a1.747,1.747,0,0,1,1.748,1.748h0a1.747,1.747,0,0,1-1.748,1.748h0A1.747,1.747,0,0,1,164.363,244.585Z" transform="translate(-156.417 -242.837)"/></g><g transform="translate(231.087 4.122)"><g transform="translate(0 4.052)"><path class="b" d="M172.633,236.547H164.37a1.352,1.352,0,0,1,0-2.7h8.263a1.352,1.352,0,0,1,0,2.7Z" transform="translate(-163.018 -233.843)"/></g><g transform="translate(4.052)"><path class="b" d="M165.65,243.529a1.351,1.351,0,0,1-1.352-1.352v-8.263a1.35,1.35,0,1,1,2.7,0v8.263A1.35,1.35,0,0,1,165.65,243.529Z" transform="translate(-164.298 -232.563)"/></g></g></svg>