<svg xmlns="http://www.w3.org/2000/svg" width="245.932" height="202.291" viewBox="0 0 245.932 202.291"><defs><style>.a{fill:#fcd118;}.b{fill:#55bfca;}.c{fill:#0d2d42;}</style></defs><g transform="translate(0 0)"><g transform="translate(2.114 1.164)"><g transform="translate(200.301 49.658)"><path class="a" d="M-4482.723-437.966a26.8,26.8,0,0,1-14.466-4.211C-4495.676-439.37-4489.2-437.966-4482.723-437.966Z" transform="translate(4497.189 442.178)"/></g><g transform="translate(214.768 49.658)"><path class="a" d="M-4389.527-442.178a26.811,26.811,0,0,1-14.467,4.211C-4397.517-437.966-4391.04-439.37-4389.527-442.178Z" transform="translate(4403.994 442.178)"/></g><g transform="translate(214.608 33.584)"><path class="a" d="M-4404.94-545.726v0h-.085Z" transform="translate(4405.025 545.729)"/></g><g transform="translate(214.692 33.584)"><path class="a" d="M-4404.481-545.726v0c.059,0,.115,0,.172,0l-.172,0Z" transform="translate(4404.481 545.729)"/></g><g transform="translate(214.692 179.511)"><path class="a" d="M-4404.481,394.33v.015c.136,0,.269-.005.4-.01-.133,0-.268-.006-.4-.006Z" transform="translate(4404.481 -394.33)"/></g><g transform="translate(214.211 199.8)"><path class="a" d="M-4407.045,525.036c-.179,0-.356,0-.535-.007C-4407.4,525.034-4407.223,525.036-4407.045,525.036Z" transform="translate(4407.58 -525.029)"/></g><g transform="translate(214.487 179.512)"><path class="a" d="M-4405.6,394.34v-.008l-.207,0C-4405.733,394.336-4405.665,394.34-4405.6,394.34Z" transform="translate(4405.803 -394.332)"/></g><g transform="translate(17.806 198.374)"><path class="a" d="M-5664.574,517.417a26.849,26.849,0,0,1-8.24-1.572A18.019,18.019,0,0,0-5664.574,517.417Z" transform="translate(5672.814 -515.845)"/></g><g transform="translate(26.861 179.667)"><path class="a" d="M-5614.48,395.33v.015c.134,0,.268-.005.4-.01-.132,0-.266-.006-.4-.006Z" transform="translate(5614.48 -395.33)"/></g><g transform="translate(26.656 179.667)"><path class="a" d="M-5615.6,395.34v-.008l-.206,0C-5615.734,395.336-5615.667,395.34-5615.6,395.34Z" transform="translate(5615.803 -395.332)"/></g><g transform="translate(26.861 33.584)"><path class="a" d="M-5614.48-545.729v.006c.056,0,.112,0,.169,0l-.169,0Z" transform="translate(5614.48 545.729)"/></g><g transform="translate(26.379 53.863)"><path class="a" d="M-5617.05-415.085c-.179,0-.355,0-.534-.007C-5617.4-415.088-5617.229-415.085-5617.05-415.085Z" transform="translate(5617.584 415.092)"/></g><g transform="translate(0 0)"><g transform="translate(187.833)"><path class="b" d="M-4550.573-762.074a26.935,26.935,0,0,0-26.935,26.935,26.912,26.912,0,0,0,12.469,22.723,2.661,2.661,0,0,1-.331-1.284,14.756,14.756,0,0,1,14.638-14.789,11.117,11.117,0,0,1-10.981-11.1,11.118,11.118,0,0,1,11.121-11.1,11.078,11.078,0,0,1,11.074,11.1,11.073,11.073,0,0,1-10.957,11.1,14.784,14.784,0,0,1,14.7,14.788,2.663,2.663,0,0,1-.333,1.284,26.912,26.912,0,0,0,12.468-22.723A26.935,26.935,0,0,0-4550.573-762.074Z" transform="translate(4577.507 762.074)"/></g><g transform="translate(187.833 145.937)"><path class="b" d="M-4550.573,178.047a26.935,26.935,0,0,0-26.935,26.935,26.935,26.935,0,0,0,26.377,26.928q-7.135-.183-14.277-5.507a14.884,14.884,0,0,1,14.555-14.778,11.116,11.116,0,0,1-10.86-11.093,11.117,11.117,0,0,1,11.121-11.1,11.079,11.079,0,0,1,11.074,11.1,11.072,11.072,0,0,1-10.729,11.093,14.828,14.828,0,0,1,14.414,14.776q-7.385,5.505-14.762,5.514h.022a26.935,26.935,0,0,0,26.935-26.935A26.935,26.935,0,0,0-4550.573,178.047Z" transform="translate(4577.507 -178.047)"/></g><g transform="translate(0 146.092)"><path class="b" d="M-5760.584,179.047a26.934,26.934,0,0,0-26.934,26.935,26.944,26.944,0,0,0,17.806,25.347,20.591,20.591,0,0,1-5.706-3.926,14.883,14.883,0,0,1,14.555-14.778,11.118,11.118,0,0,1-10.861-11.093,11.117,11.117,0,0,1,11.122-11.1,11.08,11.08,0,0,1,11.075,11.1,11.073,11.073,0,0,1-10.728,11.093,14.829,14.829,0,0,1,14.413,14.776q-8.544,5.227-15.63,5.5c.294.009.59.016.888.016a26.936,26.936,0,0,0,26.936-26.935A26.936,26.936,0,0,0-5760.584,179.047Z" transform="translate(5787.519 -179.047)"/></g><path class="b" d="M-5760.584-762.074a26.934,26.934,0,0,0-26.934,26.935,26.934,26.934,0,0,0,26.379,26.928q-7.137-.183-14.278-5.489a14.789,14.789,0,0,1,14.677-14.789,11.12,11.12,0,0,1-10.983-11.1,11.118,11.118,0,0,1,11.122-11.1,11.079,11.079,0,0,1,11.075,11.1,11.074,11.074,0,0,1-10.96,11.1,14.734,14.734,0,0,1,14.645,14.788q-7.387,5.487-14.763,5.5h.021a26.936,26.936,0,0,0,26.936-26.935A26.936,26.936,0,0,0-5760.584-762.074Z" transform="translate(5787.519 762.074)"/></g><g transform="translate(26.777 33.584)"><path class="a" d="M-5614.94-545.726v0h-.084Z" transform="translate(5615.024 545.729)"/></g></g><g transform="translate(0)"><g transform="translate(75.115 49.842)"><path class="c" d="M-5270.244-448.5a46.7,46.7,0,0,0-33.24,13.769,46.705,46.705,0,0,0-13.768,33.24,46.705,46.705,0,0,0,13.768,33.24,46.7,46.7,0,0,0,33.24,13.768A46.7,46.7,0,0,0-5237-368.247a46.7,46.7,0,0,0,13.769-33.24A46.7,46.7,0,0,0-5237-434.727,46.7,46.7,0,0,0-5270.244-448.5Zm0,91.689a44.73,44.73,0,0,1-44.679-44.68,44.731,44.731,0,0,1,44.679-44.68,44.73,44.73,0,0,1,44.681,44.68A44.73,44.73,0,0,1-5270.244-356.807Z" transform="translate(5317.251 448.496)"/><g transform="translate(13.067 12.046)"><g transform="translate(15.62 20.483)"><path class="c" d="M-5096.828-238.949a1.164,1.164,0,0,0-1.164,1.164v11.038a8.34,8.34,0,0,1-2.5,5.919l-7.917,7.852a3.908,3.908,0,0,1-2.793,1.115h-5.854a3.894,3.894,0,0,1-2.781-1.116l-7.853-7.825a8.334,8.334,0,0,1-2.432-5.944v-7.623a1.167,1.167,0,0,0-1.166-1.164,1.166,1.166,0,0,0-1.165,1.164v7.623a10.646,10.646,0,0,0,3.118,7.592l7.853,7.826a6.2,6.2,0,0,0,4.426,1.8h5.854a6.215,6.215,0,0,0,4.437-1.794l7.917-7.852a10.665,10.665,0,0,0,3.187-7.569v-11.038A1.164,1.164,0,0,0-5096.828-238.949Z" transform="translate(5132.455 238.949)"/></g><g transform="translate(0 42.06)"><g transform="translate(43.717)"><path class="c" d="M-4937.062-84.243l-8.587-2.048a4.573,4.573,0,0,1-3.479-4.5v-7.992a1.164,1.164,0,0,0-1.165-1.164,1.164,1.164,0,0,0-1.163,1.164v7.992a6.891,6.891,0,0,0,5.268,6.767l8.6,2.05c5.036,1.146,7.479,3.068,8.165,6.426a1.167,1.167,0,0,0,1.14.931,1.177,1.177,0,0,0,.235-.024,1.164,1.164,0,0,0,.906-1.374C-4928.277-81.567-4933.046-83.33-4937.062-84.243Z" transform="translate(4951.455 99.949)"/></g><path class="c" d="M-5209.774-99.949a1.163,1.163,0,0,0-1.163,1.164v7.992a4.7,4.7,0,0,1-3.61,4.5l-8.648,2.041c-6.344,1.144-8.833,3.224-9.858,8.234a1.163,1.163,0,0,0,.907,1.374,1.182,1.182,0,0,0,.235.024,1.163,1.163,0,0,0,1.138-.931c.748-3.642,2.025-5.338,8.019-6.414l.063-.013,8.681-2.048a7.045,7.045,0,0,0,5.4-6.768v-7.992A1.165,1.165,0,0,0-5209.774-99.949Z" transform="translate(5233.076 99.949)"/></g><g transform="translate(12.066)"><path class="c" d="M-5125.2-368.915a12.8,12.8,0,0,0-4.295.737,1.049,1.049,0,0,0-.129.055c-3.3-2.428-7.548-2.776-10.781-2.776a13.843,13.843,0,0,0-10.946,4.955,15.061,15.061,0,0,0-3.551,9.388,8.129,8.129,0,0,0,1,3.733c.736,1.538,1.224,2.553-1.215,5.78a1.164,1.164,0,0,0-.166,1.1,1.161,1.161,0,0,0,.828.738,19.442,19.442,0,0,0,4.428.543c6.264,0,9.952-3.6,13.02-6.59,2.788-2.72,5.019-4.9,8.484-4.465,1.274,2.357,3.93,3.459,6.508,4.526a19.038,19.038,0,0,1,5.407,2.948,1.162,1.162,0,0,0,.892.287,1.168,1.168,0,0,0,.813-.462,12.728,12.728,0,0,0,2.536-7.662A12.846,12.846,0,0,0-5125.2-368.915Zm9.089,18.1a25.341,25.341,0,0,0-5.015-2.531c-2.56-1.062-4.773-1.979-5.526-3.859a1.162,1.162,0,0,0-.853-.709c-5-.995-8.115,2.048-11.129,4.99-3.389,3.307-6.885,6.719-13.585,5.769,1.866-3.046,1.348-4.732.417-6.676a5.886,5.886,0,0,1-.772-2.727c0-4.846,3.868-12.015,12.169-12.015,6.023,0,9.625,1.483,11.681,4.809a1.166,1.166,0,0,0,1.6.378,1.167,1.167,0,0,0,.378-1.6,11.463,11.463,0,0,0-.939-1.306,10.546,10.546,0,0,1,2.481-.294,10.516,10.516,0,0,1,10.5,10.5A10.384,10.384,0,0,1-5116.107-350.812Z" transform="translate(5155.35 370.899)"/></g></g><g transform="translate(29.851 68.465)"><path class="c" d="M-5091.658-7.449a1.164,1.164,0,0,0-1.164,1.164c0,.686-1.093,1.714-4.161,2.544a43.813,43.813,0,0,1-10.742,1.182,43.819,43.819,0,0,1-10.741-1.182c-3.07-.83-4.162-1.858-4.162-2.544a1.164,1.164,0,0,0-1.164-1.164,1.164,1.164,0,0,0-1.164,1.164c0,2.124,1.979,3.736,5.881,4.791a45.5,45.5,0,0,0,11.349,1.263,45.51,45.51,0,0,0,11.349-1.263c3.9-1.056,5.881-2.668,5.881-4.791A1.164,1.164,0,0,0-5091.658-7.449Z" transform="translate(5124.954 7.449)"/></g></g><g transform="translate(188.787)"><path class="c" d="M-4556.881-769.574a28.13,28.13,0,0,0-28.1,28.1,28.131,28.131,0,0,0,28.1,28.1,28.13,28.13,0,0,0,28.1-28.1A28.129,28.129,0,0,0-4556.881-769.574Zm0,53.87a25.8,25.8,0,0,1-25.771-25.771,25.8,25.8,0,0,1,25.771-25.771,25.8,25.8,0,0,1,25.771,25.771A25.8,25.8,0,0,1-4556.881-715.7Z" transform="translate(4584.98 769.574)"/><g transform="translate(12.138 11.385)"><g transform="translate(3.694)"><path class="c" d="M-4470.724-696.232a12.281,12.281,0,0,0-12.267,12.267,12.281,12.281,0,0,0,12.267,12.267,12.28,12.28,0,0,0,12.267-12.267A12.28,12.28,0,0,0-4470.724-696.232Zm0,22.205a9.95,9.95,0,0,1-9.938-9.938,9.95,9.95,0,0,1,9.938-9.938,9.949,9.949,0,0,1,9.938,9.938A9.949,9.949,0,0,1-4470.724-674.027Z" transform="translate(4482.991 696.232)"/></g><g transform="translate(0 22.205)"><path class="c" d="M-4490.828-553.188a15.979,15.979,0,0,0-15.962,15.961,1.163,1.163,0,0,0,1.164,1.164,1.164,1.164,0,0,0,1.164-1.164,13.649,13.649,0,0,1,13.634-13.633,13.648,13.648,0,0,1,13.631,13.633,1.165,1.165,0,0,0,1.163,1.164,1.165,1.165,0,0,0,1.166-1.164A15.979,15.979,0,0,0-4490.828-553.188Z" transform="translate(4506.79 553.188)"/></g></g></g><g transform="translate(188.787 145.937)"><path class="c" d="M-4556.881,170.547a28.13,28.13,0,0,0-28.1,28.1,28.131,28.131,0,0,0,28.1,28.1,28.13,28.13,0,0,0,28.1-28.1A28.13,28.13,0,0,0-4556.881,170.547Zm0,53.87a25.8,25.8,0,0,1-25.771-25.771,25.8,25.8,0,0,1,25.771-25.771,25.8,25.8,0,0,1,25.771,25.771A25.8,25.8,0,0,1-4556.881,224.417Z" transform="translate(4584.98 -170.547)"/><g transform="translate(12.138 11.385)"><g transform="translate(3.694)"><path class="c" d="M-4470.724,243.889a12.281,12.281,0,0,0-12.267,12.267,12.281,12.281,0,0,0,12.267,12.267,12.28,12.28,0,0,0,12.267-12.267A12.28,12.28,0,0,0-4470.724,243.889Zm0,22.205a9.95,9.95,0,0,1-9.938-9.938,9.95,9.95,0,0,1,9.938-9.938,9.949,9.949,0,0,1,9.938,9.938A9.949,9.949,0,0,1-4470.724,266.094Z" transform="translate(4482.991 -243.889)"/></g><g transform="translate(0 22.205)"><path class="c" d="M-4490.828,386.934A15.979,15.979,0,0,0-4506.79,402.9a1.163,1.163,0,0,0,1.164,1.164,1.164,1.164,0,0,0,1.164-1.164,13.649,13.649,0,0,1,13.634-13.633A13.648,13.648,0,0,1-4477.2,402.9a1.165,1.165,0,0,0,1.163,1.164,1.166,1.166,0,0,0,1.166-1.164A15.979,15.979,0,0,0-4490.828,386.934Z" transform="translate(4506.79 -386.934)"/></g></g></g><g transform="translate(0.954 146.092)"><path class="c" d="M-5766.9,171.547a28.129,28.129,0,0,0-28.1,28.1,28.13,28.13,0,0,0,28.1,28.1,28.131,28.131,0,0,0,28.1-28.1A28.131,28.131,0,0,0-5766.9,171.547Zm0,53.87a25.8,25.8,0,0,1-25.77-25.771,25.8,25.8,0,0,1,25.77-25.771,25.8,25.8,0,0,1,25.772,25.771A25.8,25.8,0,0,1-5766.9,225.417Z" transform="translate(5794.992 -171.547)"/><g transform="translate(12.138 11.385)"><g transform="translate(3.694)"><path class="c" d="M-5680.734,244.889A12.281,12.281,0,0,0-5693,257.156a12.281,12.281,0,0,0,12.268,12.267,12.28,12.28,0,0,0,12.267-12.267A12.28,12.28,0,0,0-5680.734,244.889Zm0,22.205a9.95,9.95,0,0,1-9.938-9.938,9.95,9.95,0,0,1,9.938-9.938,9.95,9.95,0,0,1,9.938,9.938A9.95,9.95,0,0,1-5680.734,267.094Z" transform="translate(5693.002 -244.889)"/></g><g transform="translate(0 22.205)"><path class="c" d="M-5700.839,387.934A15.979,15.979,0,0,0-5716.8,403.9a1.164,1.164,0,0,0,1.163,1.164,1.165,1.165,0,0,0,1.165-1.164,13.649,13.649,0,0,1,13.633-13.633,13.648,13.648,0,0,1,13.632,13.633,1.164,1.164,0,0,0,1.165,1.164,1.163,1.163,0,0,0,1.163-1.164A15.978,15.978,0,0,0-5700.839,387.934Z" transform="translate(5716.8 -387.934)"/></g></g></g><g transform="translate(0.954)"><path class="c" d="M-5766.9-769.574a28.129,28.129,0,0,0-28.1,28.1,28.129,28.129,0,0,0,28.1,28.1,28.131,28.131,0,0,0,28.1-28.1A28.131,28.131,0,0,0-5766.9-769.574Zm0,53.87a25.8,25.8,0,0,1-25.77-25.771,25.8,25.8,0,0,1,25.77-25.771,25.8,25.8,0,0,1,25.772,25.771A25.8,25.8,0,0,1-5766.9-715.7Z" transform="translate(5794.992 769.574)"/><g transform="translate(12.138 11.385)"><g transform="translate(3.694)"><path class="c" d="M-5680.734-696.232A12.281,12.281,0,0,0-5693-683.965a12.281,12.281,0,0,0,12.268,12.267,12.28,12.28,0,0,0,12.267-12.267A12.28,12.28,0,0,0-5680.734-696.232Zm0,22.205a9.95,9.95,0,0,1-9.938-9.938,9.95,9.95,0,0,1,9.938-9.938,9.95,9.95,0,0,1,9.938,9.938A9.95,9.95,0,0,1-5680.734-674.027Z" transform="translate(5693.002 696.232)"/></g><g transform="translate(0 22.205)"><path class="c" d="M-5700.839-553.188a15.979,15.979,0,0,0-15.961,15.961,1.163,1.163,0,0,0,1.163,1.164,1.164,1.164,0,0,0,1.165-1.164,13.649,13.649,0,0,1,13.633-13.633,13.648,13.648,0,0,1,13.632,13.633,1.164,1.164,0,0,0,1.165,1.164,1.163,1.163,0,0,0,1.163-1.164A15.978,15.978,0,0,0-5700.839-553.188Z" transform="translate(5716.8 553.188)"/></g></g></g><g transform="translate(54.824 126.129)"><path class="c" d="M-5427.662,43.283l-19.964,19.964a1.163,1.163,0,0,0,0,1.646,1.16,1.16,0,0,0,.823.341,1.162,1.162,0,0,0,.824-.341l19.964-19.963a1.162,1.162,0,0,0,0-1.647A1.165,1.165,0,0,0-5427.662,43.283Z" transform="translate(5447.967 -42.942)"/></g><g transform="translate(50.796 49.842)"><path class="c" d="M-5471.927-448.155a1.162,1.162,0,0,0-1.645,0,1.162,1.162,0,0,0,0,1.646l20.706,20.708a1.163,1.163,0,0,0,.824.341,1.163,1.163,0,0,0,.824-.341,1.164,1.164,0,0,0,0-1.646Z" transform="translate(5473.913 448.496)"/></g><g transform="translate(170.325 50.214)"><path class="c" d="M-4683.609-445.756l-19.964,19.963a1.164,1.164,0,0,0,0,1.647,1.164,1.164,0,0,0,.823.341,1.165,1.165,0,0,0,.824-.341l19.963-19.964a1.165,1.165,0,0,0,0-1.646A1.164,1.164,0,0,0-4683.609-445.756Z" transform="translate(4703.915 446.097)"/></g><g transform="translate(173.608 125.757)"><path class="c" d="M-4680.776,40.885a1.164,1.164,0,0,0-1.646,0,1.166,1.166,0,0,0,0,1.647l20.709,20.708a1.16,1.16,0,0,0,.823.341,1.164,1.164,0,0,0,.824-.341,1.166,1.166,0,0,0,0-1.646Z" transform="translate(4682.763 -40.544)"/></g><g transform="translate(0 85.315)"><g transform="translate(13.995 8.083)"><path class="c" d="M-5680.616-167.907a1.165,1.165,0,0,0-1.164,1.164v13.5a3.087,3.087,0,0,1-3.083,3.083h-24.953a1.165,1.165,0,0,0-1.166,1.164,1.165,1.165,0,0,0,1.166,1.164h24.953a5.417,5.417,0,0,0,5.411-5.411v-13.5A1.164,1.164,0,0,0-5680.616-167.907Z" transform="translate(5710.981 167.907)"/></g><g transform="translate(39.502 0)"><path class="c" d="M-5541.727-219.979a4.951,4.951,0,0,0-4.946,4.945,4.951,4.951,0,0,0,4.946,4.945,4.951,4.951,0,0,0,4.945-4.945A4.951,4.951,0,0,0-5541.727-219.979Zm0,7.561a2.619,2.619,0,0,1-2.616-2.616,2.619,2.619,0,0,1,2.616-2.616,2.619,2.619,0,0,1,2.616,2.616A2.619,2.619,0,0,1-5541.727-212.418Z" transform="translate(5546.672 219.979)"/></g><g transform="translate(0 3.504)"><g transform="translate(3.866)"><path class="c" d="M-5745.869-197.407h-24.954a5.417,5.417,0,0,0-5.412,5.412v13.5a1.164,1.164,0,0,0,1.164,1.164,1.164,1.164,0,0,0,1.165-1.164V-192a3.087,3.087,0,0,1,3.083-3.083h24.954a1.163,1.163,0,0,0,1.163-1.164A1.163,1.163,0,0,0-5745.869-197.407Z" transform="translate(5776.235 197.407)"/></g><g transform="translate(0 18.268)"><path class="c" d="M-5796.194-79.727a4.951,4.951,0,0,0-4.945,4.945,4.951,4.951,0,0,0,4.945,4.945,4.951,4.951,0,0,0,4.945-4.945A4.951,4.951,0,0,0-5796.194-79.727Zm0,7.561a2.619,2.619,0,0,1-2.616-2.616,2.619,2.619,0,0,1,2.616-2.616,2.619,2.619,0,0,1,2.617,2.616A2.619,2.619,0,0,1-5796.194-72.166Z" transform="translate(5801.139 79.727)"/></g></g></g><g transform="translate(197.262 76.729)"><g transform="translate(5.859 8.695)"><g transform="translate(2.667)"><path class="c" d="M-4460.088-219.273a15.386,15.386,0,0,0-15.37,15.369,1.164,1.164,0,0,0,1.165,1.164,1.165,1.165,0,0,0,1.165-1.164,13.054,13.054,0,0,1,13.041-13.04,13.054,13.054,0,0,1,13.039,13.04,13.054,13.054,0,0,1-13.039,13.04,12.972,12.972,0,0,1-11.1-6.183,1.164,1.164,0,0,0-1.6-.376,1.165,1.165,0,0,0-.378,1.6,15.291,15.291,0,0,0,13.076,7.285,15.385,15.385,0,0,0,15.366-15.369A15.385,15.385,0,0,0-4460.088-219.273Z" transform="translate(4475.458 219.273)"/></g><g transform="translate(0 11.168)"><path class="c" d="M-4486.562-146.647l-2.16,1.877-1.876-2.159a1.165,1.165,0,0,0-1.643-.115,1.164,1.164,0,0,0-.114,1.643l2.64,3.038a1.164,1.164,0,0,0,.88.4,1.166,1.166,0,0,0,.764-.286l3.036-2.641a1.163,1.163,0,0,0,.115-1.643A1.163,1.163,0,0,0-4486.562-146.647Z" transform="translate(4492.642 147.33)"/></g></g><path class="c" d="M-4482.882-252.106a1.165,1.165,0,0,0-1.165,1.164,22.03,22.03,0,0,1-22.005,22,22.034,22.034,0,0,1-22.006-22.014,22.035,22.035,0,0,1,22.013-22.005,1.165,1.165,0,0,0,1.165-1.164,1.165,1.165,0,0,0-1.165-1.164,24.366,24.366,0,0,0-24.342,24.334,24.367,24.367,0,0,0,24.335,24.342,24.19,24.19,0,0,0,17.207-7.107,24.171,24.171,0,0,0,7.128-17.225A1.164,1.164,0,0,0-4482.882-252.106Z" transform="translate(4530.387 275.286)"/></g><g transform="translate(73.609 172.948)"><path class="c" d="M-5181.91,344.551h-3.879a1.165,1.165,0,0,0-1.166,1.164,1.165,1.165,0,0,0,1.166,1.164h3.879a1.164,1.164,0,0,0,1.165-1.164A1.164,1.164,0,0,0-5181.91,344.551Z" transform="translate(5208.687 -344.551)"/><path class="c" d="M-5111.909,344.551h-3.881a1.165,1.165,0,0,0-1.165,1.164,1.165,1.165,0,0,0,1.165,1.164h3.881a1.165,1.165,0,0,0,1.165-1.164A1.165,1.165,0,0,0-5111.909,344.551Z" transform="translate(5149.553 -344.551)"/><path class="c" d="M-5251.91,344.551h-3.881a1.164,1.164,0,0,0-1.163,1.164,1.164,1.164,0,0,0,1.163,1.164h3.881a1.164,1.164,0,0,0,1.165-1.164A1.164,1.164,0,0,0-5251.91,344.551Z" transform="translate(5267.82 -344.551)"/><path class="c" d="M-5321.909,344.551h-3.88a1.165,1.165,0,0,0-1.166,1.164,1.165,1.165,0,0,0,1.166,1.164h3.88a1.164,1.164,0,0,0,1.164-1.164A1.164,1.164,0,0,0-5321.909,344.551Z" transform="translate(5326.954 -344.551)"/><path class="c" d="M-5041.909,344.551h-3.882a1.163,1.163,0,0,0-1.164,1.164,1.163,1.163,0,0,0,1.164,1.164h3.882a1.164,1.164,0,0,0,1.164-1.164A1.164,1.164,0,0,0-5041.909,344.551Z" transform="translate(5090.419 -344.551)"/><path class="c" d="M-4831.911,344.551h-3.879a1.164,1.164,0,0,0-1.164,1.164,1.164,1.164,0,0,0,1.164,1.164h3.879a1.165,1.165,0,0,0,1.166-1.164A1.165,1.165,0,0,0-4831.911,344.551Z" transform="translate(4913.018 -344.551)"/><path class="c" d="M-4761.91,344.551h-3.88a1.165,1.165,0,0,0-1.165,1.164,1.165,1.165,0,0,0,1.165,1.164h3.88a1.165,1.165,0,0,0,1.166-1.164A1.165,1.165,0,0,0-4761.91,344.551Z" transform="translate(4853.886 -344.551)"/><path class="c" d="M-4901.91,344.551h-3.881a1.164,1.164,0,0,0-1.164,1.164,1.164,1.164,0,0,0,1.164,1.164h3.881a1.164,1.164,0,0,0,1.164-1.164A1.164,1.164,0,0,0-4901.91,344.551Z" transform="translate(4972.153 -344.551)"/><path class="c" d="M-4971.909,344.551h-3.882a1.165,1.165,0,0,0-1.164,1.164,1.165,1.165,0,0,0,1.164,1.164h3.882a1.163,1.163,0,0,0,1.163-1.164A1.163,1.163,0,0,0-4971.909,344.551Z" transform="translate(5031.287 -344.551)"/></g><g transform="translate(73.609 26.875)"><path class="c" d="M-5181.91-596.449h-3.879a1.165,1.165,0,0,0-1.166,1.164,1.165,1.165,0,0,0,1.166,1.164h3.879a1.164,1.164,0,0,0,1.165-1.164A1.164,1.164,0,0,0-5181.91-596.449Z" transform="translate(5208.687 596.449)"/><path class="c" d="M-5251.91-596.449h-3.881a1.164,1.164,0,0,0-1.163,1.164,1.164,1.164,0,0,0,1.163,1.164h3.881a1.164,1.164,0,0,0,1.165-1.164A1.164,1.164,0,0,0-5251.91-596.449Z" transform="translate(5267.82 596.449)"/><path class="c" d="M-5111.909-596.449h-3.881a1.165,1.165,0,0,0-1.165,1.164,1.165,1.165,0,0,0,1.165,1.164h3.881a1.165,1.165,0,0,0,1.165-1.164A1.165,1.165,0,0,0-5111.909-596.449Z" transform="translate(5149.553 596.449)"/><path class="c" d="M-5321.909-596.449h-3.88a1.165,1.165,0,0,0-1.166,1.164,1.165,1.165,0,0,0,1.166,1.164h3.88a1.164,1.164,0,0,0,1.164-1.164A1.164,1.164,0,0,0-5321.909-596.449Z" transform="translate(5326.954 596.449)"/><path class="c" d="M-4901.91-596.449h-3.881a1.164,1.164,0,0,0-1.164,1.164,1.164,1.164,0,0,0,1.164,1.164h3.881a1.164,1.164,0,0,0,1.164-1.164A1.164,1.164,0,0,0-4901.91-596.449Z" transform="translate(4972.153 596.449)"/><path class="c" d="M-4831.911-596.449h-3.879a1.164,1.164,0,0,0-1.164,1.164,1.164,1.164,0,0,0,1.164,1.164h3.879a1.165,1.165,0,0,0,1.166-1.164A1.165,1.165,0,0,0-4831.911-596.449Z" transform="translate(4913.018 596.449)"/><path class="c" d="M-5041.909-596.449h-3.882a1.163,1.163,0,0,0-1.164,1.164,1.163,1.163,0,0,0,1.164,1.164h3.882a1.164,1.164,0,0,0,1.164-1.164A1.164,1.164,0,0,0-5041.909-596.449Z" transform="translate(5090.419 596.449)"/><path class="c" d="M-4761.91-596.449h-3.88a1.165,1.165,0,0,0-1.165,1.164,1.165,1.165,0,0,0,1.165,1.164h3.88a1.165,1.165,0,0,0,1.166-1.164A1.165,1.165,0,0,0-4761.91-596.449Z" transform="translate(4853.886 596.449)"/><path class="c" d="M-4971.909-596.449h-3.882a1.165,1.165,0,0,0-1.164,1.164,1.165,1.165,0,0,0,1.164,1.164h3.882a1.163,1.163,0,0,0,1.163-1.164A1.163,1.163,0,0,0-4971.909-596.449Z" transform="translate(5031.287 596.449)"/></g><g transform="translate(176.838 78.8)"><g transform="translate(3.337 0)"><path class="c" d="M-4639.291-261.949a1.165,1.165,0,0,0-1.165,1.164v6.986a1.165,1.165,0,0,0,1.165,1.164,1.164,1.164,0,0,0,1.165-1.164v-6.986A1.164,1.164,0,0,0-4639.291-261.949Z" transform="translate(4640.455 261.949)"/></g><g transform="translate(0 3.648)"><path class="c" d="M-4653.805-238.449h-6.984a1.164,1.164,0,0,0-1.165,1.164,1.164,1.164,0,0,0,1.165,1.164h6.984a1.163,1.163,0,0,0,1.163-1.164A1.163,1.163,0,0,0-4653.805-238.449Z" transform="translate(4661.954 238.449)"/></g></g><g transform="translate(77.8 148.965)"><g transform="translate(3.337 0)"><path class="c" d="M-5277.291,190.051a1.164,1.164,0,0,0-1.164,1.164V198.2a1.164,1.164,0,0,0,1.164,1.164,1.164,1.164,0,0,0,1.165-1.164v-6.985A1.164,1.164,0,0,0-5277.291,190.051Z" transform="translate(5278.455 -190.051)"/></g><g transform="translate(0 3.648)"><path class="c" d="M-5291.806,213.551h-6.985a1.164,1.164,0,0,0-1.164,1.164,1.164,1.164,0,0,0,1.164,1.164h6.985a1.164,1.164,0,0,0,1.165-1.164A1.164,1.164,0,0,0-5291.806,213.551Z" transform="translate(5299.955 -213.551)"/></g></g><g transform="translate(117.074 1.96)"><g transform="translate(3.337)"><path class="c" d="M-5024.289-756.949a1.165,1.165,0,0,0-1.166,1.164v6.985a1.165,1.165,0,0,0,1.166,1.164,1.165,1.165,0,0,0,1.164-1.164v-6.985A1.165,1.165,0,0,0-5024.289-756.949Z" transform="translate(5025.455 756.949)"/></g><g transform="translate(0 3.648)"><path class="c" d="M-5038.8-733.449h-6.986a1.163,1.163,0,0,0-1.164,1.164,1.163,1.163,0,0,0,1.164,1.164h6.986a1.164,1.164,0,0,0,1.164-1.164A1.164,1.164,0,0,0-5038.8-733.449Z" transform="translate(5046.955 733.449)"/></g></g><g transform="translate(39.584 122.892)"><path class="c" d="M-5531.778,100.766a1.552,1.552,0,0,0,.042,2.195,1.546,1.546,0,0,0,1.077.435,1.543,1.543,0,0,0,1.117-.475,1.552,1.552,0,0,0-.041-2.195A1.552,1.552,0,0,0-5531.778,100.766Z" transform="translate(5534.374 -88.151)"/><path class="c" d="M-5531.472,38.712a1.549,1.549,0,0,0,1.106-.461,1.554,1.554,0,0,0-.014-2.2,1.551,1.551,0,0,0-2.194.014,1.549,1.549,0,0,0,.014,2.195A1.534,1.534,0,0,0-5531.472,38.712Z" transform="translate(5535.058 -33.509)"/><path class="c" d="M-5543.033,69.83a1.571,1.571,0,0,0-1.57-1.555,1.528,1.528,0,0,0-1.533,1.6h0a1.619,1.619,0,0,0,1.552,1.552h.02A1.563,1.563,0,0,0-5543.033,69.83Z" transform="translate(5546.136 -61.106)"/><path class="c" d="M-5499.013,25.2a1.552,1.552,0,0,0,1.552-1.552A1.591,1.591,0,0,0-5499,22.093v0a1.521,1.521,0,0,0-1.569,1.552A1.551,1.551,0,0,0-5499.013,25.2Z" transform="translate(5507.64 -22.091)"/><path class="c" d="M-5453.761,65.773a1.54,1.54,0,0,0-1.493,1.6,1.532,1.532,0,0,0,1.548,1.472h.061a1.52,1.52,0,0,0,1.493-1.593A1.537,1.537,0,0,0-5453.761,65.773Z" transform="translate(5469.363 -58.991)"/><path class="c" d="M-5467.126,99.16a1.551,1.551,0,0,0,.069,2.195,1.544,1.544,0,0,0,1.062.421,1.553,1.553,0,0,0,1.133-.489,1.557,1.557,0,0,0-.068-2.195A1.555,1.555,0,0,0-5467.126,99.16Z" transform="translate(5479.747 -86.783)"/><path class="c" d="M-5498.026,112.888a1.537,1.537,0,0,0-1.514,1.573,1.522,1.522,0,0,0,1.549,1.479h.04a1.517,1.517,0,0,0,1.515-1.564A1.531,1.531,0,0,0-5498.026,112.888Z" transform="translate(5506.773 -98.793)"/><path class="c" d="M-5468.429,37.136a1.544,1.544,0,0,0,1.145-.5,1.548,1.548,0,0,0-.1-2.192,1.552,1.552,0,0,0-2.193.095,1.55,1.55,0,0,0,.1,2.193A1.543,1.543,0,0,0-5468.429,37.136Z" transform="translate(5481.803 -32.178)"/></g><g transform="translate(161.131 138.415)"><path class="c" d="M-4748.781,200.789a1.559,1.559,0,0,0,.041,2.2h0a1.461,1.461,0,0,0,1.077.431,1.555,1.555,0,0,0,1.117-.479,1.552,1.552,0,0,0-.041-2.194A1.552,1.552,0,0,0-4748.781,200.789Z" transform="translate(4751.376 -188.17)"/><path class="c" d="M-4760.033,169.787a1.572,1.572,0,0,0-1.571-1.559,1.567,1.567,0,0,0-1.533,1.588,1.582,1.582,0,0,0,1.553,1.567h.02A1.567,1.567,0,0,0-4760.033,169.787Z" transform="translate(4763.137 -161.066)"/><path class="c" d="M-4748.47,138.712a1.549,1.549,0,0,0,1.1-.461,1.553,1.553,0,0,0-.013-2.2,1.554,1.554,0,0,0-2.2.014,1.553,1.553,0,0,0,.017,2.195A1.538,1.538,0,0,0-4748.47,138.712Z" transform="translate(4752.057 -133.509)"/><path class="c" d="M-4716.012,125.2a1.551,1.551,0,0,0,1.551-1.552,1.591,1.591,0,0,0-1.534-1.551v0a1.52,1.52,0,0,0-1.569,1.552A1.55,1.55,0,0,0-4716.012,125.2Z" transform="translate(4724.639 -122.091)"/><path class="c" d="M-4684.127,199.16a1.554,1.554,0,0,0,.068,2.195,1.553,1.553,0,0,0,1.064.421,1.551,1.551,0,0,0,1.131-.489,1.554,1.554,0,0,0-.068-2.195A1.554,1.554,0,0,0-4684.127,199.16Z" transform="translate(4696.746 -186.783)"/><path class="c" d="M-4670.76,165.773a1.541,1.541,0,0,0-1.5,1.6,1.533,1.533,0,0,0,1.551,1.472h.059a1.519,1.519,0,0,0,1.493-1.593A1.536,1.536,0,0,0-4670.76,165.773Z" transform="translate(4686.364 -158.991)"/><path class="c" d="M-4685.427,137.136a1.548,1.548,0,0,0,1.146-.5,1.551,1.551,0,0,0-.1-2.192,1.551,1.551,0,0,0-2.192.095,1.551,1.551,0,0,0,.094,2.193A1.546,1.546,0,0,0-4685.427,137.136Z" transform="translate(4698.799 -132.178)"/><path class="c" d="M-4715.025,212.878a1.539,1.539,0,0,0-1.514,1.574,1.522,1.522,0,0,0,1.55,1.479h.04a1.515,1.515,0,0,0,1.513-1.564A1.533,1.533,0,0,0-4715.025,212.878Z" transform="translate(4723.772 -198.785)"/></g><g transform="translate(155.853 35.962)"><path class="c" d="M-4782.78-459.231a1.554,1.554,0,0,0,.042,2.2,1.543,1.543,0,0,0,1.077.435,1.542,1.542,0,0,0,1.116-.475,1.551,1.551,0,0,0-.039-2.195A1.554,1.554,0,0,0-4782.78-459.231Z" transform="translate(4785.374 471.845)"/><circle class="c" cx="1.552" cy="1.552" r="1.552" transform="translate(7.057)"/><path class="c" d="M-4794.032-490.17a1.57,1.57,0,0,0-1.573-1.555,1.526,1.526,0,0,0-1.531,1.595h0a1.622,1.622,0,0,0,1.552,1.552h.02A1.565,1.565,0,0,0-4794.032-490.17Z" transform="translate(4797.138 498.894)"/><path class="c" d="M-4782.469-521.288a1.549,1.549,0,0,0,1.1-.461,1.553,1.553,0,0,0-.013-2.2,1.554,1.554,0,0,0-2.2.014,1.554,1.554,0,0,0,.014,2.2A1.545,1.545,0,0,0-4782.469-521.288Z" transform="translate(4786.057 526.491)"/><path class="c" d="M-4718.126-460.84a1.554,1.554,0,0,0,.067,2.2,1.549,1.549,0,0,0,1.064.421,1.552,1.552,0,0,0,1.131-.489,1.555,1.555,0,0,0-.069-2.195A1.553,1.553,0,0,0-4718.126-460.84Z" transform="translate(4730.746 473.217)"/><path class="c" d="M-4704.76-494.227a1.541,1.541,0,0,0-1.494,1.6,1.534,1.534,0,0,0,1.551,1.472h.059a1.519,1.519,0,0,0,1.493-1.593A1.538,1.538,0,0,0-4704.76-494.227Z" transform="translate(4720.363 501.009)"/><path class="c" d="M-4749.029-447.121a1.539,1.539,0,0,0-1.512,1.574,1.523,1.523,0,0,0,1.55,1.479h.039a1.516,1.516,0,0,0,1.514-1.564A1.532,1.532,0,0,0-4749.029-447.121Z" transform="translate(4757.774 461.215)"/><path class="c" d="M-4719.425-522.864a1.547,1.547,0,0,0,1.144-.5,1.552,1.552,0,0,0-.095-2.194,1.553,1.553,0,0,0-2.193.095,1.553,1.553,0,0,0,.095,2.193A1.547,1.547,0,0,0-4719.425-522.864Z" transform="translate(4732.799 527.822)"/></g></g></g></svg>